<svg width="14" height="16" viewBox="0 0 14 16" fill="none" xmlns="http://www.w3.org/2000/svg">
<path d="M12.9698 5.7198C12.4673 5.1648 11.7098 4.8423 10.6598 4.7298V4.1598C10.6598 3.1323 10.2248 2.1423 9.45981 1.4523C8.68731 0.747303 7.68231 0.417303 6.63981 0.514803C4.84731 0.687303 3.33981 2.4198 3.33981 4.2948V4.7298C2.28981 4.8423 1.53231 5.1648 1.02981 5.7198C0.302309 6.5298 0.324809 7.6098 0.407309 8.3598L0.932309 12.5373C1.08981 13.9998 1.68231 15.4998 4.90731 15.4998H9.09231C12.3173 15.4998 12.9098 13.9998 13.0673 12.5448L13.5923 8.3523C13.6748 7.6098 13.6898 6.5298 12.9698 5.7198ZM6.74481 1.5573C7.49481 1.4898 8.20731 1.7223 8.76231 2.2248C9.30981 2.7198 9.61731 3.4248 9.61731 4.1598V4.6848H4.38231V4.2948C4.38231 2.9598 5.48481 1.6773 6.74481 1.5573ZM4.31481 8.8623H4.30731C3.89481 8.8623 3.55731 8.5248 3.55731 8.1123C3.55731 7.6998 3.89481 7.3623 4.30731 7.3623C4.72731 7.3623 5.06481 7.6998 5.06481 8.1123C5.06481 8.5248 4.72731 8.8623 4.31481 8.8623ZM9.56481 8.8623H9.55731C9.14481 8.8623 8.80731 8.5248 8.80731 8.1123C8.80731 7.6998 9.14481 7.3623 9.55731 7.3623C9.97731 7.3623 10.3148 7.6998 10.3148 8.1123C10.3148 8.5248 9.97731 8.8623 9.56481 8.8623Z" fill="white"/>
</svg>
