<svg width="30" height="34" viewBox="0 0 30 34" fill="none" xmlns="http://www.w3.org/2000/svg">
<path d="M28.2666 11.933C27.1499 10.6997 25.4666 9.983 23.1332 9.733V8.46634C23.1332 6.183 22.1666 3.983 20.4666 2.44967C18.7499 0.883004 16.5166 0.149671 14.1999 0.366338C10.2166 0.749671 6.86657 4.59967 6.86657 8.76634V9.733C4.53324 9.983 2.8499 10.6997 1.73324 11.933C0.116568 13.733 0.166569 16.133 0.349902 17.7997L1.51657 27.083C1.86657 30.333 3.18323 33.6663 10.3499 33.6663H19.6499C26.8166 33.6663 28.1332 30.333 28.4832 27.0997L29.6499 17.783C29.8332 16.133 29.8666 13.733 28.2666 11.933ZM14.4332 2.683C16.0999 2.533 17.6832 3.04967 18.9166 4.16634C20.1332 5.26634 20.8166 6.833 20.8166 8.46634V9.633H9.18324V8.76634C9.18324 5.79967 11.6332 2.94967 14.4332 2.683ZM9.03324 18.9163H9.01657C8.0999 18.9163 7.3499 18.1663 7.3499 17.2497C7.3499 16.333 8.0999 15.583 9.01657 15.583C9.9499 15.583 10.6999 16.333 10.6999 17.2497C10.6999 18.1663 9.9499 18.9163 9.03324 18.9163ZM20.6999 18.9163H20.6832C19.7666 18.9163 19.0166 18.1663 19.0166 17.2497C19.0166 16.333 19.7666 15.583 20.6832 15.583C21.6166 15.583 22.3666 16.333 22.3666 17.2497C22.3666 18.1663 21.6166 18.9163 20.6999 18.9163Z" fill="#0E6E37"/>
</svg>
