<svg width="56" height="56" viewBox="0 0 56 56" fill="none" xmlns="http://www.w3.org/2000/svg">
<circle cx="28" cy="28" r="28" fill="#0E6E37" fill-opacity="0.08"/>
<path fill-rule="evenodd" clip-rule="evenodd" d="M43.2969 17.0889V38.208C43.2969 41.0069 41.0069 43.2969 38.208 43.2969H17.0889C14.29 43.2969 12 41.0069 12 38.208V17.0889C12 14.29 14.29 12 17.0889 12H38.208C41.0069 12 43.2969 14.29 43.2969 17.0889Z" stroke="#0E6E37" stroke-width="1.4" stroke-miterlimit="2.6131" stroke-linecap="round" stroke-linejoin="round"/>
<path fill-rule="evenodd" clip-rule="evenodd" d="M28.921 17.0889V23.8317C28.921 25.2312 30.066 26.3762 31.4654 26.3762H38.2083C39.6077 26.3762 40.7527 25.2312 40.7527 23.8317V17.0889C40.7527 15.6894 39.6077 14.5444 38.2083 14.5444H31.4654C30.0659 14.5444 28.921 15.6894 28.921 17.0889ZM31.4653 40.7524H38.2082C39.6077 40.7524 40.7527 39.6074 40.7527 38.208V31.4651C40.7527 30.0656 39.6077 28.9206 38.2082 28.9206H31.4653C30.0659 28.9206 28.9209 30.0656 28.9209 31.4651V38.208C28.9209 39.6074 30.0659 40.7524 31.4653 40.7524Z" stroke="#0E6E37" stroke-width="1.4" stroke-miterlimit="2.6131" stroke-linecap="round" stroke-linejoin="round"/>
<path d="M38.0764 29.1544C38.0193 30.4438 37.7025 31.7084 37.1449 32.8723M35.5309 29.1117C35.3421 32.5937 32.6336 35.4134 29.162 35.7419M32.9832 29.0801C32.8198 31.1754 31.2273 32.8784 29.1475 33.1817M40.5501 38.829C38.1314 39.0552 35.717 38.3547 33.7949 36.8692" stroke="#0E6E37" stroke-width="1.4" stroke-miterlimit="2.6131" stroke-linecap="round" stroke-linejoin="round"/>
<path d="M40.6158 36.2611C39.3384 36.4365 38.0375 36.258 36.8546 35.7449C35.6718 35.2319 34.6525 34.4039 33.9079 33.3514M40.5956 33.6831C40.2871 33.7489 39.9726 33.7821 39.6572 33.7821C37.6774 33.7821 35.9303 32.4876 35.3538 30.5935M35.5797 35.1936C33.9412 36.989 31.6818 38.095 29.2588 38.2878M36.5878 22.7813C36.8932 23.1722 37.0591 23.654 37.0591 24.15C37.0591 25.3779 36.0637 26.3732 34.8358 26.3732C33.608 26.3732 32.6126 25.3779 32.6126 24.15C32.6126 22.9221 33.608 21.9268 34.8358 21.9268C35.2107 21.9268 35.5795 22.0215 35.9079 22.2023" stroke="#0E6E37" stroke-width="1.4" stroke-miterlimit="2.6131" stroke-linecap="round" stroke-linejoin="round"/>
<path d="M39.9577 22.403C41.0123 21.3484 41.0122 19.6387 39.9577 18.5841C38.9031 17.5296 37.1934 17.5297 36.1389 18.5842C35.0843 19.6388 35.0844 21.3485 36.1389 22.403C37.1935 23.4575 38.9032 23.4575 39.9577 22.403Z" stroke="#0E6E37" stroke-width="1.4" stroke-miterlimit="2.6131" stroke-linecap="round" stroke-linejoin="round"/>
<path d="M33.4174 22.3399C32.9055 22.1425 32.4653 21.7947 32.1548 21.3423C31.8444 20.8899 31.6782 20.354 31.6782 19.8053C31.6782 18.3051 32.8944 17.0889 34.3947 17.0889C34.8176 17.0889 35.2347 17.1876 35.6127 17.3773C35.9908 17.5669 36.3193 17.8422 36.5722 18.1812M14.5449 23.3229V23.8317C14.5449 25.2312 15.6899 26.3762 17.0894 26.3762H23.8322C25.2317 26.3762 26.3767 25.2312 26.3767 23.8317V17.0889C26.3767 15.6894 25.2317 14.5444 23.8322 14.5444H17.0894C15.6899 14.5444 14.5449 15.6894 14.5449 17.0889V17.5978" stroke="#0E6E37" stroke-width="1.4" stroke-miterlimit="2.6131" stroke-linecap="round" stroke-linejoin="round"/>
<path d="M17.8623 20.1529L18.4773 20.7678M23.4296 20.1529L22.8147 20.7678M20.461 17.0889L21.076 17.7037M21.076 23.8318L20.461 23.2169" stroke="#0E6E37" stroke-width="1.4" stroke-miterlimit="22.9256" stroke-linecap="round" stroke-linejoin="round"/>
<path fill-rule="evenodd" clip-rule="evenodd" d="M17.0894 40.7523H23.8323C25.2317 40.7523 26.3767 39.6073 26.3767 38.2078V31.4649C26.3767 30.0654 25.2317 28.9204 23.8323 28.9204H17.0894C15.6899 28.9204 14.5449 30.0654 14.5449 31.4649V38.2078C14.5449 39.6073 15.6899 40.7523 17.0894 40.7523Z" stroke="#0E6E37" stroke-width="1.4" stroke-miterlimit="2.6131" stroke-linecap="round" stroke-linejoin="round"/>
<path d="M19.3527 28.9209C20.8545 29.2152 22.1286 29.647 22.1286 31.7867C22.1286 33.0415 20.4766 32.1522 21.2616 34.4792C21.5125 35.2228 21.3125 36.3968 20.5065 36.8646C17.8793 38.3892 15.3975 37.3922 14.5498 34.4792" stroke="#0E6E37" stroke-width="1.4" stroke-miterlimit="2.6131" stroke-linecap="round" stroke-linejoin="round"/>
<path d="M21.2507 33.0069C22.3827 33.8848 24.9492 31.9774 26.372 35.346M19.4522 37.524C19.6764 38.5829 18.9901 39.5526 20.7144 40.7308M17.4314 31.5413H17.4318M18.3693 34.5629H18.3698M23.4189 37.5924H23.4194M14.5439 20.4604H14.5444" stroke="#0E6E37" stroke-width="1.4" stroke-miterlimit="2.6131" stroke-linecap="round" stroke-linejoin="round"/>
</svg>
