<svg width="56" height="56" viewBox="0 0 56 56" fill="none" xmlns="http://www.w3.org/2000/svg">
<circle cx="28" cy="28" r="28" fill="#0E6E37" fill-opacity="0.08"/>
<path fill-rule="evenodd" clip-rule="evenodd" d="M15.5729 13C15.3471 13 15.1275 13.0742 14.948 13.2113C14.7686 13.3483 14.6392 13.5406 14.5798 13.7585L13.036 19.4189C13.012 19.5071 12.9999 19.5982 13 19.6896C12.9993 20.3413 13.1364 20.9858 13.4025 21.5807C13.6686 22.1756 14.0575 22.7075 14.5438 23.1414V38.7292C14.5438 41.5712 16.8475 43.875 19.6896 43.875H28.4375C28.7105 43.875 28.9722 43.7666 29.1652 43.5736C29.3582 43.3806 29.4667 43.1188 29.4667 42.8458C29.4667 42.5729 29.3582 42.3111 29.1652 42.1181C28.9722 41.9251 28.7105 41.8167 28.4375 41.8167H19.6896C18.8707 41.8167 18.0854 41.4914 17.5064 40.9124C16.9274 40.3333 16.6021 39.548 16.6021 38.7292V24.2061C16.9398 24.2825 17.285 24.321 17.6313 24.3208C18.322 24.3215 19.0042 24.1673 19.6276 23.8696C20.2509 23.5719 20.7996 23.1382 21.2333 22.6006C22.0824 23.6503 23.3807 24.3208 24.8354 24.3208C26.2901 24.3208 27.5884 23.6498 28.4375 22.6006C29.2866 23.6503 30.5849 24.3208 32.0396 24.3208C33.4943 24.3208 34.7926 23.6498 35.6417 22.6006C36.0754 23.1382 36.6241 23.5719 37.2474 23.8696C37.8708 24.1673 38.553 24.3215 39.2438 24.3208C39.5973 24.3208 39.942 24.2812 40.2729 24.2061V29.2094C40.2729 29.4823 40.3813 29.7441 40.5744 29.9371C40.7674 30.1301 41.0291 30.2385 41.3021 30.2385C41.575 30.2385 41.8368 30.1301 42.0298 29.9371C42.2228 29.7441 42.3313 29.4823 42.3313 29.2094V23.1414C42.8175 22.7075 43.2064 22.1756 43.4725 21.5807C43.7385 20.9858 43.8757 20.3413 43.875 19.6896C43.875 19.598 43.8627 19.5069 43.839 19.4189L42.2952 13.7585C42.2358 13.5406 42.1064 13.3483 41.927 13.2113C41.7475 13.0742 41.5279 13 41.3021 13H15.5729ZM24.8354 22.2625C24.153 22.2625 23.4986 21.9914 23.0161 21.5089C22.5336 21.0264 22.2625 20.372 22.2625 19.6896C22.2625 19.4166 22.1541 19.1549 21.9611 18.9619C21.7681 18.7688 21.5063 18.6604 21.2333 18.6604C20.9604 18.6604 20.6986 18.7688 20.5056 18.9619C20.3126 19.1549 20.2042 19.4166 20.2042 19.6896C20.2043 20.3611 19.9419 21.0061 19.473 21.4868C19.0041 21.9675 18.3659 22.2458 17.6946 22.2623C17.0233 22.2788 16.3721 22.0322 15.8801 21.5752C15.3881 21.1182 15.0943 20.4869 15.0614 19.8162L16.3592 15.0583H40.5158L41.8136 19.8162C41.7807 20.4869 41.4869 21.1182 40.9949 21.5752C40.5029 22.0322 39.8518 22.2788 39.1804 22.2623C38.5091 22.2458 37.8709 21.9675 37.402 21.4868C36.9331 21.0061 36.6707 20.3611 36.6708 19.6896C36.6708 19.4166 36.5624 19.1549 36.3694 18.9619C36.1764 18.7688 35.9146 18.6604 35.6417 18.6604C35.3687 18.6604 35.1069 18.7688 34.9139 18.9619C34.7209 19.1549 34.6125 19.4166 34.6125 19.6896C34.6125 20.372 34.3414 21.0264 33.8589 21.5089C33.3764 21.9914 32.722 22.2625 32.0396 22.2625C31.3572 22.2625 30.7028 21.9914 30.2203 21.5089C29.7377 21.0264 29.4667 20.372 29.4667 19.6896C29.4667 19.4166 29.3582 19.1549 29.1652 18.9619C28.9722 18.7688 28.7105 18.6604 28.4375 18.6604C28.1646 18.6604 27.9028 18.7688 27.7098 18.9619C27.5168 19.1549 27.4083 19.4166 27.4083 19.6896C27.4083 20.372 27.1373 21.0264 26.6547 21.5089C26.1722 21.9914 25.5178 22.2625 24.8354 22.2625Z" fill="#0E6E37" stroke="#ECF3EF" stroke-width="0.5"/>
<path fill-rule="evenodd" clip-rule="evenodd" d="M41.3023 34.0978C41.3039 35.129 40.917 36.1229 40.2186 36.8817C41.3192 37.4415 42.2433 38.2949 42.8887 39.3476C43.5341 40.4002 43.8755 41.6109 43.8753 42.8457C43.8753 43.1186 43.7668 43.3804 43.5738 43.5734C43.3808 43.7664 43.119 43.8748 42.8461 43.8748C42.5731 43.8748 42.3114 43.7664 42.1184 43.5734C41.9254 43.3804 41.8169 43.1186 41.8169 42.8457C41.8169 42.2375 41.6971 41.6353 41.4644 41.0734C41.2317 40.5115 40.8905 40.0009 40.4605 39.5709C40.0304 39.1408 39.5199 38.7997 38.958 38.567C38.3961 38.3342 37.7939 38.2144 37.1857 38.2144C36.5775 38.2144 35.9753 38.3342 35.4134 38.567C34.8515 38.7997 34.3409 39.1408 33.9109 39.5709C33.4808 40.0009 33.1397 40.5115 32.907 41.0734C32.6742 41.6353 32.5544 42.2375 32.5544 42.8457C32.5544 43.1186 32.446 43.3804 32.253 43.5734C32.06 43.7664 31.7982 43.8748 31.5253 43.8748C31.2523 43.8748 30.9905 43.7664 30.7975 43.5734C30.6045 43.3804 30.4961 43.1186 30.4961 42.8457C30.4958 41.6109 30.8373 40.4002 31.4827 39.3476C32.1281 38.2949 33.0522 37.4415 34.1527 36.8817C33.7 36.3884 33.3745 35.7922 33.2043 35.1446C33.0341 34.4971 33.0243 33.8179 33.176 33.1657C33.3276 32.5136 33.636 31.9083 34.0744 31.4023C34.5129 30.8963 35.0681 30.5049 35.692 30.262C36.3159 30.0191 36.9896 29.932 37.6547 30.0083C38.3199 30.0845 38.9564 30.3219 39.5091 30.6998C40.0618 31.0776 40.514 31.5846 40.8265 32.1767C41.1389 32.7689 41.3023 33.4283 41.3023 34.0978ZM35.1273 34.0978C35.1273 33.5519 35.3442 33.0283 35.7302 32.6423C36.1162 32.2563 36.6398 32.0394 37.1857 32.0394C37.7316 32.0394 38.2551 32.2563 38.6411 32.6423C39.0272 33.0283 39.244 33.5519 39.244 34.0978C39.244 34.6437 39.0272 35.1672 38.6411 35.5532C38.2551 35.9392 37.7316 36.1561 37.1857 36.1561C36.6398 36.1561 36.1162 35.9392 35.7302 35.5532C35.3442 35.1672 35.1273 34.6437 35.1273 34.0978Z" fill="#0E6E37" stroke="#ECF3EF" stroke-width="0.5"/>
</svg>
