<svg width="56" height="56" viewBox="0 0 56 56" fill="none" xmlns="http://www.w3.org/2000/svg">
<circle cx="28" cy="28" r="28" fill="#0E6E37" fill-opacity="0.08"/>
<path d="M16.75 20.6875C16.1937 20.6875 15.65 20.5226 15.1875 20.2135C14.7249 19.9045 14.3645 19.4652 14.1516 18.9513C13.9387 18.4374 13.883 17.8719 13.9915 17.3263C14.1001 16.7807 14.3679 16.2796 14.7613 15.8863C15.1546 15.4929 15.6557 15.2251 16.2013 15.1165C16.7469 15.008 17.3124 15.0637 17.8263 15.2766C18.3402 15.4895 18.7795 15.8499 19.0885 16.3125C19.3976 16.775 19.5625 17.3187 19.5625 17.875C19.5616 18.6206 19.265 19.3355 18.7378 19.8628C18.2105 20.39 17.4956 20.6866 16.75 20.6875ZM16.75 16.1875C16.4162 16.1875 16.09 16.2865 15.8125 16.4719C15.535 16.6573 15.3187 16.9209 15.191 17.2292C15.0632 17.5376 15.0298 17.8769 15.0949 18.2042C15.16 18.5316 15.3208 18.8322 15.5568 19.0682C15.7928 19.3042 16.0934 19.465 16.4208 19.5301C16.7481 19.5952 17.0874 19.5618 17.3958 19.434C17.7041 19.3063 17.9677 19.09 18.1531 18.8125C18.3385 18.535 18.4375 18.2088 18.4375 17.875C18.4375 17.4274 18.2597 16.9982 17.9432 16.6818C17.6268 16.3653 17.1976 16.1875 16.75 16.1875ZM19 37H14.5C13.7544 36.9991 13.0395 36.7025 12.5122 36.1753C11.985 35.648 11.6884 34.9331 11.6875 34.1875C11.6875 33.8891 11.806 33.603 12.017 33.392C12.228 33.181 12.5141 33.0625 12.8125 33.0625H20.6875C20.9859 33.0625 21.272 33.181 21.483 33.392C21.694 33.603 21.8125 33.8891 21.8125 34.1875C21.8116 34.9331 21.515 35.648 20.9878 36.1753C20.4605 36.7025 19.7456 36.9991 19 37ZM12.8125 34.1875C12.8125 34.6351 12.9903 35.0643 13.3068 35.3807C13.6232 35.6972 14.0524 35.875 14.5 35.875H19C19.4476 35.875 19.8768 35.6972 20.1932 35.3807C20.5097 35.0643 20.6875 34.6351 20.6875 34.1875H12.8125Z" fill="#0E6E37"/>
<path d="M12.25 34.75C12.1008 34.75 11.9577 34.6907 11.8523 34.5852C11.7468 34.4798 11.6875 34.3367 11.6875 34.1875V21.25C11.6875 21.1008 11.7468 20.9577 11.8523 20.8523C11.9577 20.7468 12.1008 20.6875 12.25 20.6875C12.3992 20.6875 12.5423 20.7468 12.6477 20.8523C12.7532 20.9577 12.8125 21.1008 12.8125 21.25V34.1875C12.8125 34.3367 12.7532 34.4798 12.6477 34.5852C12.5423 34.6907 12.3992 34.75 12.25 34.75ZM16.75 40.9375C16.6008 40.9375 16.4577 40.8782 16.3523 40.7727C16.2468 40.6673 16.1875 40.5242 16.1875 40.375V36.4375C16.1875 36.2883 16.2468 36.1452 16.3523 36.0398C16.4577 35.9343 16.6008 35.875 16.75 35.875C16.8992 35.875 17.0423 35.9343 17.1477 36.0398C17.2532 36.1452 17.3125 36.2883 17.3125 36.4375V40.375C17.3125 40.5242 17.2532 40.6673 17.1477 40.7727C17.0423 40.8782 16.8992 40.9375 16.75 40.9375Z" fill="#0E6E37"/>
<path d="M19.5625 40.9375H13.9375C13.7883 40.9375 13.6452 40.8782 13.5398 40.7728C13.4343 40.6673 13.375 40.5242 13.375 40.375C13.375 40.2258 13.4343 40.0827 13.5398 39.9773C13.6452 39.8718 13.7883 39.8125 13.9375 39.8125H19.5625C19.7117 39.8125 19.8548 39.8718 19.9602 39.9773C20.0657 40.0827 20.125 40.2258 20.125 40.375C20.125 40.5242 20.0657 40.6673 19.9602 40.7728C19.8548 40.8782 19.7117 40.9375 19.5625 40.9375ZM25.2876 40.9375C24.812 40.9384 24.3499 40.7799 23.9749 40.4874C23.5999 40.1949 23.3337 39.7852 23.2188 39.3237L21.9357 34.1875H16.75C16.0044 34.1866 15.2895 33.89 14.7622 33.3628C14.235 32.8355 13.9384 32.1206 13.9375 31.375V22.9375C13.9375 22.5438 14.14 21.25 16.75 21.25C19.36 21.25 19.5625 22.5438 19.5625 22.9375V25.1875H22.9375C23.3851 25.1875 23.8143 25.3653 24.1307 25.6818C24.4472 25.9982 24.625 26.4274 24.625 26.875C24.625 27.3226 24.4472 27.7518 24.1307 28.0682C23.8143 28.3847 23.3851 28.5625 22.9375 28.5625H19.5625V29.6875H21.7366C22.534 29.6904 23.3119 29.9341 23.9684 30.3867C24.625 30.8393 25.1295 31.4796 25.4159 32.2238L27.3171 38.1565C27.4194 38.4761 27.4448 38.8152 27.3912 39.1465C27.3377 39.4777 27.2067 39.7916 27.0089 40.0626C26.8111 40.3336 26.5521 40.5541 26.253 40.7061C25.9539 40.8582 25.6231 40.9374 25.2876 40.9375ZM16.75 22.375C15.6543 22.375 15.0625 22.6653 15.0625 22.9375V31.375C15.0625 31.8226 15.2403 32.2518 15.5568 32.5682C15.8732 32.8847 16.3024 33.0625 16.75 33.0625H22.375C22.5005 33.0625 22.6223 33.1045 22.7212 33.1818C22.8201 33.259 22.8903 33.3671 22.9206 33.4889L24.3106 39.0509C24.3433 39.1818 24.4021 39.3048 24.4833 39.4126C24.5646 39.5204 24.6667 39.6107 24.7836 39.6783C24.9005 39.7458 25.0297 39.7891 25.1637 39.8057C25.2976 39.8223 25.4336 39.8118 25.5634 39.7748C25.6932 39.7378 25.8142 39.675 25.9193 39.5903C26.0244 39.5056 26.1114 39.4006 26.1751 39.2816C26.2387 39.1626 26.2779 39.032 26.2901 38.8975C26.3023 38.7631 26.2873 38.6276 26.2461 38.4991L24.355 32.5928C24.1468 32.0681 23.786 31.6179 23.3192 31.3005C22.8524 30.9831 22.3011 30.8131 21.7366 30.8125H19C18.8508 30.8125 18.7077 30.7532 18.6023 30.6477C18.4968 30.5423 18.4375 30.3992 18.4375 30.25V28.5507C17.9619 28.507 17.5055 28.3422 17.1116 28.0721C16.7178 27.802 16.3996 27.4356 16.1875 27.0078L15.6841 26.0014C15.6174 25.8679 15.6065 25.7134 15.6537 25.5718C15.701 25.4302 15.8025 25.3132 15.9361 25.2466C16.0696 25.1799 16.2241 25.169 16.3657 25.2162C16.5073 25.2635 16.6243 25.365 16.6909 25.4986L17.1938 26.5049C17.3333 26.7857 17.5485 27.0219 17.8152 27.1867C18.0819 27.3515 18.3895 27.4384 18.703 27.4375H22.9375C23.0867 27.4375 23.2298 27.3782 23.3352 27.2727C23.4407 27.1673 23.5 27.0242 23.5 26.875C23.5 26.7258 23.4407 26.5827 23.3352 26.4773C23.2298 26.3718 23.0867 26.3125 22.9375 26.3125H19C18.8508 26.3125 18.7077 26.2532 18.6023 26.1477C18.4968 26.0423 18.4375 25.8992 18.4375 25.75V22.9375C18.4375 22.6653 17.8457 22.375 16.75 22.375ZM39.2326 20.6875C38.6763 20.6875 38.1325 20.5226 37.67 20.2135C37.2075 19.9045 36.847 19.4652 36.6342 18.9513C36.4213 18.4374 36.3656 17.8719 36.4741 17.3263C36.5826 16.7807 36.8505 16.2796 37.2438 15.8863C37.6372 15.4929 38.1383 15.2251 38.6839 15.1165C39.2294 15.008 39.7949 15.0637 40.3089 15.2766C40.8228 15.4895 41.262 15.8499 41.5711 16.3125C41.8801 16.775 42.0451 17.3187 42.0451 17.875C42.0442 18.6206 41.7476 19.3355 41.2203 19.8628C40.6931 20.39 39.9782 20.6866 39.2326 20.6875ZM39.2326 16.1875C38.8988 16.1875 38.5725 16.2865 38.295 16.4719C38.0175 16.6573 37.8012 16.9209 37.6735 17.2292C37.5458 17.5376 37.5124 17.8769 37.5775 18.2042C37.6426 18.5316 37.8033 18.8322 38.0393 19.0682C38.2753 19.3042 38.576 19.465 38.9033 19.5301C39.2307 19.5952 39.57 19.5618 39.8783 19.434C40.1867 19.3063 40.4502 19.09 40.6357 18.8125C40.8211 18.535 40.9201 18.2088 40.9201 17.875C40.9201 17.4274 40.7423 16.9982 40.4258 16.6818C40.1093 16.3653 39.6801 16.1875 39.2326 16.1875ZM41.4826 37H36.9826C36.2369 36.9991 35.5221 36.7025 34.9948 36.1753C34.4676 35.648 34.171 34.9331 34.1701 34.1875C34.1701 33.8891 34.2886 33.603 34.4996 33.392C34.7105 33.181 34.9967 33.0625 35.2951 33.0625H43.1701C43.4684 33.0625 43.7546 33.181 43.9656 33.392C44.1765 33.603 44.2951 33.8891 44.2951 34.1875C44.2942 34.9331 43.9976 35.648 43.4703 36.1753C42.9431 36.7025 42.2282 36.9991 41.4826 37ZM35.2951 34.1875C35.2951 34.6351 35.4729 35.0643 35.7893 35.3807C36.1058 35.6972 36.535 35.875 36.9826 35.875H41.4826C41.9301 35.875 42.3593 35.6972 42.6758 35.3807C42.9923 35.0643 43.1701 34.6351 43.1701 34.1875H35.2951Z" fill="#0E6E37"/>
<path d="M43.7324 34.75C43.5832 34.75 43.4402 34.6907 43.3347 34.5852C43.2292 34.4798 43.1699 34.3367 43.1699 34.1875V21.25C43.1699 21.1008 43.2292 20.9577 43.3347 20.8523C43.4402 20.7468 43.5832 20.6875 43.7324 20.6875C43.8816 20.6875 44.0247 20.7468 44.1302 20.8523C44.2357 20.9577 44.2949 21.1008 44.2949 21.25V34.1875C44.2949 34.3367 44.2357 34.4798 44.1302 34.5852C44.0247 34.6907 43.8816 34.75 43.7324 34.75ZM39.2324 40.9375C39.0832 40.9375 38.9402 40.8782 38.8347 40.7727C38.7292 40.6673 38.6699 40.5242 38.6699 40.375V36.4375C38.6699 36.2883 38.7292 36.1452 38.8347 36.0398C38.9402 35.9343 39.0832 35.875 39.2324 35.875C39.3816 35.875 39.5247 35.9343 39.6302 36.0398C39.7357 36.1452 39.7949 36.2883 39.7949 36.4375V40.375C39.7949 40.5242 39.7357 40.6673 39.6302 40.7727C39.5247 40.8782 39.3816 40.9375 39.2324 40.9375Z" fill="#0E6E37"/>
<path d="M42.0447 40.9375H36.4197C36.2706 40.9375 36.1275 40.8782 36.022 40.7727C35.9165 40.6673 35.8572 40.5242 35.8572 40.375C35.8572 40.2258 35.9165 40.0827 36.022 39.9773C36.1275 39.8718 36.2706 39.8125 36.4197 39.8125H42.0447C42.1939 39.8125 42.337 39.8718 42.4425 39.9773C42.548 40.0827 42.6072 40.2258 42.6072 40.375C42.6072 40.5242 42.548 40.6673 42.4425 40.7727C42.337 40.8782 42.1939 40.9375 42.0447 40.9375ZM30.6946 40.9375C30.3591 40.9376 30.0282 40.8584 29.7291 40.7064C29.4299 40.5544 29.1709 40.3339 28.9731 40.0628C28.7753 39.7918 28.6443 39.4778 28.5907 39.1465C28.5372 38.8153 28.5627 38.4761 28.6651 38.1565L30.5562 32.2502C30.8399 31.5005 31.344 30.8543 32.0022 30.3968C32.6605 29.9393 33.4419 29.692 34.2434 29.6875H36.4175V28.5625H33.0425C32.5949 28.5625 32.1657 28.3847 31.8493 28.0682C31.5328 27.7518 31.355 27.3226 31.355 26.875C31.355 26.4274 31.5328 25.9982 31.8493 25.6818C32.1657 25.3653 32.5949 25.1875 33.0425 25.1875H36.4175V22.9375C36.4175 22.5438 36.62 21.25 39.23 21.25C41.84 21.25 42.0425 22.5438 42.0425 22.9375V31.375C42.0416 32.1206 41.745 32.8355 41.2177 33.3628C40.6905 33.89 39.9756 34.1866 39.23 34.1875H34.0466L32.7624 39.3231C32.6476 39.7845 32.3816 40.1942 32.0069 40.4868C31.6321 40.7795 31.1701 40.9381 30.6946 40.9375ZM34.2434 30.8125C33.6739 30.8145 33.1183 30.9885 32.6493 31.3117C32.1804 31.6349 31.82 32.0922 31.6154 32.6238L29.7361 38.4991C29.6961 38.6272 29.6821 38.7621 29.695 38.8958C29.708 39.0294 29.7475 39.1592 29.8113 39.2773C29.8751 39.3954 29.962 39.4996 30.0667 39.5837C30.1714 39.6678 30.2918 39.73 30.421 39.7668C30.5501 39.8036 30.6853 39.8142 30.8186 39.7979C30.9519 39.7816 31.0806 39.7389 31.1971 39.6721C31.3136 39.6053 31.4155 39.5159 31.497 39.4091C31.5784 39.3023 31.6376 39.1803 31.6711 39.0503L33.0622 33.4889C33.0925 33.3671 33.1627 33.259 33.2616 33.1818C33.3605 33.1045 33.4823 33.0625 33.6078 33.0625H39.2328C39.6804 33.0625 40.1096 32.8847 40.4261 32.5682C40.7425 32.2518 40.9203 31.8226 40.9203 31.375V22.9375C40.9203 22.6652 40.3286 22.375 39.2328 22.375C38.1371 22.375 37.5453 22.6652 37.5453 22.9375V25.75C37.5453 25.8992 37.486 26.0423 37.3806 26.1477C37.2751 26.2532 37.132 26.3125 36.9828 26.3125H33.0453C32.8961 26.3125 32.7531 26.3718 32.6476 26.4773C32.5421 26.5827 32.4828 26.7258 32.4828 26.875C32.4828 27.0242 32.5421 27.1673 32.6476 27.2727C32.7531 27.3782 32.8961 27.4375 33.0453 27.4375H37.2809C37.5945 27.4385 37.9021 27.3517 38.1688 27.1869C38.4356 27.022 38.6508 26.7858 38.7901 26.5049L39.293 25.4986C39.3257 25.4319 39.3712 25.3724 39.427 25.3234C39.4828 25.2744 39.5477 25.2369 39.618 25.2132C39.6884 25.1894 39.7627 25.1798 39.8368 25.1849C39.9108 25.19 39.9832 25.2097 40.0496 25.2429C40.116 25.2761 40.1751 25.3221 40.2237 25.3783C40.2722 25.4344 40.3092 25.4996 40.3324 25.5702C40.3556 25.6407 40.3646 25.7151 40.359 25.7891C40.3533 25.8631 40.333 25.9353 40.2993 26.0014L39.7964 27.0078C39.5844 27.4357 39.2663 27.8022 38.8724 28.0723C38.4785 28.3424 38.022 28.5071 37.5464 28.5507V30.25C37.5464 30.3992 37.4872 30.5423 37.3817 30.6477C37.2762 30.7532 37.1331 30.8125 36.9839 30.8125H34.2434Z" fill="#0E6E37"/>
<path d="M33.0625 28.5625H22.375C22.2258 28.5625 22.0827 28.5032 21.9773 28.3977C21.8718 28.2923 21.8125 28.1492 21.8125 28C21.8125 27.8508 21.8718 27.7077 21.9773 27.6023C22.0827 27.4968 22.2258 27.4375 22.375 27.4375H33.0625C33.2117 27.4375 33.3548 27.4968 33.4602 27.6023C33.5657 27.7077 33.625 27.8508 33.625 28C33.625 28.1492 33.5657 28.2923 33.4602 28.3977C33.3548 28.5032 33.2117 28.5625 33.0625 28.5625Z" fill="#0E6E37"/>
<path d="M30.25 28.5625C30.1008 28.5625 29.9577 28.5032 29.8523 28.3977C29.7468 28.2922 29.6875 28.1492 29.6875 28V22.9375C29.6875 22.7883 29.7468 22.6452 29.8523 22.5397C29.9577 22.4342 30.1008 22.375 30.25 22.375H33.625C33.7742 22.375 33.9173 22.4342 34.0227 22.5397C34.1282 22.6452 34.1875 22.7883 34.1875 22.9375V24.0625C34.1875 24.2117 34.1282 24.3547 34.0227 24.4602C33.9173 24.5657 33.7742 24.625 33.625 24.625C33.4758 24.625 33.3327 24.5657 33.2273 24.4602C33.1218 24.3547 33.0625 24.2117 33.0625 24.0625V23.5H30.8125V28C30.8125 28.1492 30.7532 28.2922 30.6477 28.3977C30.5423 28.5032 30.3992 28.5625 30.25 28.5625ZM25.75 28.5625C25.6008 28.5625 25.4577 28.5032 25.3523 28.3977C25.2468 28.2922 25.1875 28.1492 25.1875 28V23.5H22.9375V24.0625C22.9375 24.2117 22.8782 24.3547 22.7727 24.4602C22.6673 24.5657 22.5242 24.625 22.375 24.625C22.2258 24.625 22.0827 24.5657 21.9773 24.4602C21.8718 24.3547 21.8125 24.2117 21.8125 24.0625V22.9375C21.8125 22.7883 21.8718 22.6452 21.9773 22.5397C22.0827 22.4342 22.2258 22.375 22.375 22.375H25.75C25.8992 22.375 26.0423 22.4342 26.1477 22.5397C26.2532 22.6452 26.3125 22.7883 26.3125 22.9375V28C26.3125 28.1492 26.2532 28.2922 26.1477 28.3977C26.0423 28.5032 25.8992 28.5625 25.75 28.5625ZM22.9375 21.8125C22.8263 21.8125 22.7175 21.7795 22.6251 21.7176C22.5326 21.6558 22.4605 21.568 22.4179 21.4652C22.3754 21.3625 22.3642 21.2494 22.3859 21.1403C22.4076 21.0312 22.4612 20.931 22.5398 20.8523C22.6431 20.7613 22.7258 20.6494 22.7825 20.524C22.8391 20.3986 22.8684 20.2626 22.8684 20.125C22.8684 19.9874 22.8391 19.8513 22.7825 19.7259C22.7258 19.6005 22.6431 19.4886 22.5398 19.3977C22.3142 19.2131 22.1371 18.9761 22.0242 18.7073C21.9112 18.4385 21.8658 18.1462 21.8918 17.8559C21.9376 17.6331 22.0327 17.4235 22.1702 17.2423C22.3076 17.0612 22.4839 16.9131 22.6861 16.809C22.8191 16.7415 22.9736 16.7295 23.1155 16.7758C23.2574 16.8221 23.375 16.9229 23.4426 17.056C23.5102 17.1891 23.5222 17.3435 23.4758 17.4854C23.4295 17.6273 23.3288 17.745 23.1957 17.8125C23.1574 17.8339 23.0174 17.9312 23.0016 18.0375C22.9949 18.0848 23.0016 18.2625 23.3352 18.6C23.5427 18.7957 23.7079 19.0317 23.8209 19.2935C23.9339 19.5554 23.9922 19.8376 23.9922 20.1227C23.9922 20.4079 23.9339 20.6901 23.8209 20.9519C23.7079 21.2138 23.5427 21.4498 23.3352 21.6454C23.2832 21.6981 23.2212 21.7399 23.153 21.7686C23.0848 21.7973 23.0115 21.8122 22.9375 21.8125ZM25.1875 21.8125C25.0763 21.8125 24.9675 21.7795 24.8751 21.7176C24.7826 21.6558 24.7105 21.568 24.6679 21.4652C24.6254 21.3625 24.6142 21.2494 24.6359 21.1403C24.6576 21.0312 24.7112 20.931 24.7898 20.8523C25.1312 20.5109 25.1312 20.3016 24.7898 19.9602C24.6589 19.8368 24.5546 19.6881 24.4833 19.5229C24.4119 19.3578 24.3752 19.1798 24.3752 19C24.3752 18.8201 24.4119 18.6422 24.4833 18.477C24.5546 18.3119 24.6589 18.1631 24.7898 18.0398C24.8959 17.9418 25.0357 17.8883 25.1802 17.8905C25.3246 17.8928 25.4627 17.9505 25.5657 18.0517C25.6688 18.153 25.7289 18.29 25.7337 18.4344C25.7385 18.5788 25.6875 18.7195 25.5914 18.8273C25.4277 19.0056 25.5228 19.1007 25.5852 19.1648C25.7676 19.3162 25.9144 19.5059 26.0152 19.7205C26.1159 19.935 26.1682 20.1692 26.1682 20.4062C26.1682 20.6433 26.1159 20.8774 26.0152 21.092C25.9144 21.3066 25.7676 21.4963 25.5852 21.6477C25.4797 21.7532 25.3367 21.8124 25.1875 21.8125ZM30.8125 21.8125C30.7013 21.8125 30.5925 21.7795 30.5001 21.7176C30.4076 21.6558 30.3355 21.568 30.2929 21.4652C30.2504 21.3625 30.2392 21.2494 30.2609 21.1403C30.2826 21.0312 30.3362 20.931 30.4148 20.8523C30.5181 20.7613 30.6008 20.6494 30.6575 20.524C30.7141 20.3986 30.7434 20.2626 30.7434 20.125C30.7434 19.9874 30.7141 19.8513 30.6575 19.7259C30.6008 19.6005 30.5181 19.4886 30.4148 19.3977C30.1892 19.2131 30.0121 18.9761 29.8992 18.7073C29.7862 18.4385 29.7408 18.1462 29.7668 17.8559C29.8126 17.6331 29.9077 17.4235 30.0452 17.2423C30.1826 17.0612 30.3589 16.9131 30.5611 16.809C30.6941 16.7415 30.8486 16.7295 30.9905 16.7758C31.1324 16.8221 31.25 16.9229 31.3176 17.056C31.3852 17.1891 31.3972 17.3435 31.3508 17.4854C31.3045 17.6273 31.2038 17.745 31.0707 17.8125C31.0324 17.8339 30.8924 17.9312 30.8766 18.0375C30.8699 18.0848 30.8766 18.2625 31.2102 18.6C31.4177 18.7957 31.5829 19.0317 31.6959 19.2935C31.8089 19.5554 31.8672 19.8376 31.8672 20.1227C31.8672 20.4079 31.8089 20.6901 31.6959 20.9519C31.5829 21.2138 31.4177 21.4498 31.2102 21.6454C31.1582 21.6981 31.0962 21.7399 31.028 21.7686C30.9597 21.7973 30.8865 21.8122 30.8125 21.8125ZM33.0625 21.8125C32.9513 21.8125 32.8425 21.7795 32.7501 21.7176C32.6576 21.6558 32.5855 21.568 32.5429 21.4652C32.5004 21.3625 32.4892 21.2494 32.5109 21.1403C32.5326 21.0312 32.5862 20.931 32.6648 20.8523C33.0062 20.5109 33.0062 20.3016 32.6648 19.9602C32.5339 19.8368 32.4296 19.6881 32.3583 19.5229C32.2869 19.3578 32.2502 19.1798 32.2502 19C32.2502 18.8201 32.2869 18.6422 32.3583 18.477C32.4296 18.3119 32.5339 18.1631 32.6648 18.0398C32.7709 17.9418 32.9107 17.8883 33.0552 17.8905C33.1996 17.8928 33.3377 17.9505 33.4407 18.0517C33.5438 18.153 33.6039 18.29 33.6087 18.4344C33.6135 18.5788 33.5625 18.7195 33.4664 18.8273C33.3027 19.0056 33.3978 19.1007 33.4602 19.1648C33.6426 19.3162 33.7894 19.5059 33.8902 19.7205C33.991 19.935 34.0432 20.1692 34.0432 20.4062C34.0432 20.6433 33.991 20.8774 33.8902 21.092C33.7894 21.3066 33.6426 21.4963 33.4602 21.6477C33.3547 21.7532 33.2117 21.8124 33.0625 21.8125Z" fill="#0E6E37"/>
</svg>
