<svg width="24" height="24" viewBox="0 0 24 24" fill="none" xmlns="http://www.w3.org/2000/svg">
<path d="M22.971 3.0668C22.7376 2.44612 22.0916 2.48621 21.5627 2.61151C21.6332 2.45305 21.6542 2.27701 21.6231 2.1064C21.592 1.93578 21.5101 1.77853 21.3882 1.65519C21.2662 1.53184 21.11 1.44814 20.9397 1.41502C20.7695 1.3819 20.5932 1.4009 20.4339 1.46953C20.1879 1.56312 19.9531 1.68387 19.7338 1.82953C19.508 1.37868 18.8667 1.33979 18.5115 1.69485C18.3689 1.82966 18.234 1.97233 18.1074 2.12219C18.086 2.14689 18.0698 2.17559 18.0596 2.20662C18.0494 2.23765 18.0454 2.27039 18.048 2.30296C18.0505 2.33553 18.0594 2.36727 18.0743 2.39635C18.0892 2.42543 18.1097 2.45127 18.1346 2.47238C18.1595 2.49348 18.1884 2.50944 18.2196 2.51932C18.2507 2.52919 18.2835 2.5328 18.316 2.52992C18.3486 2.52705 18.3802 2.51775 18.4091 2.50257C18.438 2.48738 18.4637 2.46661 18.4845 2.44146C18.5992 2.30568 18.7214 2.17642 18.8505 2.05428C19.0276 1.89391 19.2805 1.91085 19.3147 2.12614C19.3197 2.16754 19.3209 2.20932 19.3183 2.25094C19.3159 2.29995 19.328 2.34856 19.3532 2.39068C19.3784 2.4328 19.4154 2.46654 19.4597 2.48766C19.504 2.50878 19.5535 2.51634 19.6021 2.50939C19.6506 2.50244 19.6961 2.48129 19.7326 2.44859C19.9926 2.22744 20.2887 2.05276 20.6079 1.93224C20.975 1.78217 21.267 2.13045 21.0825 2.47676C21.0037 2.64088 20.9066 2.7956 20.7931 2.93798C20.6177 3.14974 20.8889 3.45158 21.1187 3.3013C21.1226 3.29883 21.516 3.05346 22.1679 3.02826C22.2402 3.01965 22.3133 3.03594 22.3751 3.07444C22.4369 3.11293 22.4837 3.17134 22.5078 3.24003C22.6673 3.6464 22.1381 3.98163 21.7867 4.09937C21.7422 4.11579 21.7033 4.14456 21.6746 4.18231C21.6459 4.22006 21.6285 4.26522 21.6246 4.31248C21.6206 4.35975 21.6303 4.40715 21.6523 4.44914C21.6744 4.49112 21.708 4.52594 21.7491 4.54951C21.8712 4.62524 21.9823 4.71723 22.0795 4.82297C22.3693 5.1265 22.2058 5.65767 21.8627 5.87318C21.6087 6.04171 21.3407 6.18818 21.0616 6.31097C21.0089 6.2946 20.9609 6.26582 20.9216 6.22706C20.8823 6.1883 20.8528 6.14068 20.8357 6.08819C20.7425 5.80584 20.4511 5.45572 19.5918 5.38739C19.1401 5.35139 18.7534 5.32923 18.3777 5.37327C19.369 4.72979 20.0248 4.58861 20.0344 4.58678C20.0987 4.57408 20.1553 4.53636 20.1918 4.48192C20.2283 4.42747 20.2416 4.36077 20.2289 4.29648C20.2162 4.2322 20.1785 4.17559 20.1241 4.13911C20.0696 4.10263 20.0029 4.08928 19.9386 4.10198C19.8932 4.11087 19.1069 4.27428 17.948 5.06311C18.3344 4.25134 18.097 3.45603 17.4695 3.07598C17.6846 2.5328 17.7961 1.73756 17.1589 1.38927C16.6622 1.11779 16.2493 1.23786 15.9727 1.43932C15.9048 1.30923 15.8071 1.1971 15.6875 1.11212C15.5678 1.02715 15.4298 0.971764 15.2846 0.950509C15.1394 0.929255 14.9913 0.94274 14.8523 0.989858C14.7134 1.03698 14.5876 1.11638 14.4853 1.22156C14.1262 1.58071 14.1097 2.02464 14.2046 2.44181C13.2763 2.26803 12.8173 3.46393 13.6051 4.02652C13.4072 4.16767 13.2701 4.37849 13.2214 4.6166C13.1726 4.85471 13.2158 5.10246 13.3422 5.31003C13.5844 5.69251 13.7626 6.11195 13.8697 6.55181C13.5594 6.95317 13.211 7.32362 12.8294 7.658C12.9068 7.14142 12.809 6.6138 12.5516 6.15927C12.517 6.10418 12.4619 6.065 12.3985 6.05025C12.3351 6.03549 12.2685 6.04636 12.213 6.08048C12.1576 6.1146 12.1179 6.16922 12.1025 6.23247C12.0871 6.29572 12.0973 6.36249 12.1309 6.41826C12.1579 6.45461 12.7093 7.41476 12.005 8.33247C11.7626 8.51636 11.4989 8.69833 11.2392 8.876C11.0072 8.44676 9.96923 7.58 10.7309 7.41483C10.7788 7.40594 10.823 7.38319 10.8581 7.34941C10.8931 7.31563 10.9175 7.27231 10.9282 7.2248C10.9388 7.1773 10.9353 7.12772 10.9181 7.08219C10.9008 7.03667 10.8706 6.99721 10.8311 6.96871C9.68878 6.14283 9.61812 5.70518 10.2406 5.4505C10.2799 5.4375 10.3152 5.41494 10.3435 5.38486C10.3718 5.35478 10.3922 5.31812 10.4028 5.27819C10.4134 5.23826 10.4139 5.19633 10.4042 5.15616C10.3946 5.116 10.375 5.07888 10.3474 5.04814C10.0424 4.73381 9.87824 4.3705 10.1646 4.04657C10.9079 3.28838 11.8114 4.87428 11.8209 5.00614C11.8378 5.04895 11.8663 5.08624 11.9031 5.11384C11.9399 5.14144 11.9837 5.15828 12.0295 5.16249C12.0754 5.1667 12.1215 5.1581 12.1627 5.13767C12.204 5.11723 12.2387 5.08575 12.2631 5.04673C12.3891 4.83913 12.5201 4.70219 12.6522 4.63979C12.711 4.61151 12.7561 4.56115 12.7779 4.4997C12.7997 4.43825 12.7963 4.37069 12.7684 4.31174C12.7406 4.25278 12.6906 4.20722 12.6293 4.18497C12.5681 4.16272 12.5005 4.1656 12.4413 4.19297C12.3108 4.25696 12.1934 4.34464 12.095 4.45153C11.8993 4.11525 11.5265 3.63059 10.9841 3.4225C10.7465 2.74619 11.1725 2.53534 11.2603 2.50012C11.2988 2.48572 11.3331 2.46195 11.3601 2.43095C11.3871 2.39995 11.4059 2.36271 11.4149 2.32259C11.4604 2.10666 11.1964 1.97487 11.1104 1.81683C10.8896 1.51908 10.9635 1.22508 11.0938 1.06372C11.636 0.440638 12.4648 1.43643 12.5338 1.64579C12.5598 1.69937 12.6041 1.74182 12.6588 1.76535C12.7135 1.78889 12.7748 1.79193 12.8315 1.77392C12.8882 1.75591 12.9366 1.71805 12.9677 1.6673C12.9988 1.61654 13.0105 1.55628 13.0008 1.49756C12.9373 1.2529 13.0453 1.04579 13.1821 0.977814C13.2617 0.931261 13.3528 0.907996 13.445 0.910666C13.5372 0.913337 13.6268 0.941836 13.7036 0.99292C13.9789 1.16339 14.2409 0.756167 13.9697 0.576449C13.5146 0.27052 12.8458 0.418685 12.5944 0.902214C11.3316 -0.418633 9.79996 1.00414 10.7955 2.21614C10.4819 2.47153 10.3467 2.92838 10.4535 3.35967C10.2621 3.38788 10.0817 3.46666 9.93095 3.58789C9.78019 3.70912 9.66454 3.8684 9.59593 4.04928C9.52733 4.23015 9.50825 4.42607 9.54068 4.61678C9.57311 4.80749 9.65587 4.98609 9.78041 5.13412C9.01961 5.67511 9.34431 6.44332 10.2142 7.12471C9.77342 7.53454 9.93436 8.02725 10.4235 8.61546C10.5732 8.78759 10.7107 8.96996 10.8349 9.16125C7.89365 11.2303 1.56944 17.1509 1.54812 21.078L1.31405 21.2626C1.21343 21.3432 1.13084 21.444 1.07163 21.5585C1.01242 21.673 0.977912 21.7986 0.97034 21.9273C0.962768 22.056 0.982299 22.1848 1.02767 22.3055C1.07304 22.4261 1.14324 22.5359 1.23372 22.6277L1.96784 23.3618C2.13998 23.5323 2.37246 23.628 2.61475 23.628C2.85703 23.628 3.08952 23.5323 3.26165 23.3618C3.42655 23.1954 3.62328 22.9817 3.83342 22.8778C6.98963 21.1893 10.2208 18.6685 12.9314 15.7797C13.1441 15.5459 12.8037 15.2045 12.571 15.4416C9.89624 18.2922 6.71052 20.7781 3.60069 22.4419C3.43206 22.5323 3.27765 22.6469 3.14243 22.7822L2.91231 23.0121C2.83337 23.0909 2.72639 23.1352 2.61485 23.1352C2.50332 23.1352 2.39634 23.0909 2.31739 23.0121L1.58328 22.278C1.54154 22.2359 1.50915 22.1854 1.48821 22.1299C1.46726 22.0744 1.45824 22.0151 1.46172 21.9559C1.4652 21.8967 1.48112 21.8389 1.50842 21.7862C1.53572 21.7336 1.57381 21.6873 1.62019 21.6503L1.76906 21.5328L2.46972 22.2336C2.51607 22.2799 2.57892 22.3059 2.64446 22.3059C2.71 22.3059 2.77286 22.2799 2.81921 22.2336C2.86555 22.1872 2.89159 22.1244 2.89159 22.0588C2.89159 21.9933 2.86555 21.9304 2.81921 21.8841L2.04274 21.1076C2.34831 16.6566 8.78186 11.3607 10.7604 9.83396C11.864 9.0356 13.2058 8.13645 13.9477 7.23737C13.9395 8.02676 13.5841 8.48861 13.5415 8.54092C12.9815 9.1177 12.3721 9.64441 11.7203 10.115C8.11728 12.8443 5.96095 15.831 5.00497 17.3587C4.58722 18.0364 4.25455 18.7631 4.01448 19.5222C3.89587 19.9072 3.71609 20.2706 3.48203 20.5985L2.8929 20.9593C2.86523 20.9762 2.84117 20.9985 2.82209 21.0247C2.80301 21.051 2.78929 21.0807 2.7817 21.1123C2.77412 21.1438 2.77282 21.1765 2.77789 21.2086C2.78295 21.2406 2.79428 21.2714 2.81123 21.299C2.82817 21.3267 2.8504 21.3508 2.87665 21.3699C2.90289 21.3889 2.93264 21.4027 2.96419 21.4102C2.99573 21.4178 3.02847 21.4191 3.06051 21.4141C3.09256 21.409 3.1233 21.3977 3.15097 21.3807L3.77419 20.999C6.87824 19.2817 9.58954 17.063 11.7432 14.9942C11.924 14.898 12.6483 14.5994 13.8086 15.2189C14.0218 15.3324 14.2661 15.3737 14.5048 15.3364C14.7435 15.2991 14.9636 15.1854 15.1321 15.0122C15.7029 15.6139 16.8916 16.3816 17.3649 15.1575C17.7412 15.2618 18.2461 15.1104 18.4258 14.6853C18.7911 14.909 19.1521 15.1175 19.565 15.1409C20.0204 15.1536 20.4572 14.7585 20.4862 14.3022C21.2237 14.406 21.7639 13.5305 21.3632 12.9091C21.5723 12.7544 21.7199 12.5305 21.7796 12.2773C23.0108 11.9064 22.9565 10.3773 21.8833 9.77593C21.8268 9.74273 21.7595 9.73333 21.696 9.7498C21.6326 9.76626 21.5783 9.80725 21.5451 9.86374C21.5119 9.92024 21.5025 9.9876 21.519 10.051C21.5355 10.1144 21.5765 10.1687 21.6329 10.2019C22.0483 10.446 22.2214 10.7618 22.1944 11.226C22.1759 11.5436 21.7862 11.7977 21.5366 11.826C21.4785 11.8331 21.4247 11.8605 21.3847 11.9032C21.3447 11.946 21.321 12.0015 21.3178 12.06C21.3096 12.1537 21.2806 12.2444 21.233 12.3255C21.1854 12.4067 21.1203 12.4762 21.0425 12.529C20.8972 12.3932 20.7368 12.2746 20.5644 12.1756C20.8781 11.7146 20.6279 11.0025 20.0914 10.8364C19.4159 10.614 18.7101 10.4969 17.9989 10.4892C17.6742 10.4898 17.6621 10.9687 17.9871 10.9833C18.6473 10.9899 19.3026 11.0978 19.9301 11.3035C20.0014 11.3281 20.0645 11.3719 20.1125 11.4301C20.1605 11.4883 20.1914 11.5586 20.202 11.6333C20.2142 11.7036 20.2068 11.776 20.1804 11.8423C20.154 11.9086 20.1098 11.9664 20.0526 12.0091C20.0026 12.0328 19.9611 12.0713 19.9336 12.1194C19.9061 12.1674 19.8939 12.2227 19.8987 12.2779C19.9045 12.3235 19.9229 12.3666 19.9518 12.4023C19.9807 12.438 20.019 12.465 20.0624 12.4802C20.4043 12.6162 20.702 12.844 20.9227 13.1385C20.975 13.2104 21.0035 13.297 21.0039 13.3859C21.0044 13.4749 20.9769 13.5617 20.9253 13.6342C20.8151 13.8067 20.5777 13.8847 20.2923 13.7268C20.0915 13.6205 19.8582 13.8551 19.9611 14.0563C19.9939 14.1315 20.0037 14.2149 19.989 14.2957C19.9743 14.3765 19.9358 14.4511 19.8785 14.5099C19.8235 14.5696 19.7525 14.6123 19.674 14.6331C19.5955 14.6538 19.5128 14.6518 19.4354 14.6272C19.1199 14.5266 18.8233 14.3742 18.5578 14.1763C18.5975 13.4695 17.9563 12.9868 17.4733 12.7255C17.5279 12.6503 17.5659 12.5644 17.5848 12.4734C18.6262 12.5661 19.0244 12.8524 19.2286 12.8766C19.2842 12.8759 19.3378 12.8566 19.3811 12.8218C19.4243 12.787 19.4546 12.7387 19.4671 12.6846C19.4796 12.6305 19.4736 12.5738 19.45 12.5235C19.4264 12.4732 19.3867 12.4323 19.3371 12.4074C18.7551 12.1521 18.1316 12.0045 17.4969 11.9719C17.431 11.8717 17.3389 11.7914 17.2306 11.7398C17.0032 11.6302 16.7622 11.5513 16.5139 11.5054C16.866 11.0205 17.4908 10.1475 17.8256 9.60546C17.9474 9.57323 18.0613 9.51655 18.1604 9.43888C18.2595 9.36122 18.3418 9.26418 18.4022 9.1537C18.9524 9.69426 19.9688 10.2286 20.6295 9.38212C20.8504 9.50263 21.107 9.54019 21.3531 9.488C21.5992 9.43582 21.8185 9.29734 21.9714 9.09758C22.1169 8.9288 22.2999 8.5964 22.0587 8.14174C22.5835 7.67156 22.4117 6.83473 21.7522 6.51772C21.8835 6.44495 22.0118 6.36698 22.1369 6.284C22.7863 5.876 22.9476 4.88339 22.3397 4.38518C22.8321 4.12979 23.1741 3.59445 22.971 3.0668ZM13.7274 4.63683C13.8968 4.19812 14.3768 4.48337 14.4404 4.10939C14.4465 4.05462 14.4342 3.99936 14.4053 3.9524C14.3764 3.90544 14.3327 3.86949 14.281 3.85026C14.1576 3.8041 13.8155 3.63419 13.7163 3.40556C13.628 3.24977 13.7792 2.95824 13.9097 2.93805C14.0825 2.87565 14.3806 3.00214 14.4629 3.05381C14.5072 3.07951 14.5583 3.0909 14.6093 3.08644C14.6603 3.08198 14.7087 3.06188 14.7479 3.0289C14.787 2.99591 14.815 2.95164 14.828 2.90214C14.8411 2.85264 14.8385 2.80032 14.8207 2.75233C14.5907 2.1644 14.5948 1.81125 14.8348 1.57139C14.9058 1.49479 15.0022 1.4466 15.1061 1.43581C15.21 1.42502 15.3143 1.45236 15.3995 1.51273C15.5271 1.6236 15.6103 1.77681 15.6339 1.94417C15.6439 1.99249 15.6681 2.03674 15.7034 2.07122C15.7387 2.1057 15.7835 2.12885 15.8321 2.13769C15.8806 2.14654 15.9307 2.14068 15.9759 2.12086C16.0211 2.10104 16.0593 2.06817 16.0857 2.02647C16.1378 1.94466 16.4233 1.55057 16.9222 1.82325C17.4104 2.09007 16.9349 3.06363 16.9301 3.07308C16.9148 3.10394 16.9061 3.13763 16.9044 3.17202C16.9028 3.20641 16.9083 3.24077 16.9206 3.27294C16.9328 3.30511 16.9516 3.3344 16.9758 3.35896C16.9999 3.38351 17.0289 3.40282 17.0608 3.41565C18.2968 4.06414 17.5685 5.5333 14.9785 7.51732C16.3016 5.52483 16.2094 4.04812 16.2036 3.97379C16.1983 3.90875 16.1674 3.84845 16.1178 3.80606C16.0682 3.76368 16.0038 3.74264 15.9387 3.74756C15.8737 3.75247 15.8132 3.78293 15.7705 3.83229C15.7278 3.88164 15.7064 3.94589 15.7109 4.01099C15.7121 4.02814 15.7933 5.48748 14.4356 7.43452C14.4817 6.81101 14.3472 6.00391 13.7638 5.05273C13.7254 4.99116 13.7021 4.9214 13.6958 4.84913C13.6895 4.77686 13.7003 4.70412 13.7274 4.63683ZM16.7355 9.4069C16.9158 9.44518 17.0922 9.49991 17.2625 9.57038C16.8406 10.2177 16.1614 11.152 15.9355 11.4601C15.5794 11.4707 15.2278 11.5425 14.8961 11.6724C15.7438 10.6934 16.368 9.89487 16.7355 9.4069ZM17.1019 12.3716C17.0949 12.4087 17.0737 12.4415 17.0427 12.4632C17.0118 12.4848 16.9737 12.4934 16.9364 12.4873C16.6273 12.4041 16.5 12.8571 16.7989 12.9614C16.813 12.9662 18.1959 13.4651 18.0545 14.2332C18.0145 14.4501 17.9345 14.5909 17.8175 14.6514C17.6441 14.7409 17.391 14.6604 17.3093 14.6223C17.2761 14.6064 17.2398 14.5982 17.203 14.5981C17.1662 14.5981 17.1299 14.6062 17.0967 14.622C17.0634 14.6378 17.0342 14.6608 17.011 14.6893C16.9877 14.7179 16.9712 14.7512 16.9625 14.787C16.9108 15.0003 16.8094 15.2642 16.6201 15.3093C16.2425 15.3998 15.5633 14.7764 15.2934 14.4606C15.2702 14.4335 15.2414 14.4117 15.209 14.3967C15.1765 14.3818 15.1412 14.3741 15.1055 14.3741C15.0562 14.3744 15.0081 14.3892 14.9672 14.4168C14.9262 14.4443 14.8943 14.4832 14.8755 14.5288C14.8376 14.6004 14.7859 14.6638 14.7234 14.7154C14.6609 14.7669 14.5888 14.8056 14.5113 14.8292C14.4338 14.8528 14.3524 14.8609 14.2718 14.853C14.1911 14.845 14.1129 14.8212 14.0415 14.7829C13.4662 14.4758 12.9726 14.3633 12.5725 14.3471C14.148 13.3447 15.4427 13.6293 15.5065 13.6442C15.5691 13.6567 15.6341 13.6445 15.6879 13.6101C15.7417 13.5757 15.7801 13.5219 15.795 13.4598C15.81 13.3977 15.8003 13.3323 15.7681 13.2772C15.7359 13.2221 15.6836 13.1816 15.6221 13.1642C15.5641 13.1501 14.5978 12.9294 13.306 13.4242C14.5505 12.1015 15.7967 11.6269 17.0161 12.1849C17.0504 12.2007 17.0778 12.2282 17.0935 12.2625C17.1093 12.2968 17.1122 12.3355 17.1019 12.3718V12.3716ZM21.8679 7.54019C21.8185 7.7437 21.6067 7.87309 21.6062 7.87344C21.5759 7.89105 21.5497 7.91491 21.5293 7.94342C21.509 7.97193 21.4949 8.00445 21.4881 8.03882C21.4812 8.07319 21.4818 8.10862 21.4897 8.14276C21.4976 8.1769 21.5127 8.20896 21.5339 8.23683C21.7815 8.56153 21.6573 8.7056 21.5974 8.77485C21.3097 9.13859 20.9261 9.0277 20.7292 8.85892C20.7019 8.8348 20.6696 8.81698 20.6347 8.80672C20.5997 8.79645 20.5629 8.79399 20.5269 8.79951C20.4909 8.80504 20.4565 8.8184 20.4263 8.83867C20.396 8.85894 20.3705 8.88561 20.3517 8.9168C20.1968 9.17798 20.0185 9.31358 19.8064 9.33144C19.3193 9.37196 18.7238 8.80429 18.5355 8.58214C18.5085 8.55091 18.4743 8.52685 18.4358 8.51215C18.3972 8.49744 18.3557 8.49255 18.3148 8.4979C18.2739 8.50326 18.235 8.5187 18.2015 8.54283C18.1681 8.56696 18.1412 8.59903 18.1232 8.63614C17.9851 8.93812 17.7966 9.25118 17.4264 9.10457C16.7514 8.81863 15.9964 8.78304 15.2975 9.00419C16.6772 7.70212 18.6279 7.24923 19.7251 7.50426C19.7887 7.52001 19.856 7.50982 19.9122 7.47594C19.9683 7.44207 20.0087 7.38728 20.0245 7.32363C20.0402 7.25997 20.03 7.19267 19.9961 7.13653C19.9623 7.08039 19.9075 7.04001 19.8438 7.02426C18.0526 6.69885 15.6807 7.43148 13.8162 9.88541C13.5622 10.2031 13.3041 10.5175 13.0419 10.8285C12.9997 10.8786 12.9791 10.9435 12.9846 11.0087C12.9902 11.074 13.0214 11.1344 13.0715 11.1767C13.1216 11.2189 13.1864 11.2395 13.2517 11.234C13.317 11.2285 13.3774 11.1972 13.4197 11.1471C13.682 10.836 13.9402 10.5215 14.1944 10.2036C14.2791 10.1177 15.0434 9.37513 16.1561 9.35219C15.1887 10.6035 14.159 11.8055 13.0711 12.9537L11.3816 14.6431C11.3675 14.6582 11.355 14.6748 11.3444 14.6925C9.41031 16.5444 7.02732 18.5119 4.31695 20.1182C4.54248 19.5525 4.73342 18.8945 5.00928 18.3689C7.28222 17.1673 9.60386 15.305 11.9186 12.837C11.9634 12.7892 11.9874 12.7255 11.9853 12.66C11.9831 12.5945 11.9551 12.5326 11.9073 12.4878C11.8595 12.4429 11.7958 12.419 11.7303 12.4211C11.6648 12.4232 11.6028 12.4513 11.558 12.4991C9.51803 14.6756 7.47415 16.3682 5.47248 17.5437C6.4341 16.0233 8.52528 13.1601 12.0053 10.518C12.6787 10.0335 13.308 9.49034 13.8857 8.89492C14.8743 8.24872 15.8117 7.52729 16.6895 6.73704C16.7217 6.71763 16.751 6.69369 16.7764 6.66596C17.8635 5.79144 18.4652 5.79348 19.5529 5.87996C20.0125 5.91652 20.3015 6.04563 20.3668 6.24327C20.4156 6.39374 20.5062 6.52727 20.6279 6.62834C20.7496 6.72942 20.8975 6.79389 21.0543 6.81426C21.5356 6.88231 21.928 7.11708 21.8679 7.54019Z" fill="#3F3F3F"/>
<path d="M16.6217 13.9352C16.6877 13.9347 16.7509 13.9082 16.7975 13.8615C16.8442 13.8148 16.8706 13.7516 16.871 13.6855C16.8715 13.6195 16.846 13.556 16.8 13.5086C16.754 13.4612 16.6912 13.4339 16.6252 13.4324C16.5592 13.4329 16.496 13.4594 16.4494 13.5061C16.4027 13.5529 16.3763 13.616 16.3758 13.6821C16.3754 13.7481 16.4009 13.8116 16.4469 13.859C16.4929 13.9064 16.5557 13.9337 16.6217 13.9352ZM12.4876 11.5781C12.4216 11.5787 12.3584 11.6052 12.3118 11.6519C12.2651 11.6986 12.2387 11.7618 12.2383 11.8278C12.2378 11.8938 12.2634 11.9574 12.3094 12.0047C12.3554 12.0521 12.4181 12.0795 12.4841 12.0809C12.5502 12.0804 12.6133 12.0539 12.66 12.0072C12.7066 11.9604 12.733 11.8972 12.7335 11.8312C12.7339 11.7652 12.7084 11.7017 12.6624 11.6543C12.6164 11.607 12.5536 11.5796 12.4876 11.5781Z" fill="#3F3F3F"/>
</svg>
