<svg width="24" height="24" viewBox="0 0 24 24" fill="none" xmlns="http://www.w3.org/2000/svg">
<path d="M20.316 12.9302L16.7113 14.1705L15.2578 13.3372V10.6822L16.7113 9.84884L20.316 11.0891C20.5679 11.186 20.8586 11.031 20.9361 10.7791C21.033 10.5271 20.878 10.2364 20.6261 10.1589L17.8354 9.2093L20.4517 7.69767C20.6842 7.56202 20.7617 7.25194 20.6261 7.01938C20.4904 6.78682 20.1803 6.7093 19.9478 6.84496L17.3315 8.35659L17.8935 5.46899C17.9516 5.19767 17.7772 4.94574 17.5059 4.8876C17.2346 4.82946 16.9827 5.00388 16.9245 5.27519L16.1881 9.0155L14.7346 9.84884L13.6299 9.2093L13.6106 9.18992L12.4865 8.53101V6.86434L15.3547 4.36434C15.5679 4.18992 15.5873 3.87985 15.3935 3.66667C15.2191 3.45349 14.909 3.43411 14.6958 3.62791L12.4865 5.56589V2.50388C12.4865 2.23256 12.2734 2 11.9827 2C11.7113 2 11.4788 2.21318 11.4788 2.50388V5.52713L9.26948 3.60853C9.0563 3.43411 8.74622 3.45349 8.5718 3.64729C8.39738 3.86047 8.41676 4.17054 8.61056 4.34496L11.4788 6.84496V8.51163L10.3547 9.17054L9.23072 9.82946L7.77723 8.99612L7.04079 5.25581C6.98265 4.9845 6.73072 4.81008 6.4594 4.86822C6.18808 4.92636 6.01366 5.17829 6.0718 5.44961L6.63382 8.33721L4.01754 6.82558C3.78498 6.68992 3.4749 6.76744 3.33924 7C3.20358 7.23256 3.2811 7.54264 3.51366 7.67829L6.12994 9.18992L3.33924 10.1395C3.08731 10.2364 2.93227 10.5078 3.02917 10.7597C3.12606 11.0116 3.39738 11.1667 3.64932 11.0698L7.25397 9.82946L8.70746 10.6628V13.3178H8.72684L7.27335 14.1512L3.6687 12.9109C3.41676 12.814 3.12606 12.969 3.04855 13.2209C2.95165 13.4729 3.10669 13.7636 3.35862 13.8411L6.14932 14.7907L3.53304 16.3023C3.30048 16.438 3.22296 16.7481 3.35862 16.9806C3.49428 17.2132 3.80436 17.2907 4.03692 17.155L6.6532 15.6434L6.09118 18.531C6.03304 18.8023 6.20746 19.0543 6.47878 19.1124C6.7501 19.1705 7.00203 18.9961 7.06017 18.7248L7.79661 14.9845L9.2501 14.1512L10.3935 14.8101L11.5175 15.469V17.1357L8.64932 19.6357C8.43614 19.8101 8.41676 20.1202 8.61056 20.3333C8.78498 20.5465 9.09506 20.5659 9.30824 20.3721L11.5175 18.4341V21.4961C11.5175 21.7674 11.7307 22 12.0214 22C12.2927 22 12.5253 21.7868 12.5253 21.4961V18.4729L14.7346 20.4109C14.9478 20.5853 15.2579 20.5659 15.4323 20.3721C15.6067 20.1589 15.5873 19.8488 15.3935 19.6744L12.4865 17.155V15.4884L13.6106 14.8295L14.7346 14.1705L16.1881 15.0039L16.9245 18.7442C16.9827 19.0155 17.2346 19.1899 17.5059 19.1318C17.7772 19.0736 17.9516 18.8217 17.8935 18.5504L17.3315 15.6628L19.9478 17.1744C20.1803 17.3101 20.4904 17.2326 20.6261 17C20.7617 16.7674 20.6842 16.4574 20.4517 16.3217L17.8354 14.8101L20.6261 13.8605C20.878 13.7636 21.033 13.4922 20.9361 13.2403C20.8392 12.9884 20.5679 12.8333 20.316 12.9302ZM14.2113 12V13.3178L13.0873 13.9767L11.9827 14.6163L10.8392 13.9574L9.71521 13.2984V10.6822L10.8392 10.0233L11.9633 9.36434L13.0873 10.0233L13.1067 10.0426L14.2113 10.6822V12Z" fill="#3F3F3F"/>
</svg>
