<svg width="56" height="56" viewBox="0 0 56 56" fill="none" xmlns="http://www.w3.org/2000/svg">
<path d="M49.167 20.5796C48.7464 20.266 48.4182 19.8447 48.2169 19.3601C48.0157 18.8755 47.9489 18.3456 48.0236 17.8263C49.0036 11.6663 47.8836 9.7763 47.0436 8.9363C46.2036 8.0963 44.337 6.99964 38.177 7.97964C37.6579 8.04935 37.1297 7.98027 36.6461 7.77943C36.1624 7.57859 35.7406 7.25317 35.4236 6.8363C31.3636 1.42297 29.2403 0.792969 28.0036 0.792969C26.767 0.792969 24.6436 1.42297 20.5836 6.8363C20.2667 7.25317 19.8449 7.57859 19.3612 7.77943C18.8776 7.98027 18.3493 8.04935 17.8303 7.97964C11.6703 6.99964 9.80365 8.11964 8.96365 8.9363C8.12365 9.75297 7.00365 11.6663 7.98365 17.8263C8.05834 18.3456 7.99156 18.8755 7.79034 19.3601C7.58913 19.8447 7.26092 20.266 6.84031 20.5796C1.42698 24.6396 0.820312 26.763 0.820312 27.9996C0.820312 29.2363 1.42698 31.3596 6.84031 35.4196C7.26092 35.7333 7.58913 36.1546 7.79034 36.6392C7.99156 37.1238 8.05834 37.6536 7.98365 38.173C7.09698 44.3796 8.12365 46.223 8.96365 47.063C9.80365 47.903 11.6236 48.9063 17.8303 48.0196C18.3497 47.9449 18.8795 48.0117 19.3641 48.2129C19.8487 48.4142 20.27 48.7424 20.5836 49.163C24.6436 54.5763 26.767 55.2063 28.0036 55.2063C29.2403 55.2063 31.3636 54.5763 35.4236 49.163C35.7373 48.7424 36.1586 48.4142 36.6432 48.2129C37.1278 48.0117 37.6576 47.9449 38.177 48.0196C44.407 48.9063 46.2036 47.8796 47.0436 47.063C47.8836 46.2463 48.9103 44.3796 48.0236 38.173C47.9489 37.6536 48.0157 37.1238 48.2169 36.6392C48.4182 36.1546 48.7464 35.7333 49.167 35.4196C54.5803 31.3596 55.187 29.2363 55.187 27.9996C55.187 26.763 54.5803 24.6396 49.167 20.5796Z" fill="#27AE60"/>
<path d="M26.8377 36.1659C26.5306 36.1676 26.2262 36.1088 25.9419 35.9927C25.6576 35.8766 25.399 35.7055 25.181 35.4892L20.5143 30.8225C20.075 30.3832 19.8281 29.7872 19.8281 29.1659C19.8281 28.5445 20.075 27.9486 20.5143 27.5092C20.9537 27.0698 21.5496 26.823 22.171 26.823C22.7924 26.823 23.3883 27.0698 23.8277 27.5092L26.8377 30.5425L34.5143 22.8425C34.7313 22.6238 34.9893 22.4503 35.2737 22.3318C35.558 22.2133 35.863 22.1523 36.171 22.1523C36.479 22.1523 36.784 22.2133 37.0684 22.3318C37.3527 22.4503 37.6108 22.6238 37.8277 22.8425C38.0464 23.0595 38.22 23.3175 38.3384 23.6019C38.4569 23.8862 38.5179 24.1912 38.5179 24.4992C38.5179 24.8072 38.4569 25.1122 38.3384 25.3966C38.22 25.6809 38.0464 25.939 37.8277 26.1559L28.4943 35.4892C28.2763 35.7055 28.0177 35.8766 27.7335 35.9927C27.4492 36.1088 27.1448 36.1676 26.8377 36.1659Z" fill="white"/>
</svg>
