<svg width="56" height="56" viewBox="0 0 56 56" fill="none" xmlns="http://www.w3.org/2000/svg">
<path fill-rule="evenodd" clip-rule="evenodd" d="M28 56C43.4215 56 56 43.4215 56 28C56 12.5785 43.4215 0 28 0C12.5785 0 0 12.5785 0 28C0 43.4215 12.5785 56 28 56Z" fill="#F04438"/>
<path d="M40.0655 18.7484H15.9345C15.8672 18.7484 15.8005 18.7622 15.7386 18.7888C15.6767 18.8154 15.6209 18.8543 15.5746 18.9032C15.528 18.9521 15.4919 19.01 15.4684 19.0734C15.445 19.1367 15.4347 19.2042 15.4383 19.2717L16.7063 43.7378C16.7624 44.8261 17.6598 45.6788 18.7503 45.6788H37.2496C38.3402 45.6788 39.2376 44.8261 39.2936 43.7378L40.5616 19.2717C40.5651 19.2042 40.5549 19.1367 40.5315 19.0734C40.508 19.01 40.4719 18.9521 40.4253 18.9032C40.379 18.8543 40.3232 18.8154 40.2613 18.7888C40.1995 18.7622 40.1328 18.7484 40.0655 18.7484ZM20.1227 23.6807C20.1135 23.3477 20.2349 23.0303 20.4649 22.7875C20.695 22.5447 21.0052 22.4056 21.3382 22.3956C22.0311 22.3814 22.6062 22.9252 22.6261 23.6125L23.0869 40.787C23.092 40.9513 23.0644 41.1149 23.0056 41.2684C22.9468 41.4219 22.8581 41.5621 22.7446 41.681C22.6317 41.8004 22.4963 41.8965 22.3462 41.9636C22.1962 42.0308 22.0343 42.0676 21.87 42.0722H21.8331C21.5129 42.0722 21.2097 41.9508 20.9747 41.7279C20.8554 41.6153 20.7595 41.4803 20.6924 41.3305C20.6254 41.1808 20.5887 41.0193 20.5843 40.8553L20.1227 23.6807ZM26.7483 40.8019V23.6252C26.7483 22.9344 27.31 22.3728 28 22.3728C28.69 22.3728 29.2517 22.9344 29.2517 23.6252V40.8019C29.2517 41.4934 28.69 42.0558 28 42.0558C27.31 42.0558 26.7483 41.4935 26.7483 40.8019ZM35.4157 40.8538C35.4115 41.018 35.3748 41.1797 35.3078 41.3297C35.2408 41.4797 35.1448 41.615 35.0253 41.7278C34.7903 41.9507 34.4871 42.0721 34.1669 42.0721H34.1278C33.9637 42.0675 33.8022 42.0306 33.6524 41.9633C33.5026 41.8961 33.3677 41.7998 33.2553 41.6802C33.1416 41.5613 33.0529 41.4209 32.9941 41.2673C32.9353 41.1137 32.9078 40.95 32.913 40.7856L33.3738 23.614C33.3937 22.926 33.9645 22.3786 34.6532 22.3956H34.6617C34.9946 22.4056 35.3049 22.5447 35.535 22.7875C35.765 23.0303 35.8864 23.3477 35.8772 23.6807L35.4157 40.8538ZM42.5469 14.9208V16.2386H13.4531V14.9208C13.4531 14.1938 14.0445 13.6024 14.7715 13.6024H24.3414C24.4639 13.6024 24.582 13.5571 24.6732 13.4754C24.7644 13.3936 24.8222 13.2811 24.8356 13.1593C25.0124 11.542 26.3727 10.3223 28 10.3223C29.6273 10.3223 30.9876 11.542 31.1644 13.1593C31.1778 13.2811 31.2356 13.3936 31.3268 13.4754C31.418 13.5571 31.5361 13.6024 31.6586 13.6024H41.2285C41.9555 13.6024 42.5469 14.1938 42.5469 14.9208Z" fill="white"/>
</svg>
