<svg width="56" height="56" viewBox="0 0 56 56" fill="none" xmlns="http://www.w3.org/2000/svg">
<circle cx="28" cy="28" r="28" fill="#0E6E37" fill-opacity="0.08"/>
<path d="M40.7231 11.8936H39.6037C39.2887 11.9174 38.991 12.0475 38.7595 12.2624C38.528 12.4774 38.3762 12.7646 38.3291 13.0771H28.932C27.9507 13.0777 26.9848 13.3214 26.1206 13.7864L22.2838 15.8564H16.2049C15.7024 15.857 15.2207 16.0568 14.8653 16.412C14.51 16.7673 14.31 17.249 14.3092 17.7514V18.3196C14.3099 18.6966 14.4229 19.0648 14.6338 19.3773C14.8447 19.6898 15.1439 19.9323 15.4933 20.074C15.0208 21.9769 13.1814 26.8915 13.308 28.8366V41.0614C13.3084 41.5088 13.4864 41.9378 13.8027 42.2542C14.1191 42.5705 14.5481 42.7485 14.9955 42.7489L36.2709 42.7534C36.4202 42.7501 36.5625 42.6893 36.668 42.5837C36.7735 42.478 36.8342 42.3357 36.8374 42.1864V28.0283C36.8374 27.9742 36.8296 27.9204 36.8143 27.8686L34.5952 20.3704C35.1926 20.2632 35.7434 19.9776 36.1754 19.5513C36.6073 19.125 36.9001 18.5779 37.0151 17.9821H38.2751C38.2579 18.3608 38.3856 18.7318 38.6324 19.0196C38.8791 19.3074 39.2263 19.4904 39.6032 19.5312H40.7231C41.4746 19.5312 42.063 18.7898 42.063 17.8437V13.5811C42.063 12.6349 41.4746 11.8936 40.7231 11.8936ZM15.4342 18.3196V17.7514C15.4344 17.5471 15.5156 17.3512 15.6601 17.2067C15.8046 17.0622 16.0005 16.981 16.2049 16.9808H29.6818L27.5764 19.0902H16.2049C16.0005 19.09 15.8046 19.0088 15.6601 18.8643C15.5156 18.7198 15.4344 18.5239 15.4342 18.3196ZM14.433 41.0614C14.5466 39.2277 14.1112 27.9462 14.7817 26.4325L16.625 20.2152H26.8097C26.6561 20.6862 26.6566 21.194 26.8111 21.6648C26.9656 22.1355 27.2661 22.5448 27.669 22.8332C28.0719 23.1216 28.5562 23.2741 29.0517 23.2686C29.5471 23.2631 30.0279 23.0999 30.4243 22.8027L32.3762 21.3121L30.6802 27.6121C30.6701 27.877 30.647 41.3843 30.6611 41.6239H14.9955C14.8463 41.6238 14.7034 41.5645 14.5979 41.459C14.4924 41.3536 14.4331 41.2106 14.433 41.0614ZM33.7436 40.4567L34.9114 41.6239H32.5792L33.7436 40.4567ZM35.7124 28.1099V40.8336L34.3117 39.4336V28.7146C34.3117 28.5654 34.2525 28.4223 34.147 28.3168C34.0415 28.2113 33.8984 28.1521 33.7492 28.1521C33.6 28.1521 33.457 28.2113 33.3515 28.3168C33.246 28.4223 33.1867 28.5654 33.1867 28.7146V39.4223L31.7861 40.8263V27.8326L33.617 21.0302L35.7124 28.1099ZM38.2639 16.8571H36.5055C36.3563 16.8571 36.2132 16.9163 36.1077 17.0218C36.0022 17.1273 35.943 17.2704 35.943 17.4196C35.9424 17.9162 35.7449 18.3922 35.3937 18.7434C35.0426 19.0945 34.5665 19.2921 34.0699 19.2927C34.0209 19.3006 33.297 19.2803 33.2767 19.3039C33.2475 19.1324 29.832 21.8774 29.7414 21.9083C29.4982 22.0909 29.1949 22.1749 28.8924 22.1433C28.5899 22.1117 28.3106 21.9669 28.1103 21.738C27.9101 21.5091 27.8038 21.2129 27.8127 20.9089C27.8217 20.6049 27.9452 20.3155 28.1585 20.0987L31.4357 16.816C31.5127 16.7367 31.5648 16.6366 31.5856 16.5281C31.6064 16.4195 31.595 16.3072 31.5527 16.2051C31.5104 16.103 31.4391 16.0155 31.3476 15.9534C31.2562 15.8913 31.1485 15.8574 31.038 15.8558H24.6536C25.8782 15.2331 27.4942 14.1031 28.9314 14.2021H38.2633L38.2639 16.8571ZM40.938 17.8437C40.9493 17.9478 40.9358 18.053 40.8984 18.1508C40.861 18.2486 40.801 18.3362 40.7231 18.4062H39.6065C39.5277 18.3369 39.4667 18.2495 39.4288 18.1516C39.3909 18.0537 39.3772 17.948 39.3889 17.8437V13.6508C39.3568 13.3487 39.5447 13.0084 39.6054 13.0186H40.7197C40.7989 13.0877 40.86 13.175 40.898 13.273C40.9361 13.3709 40.9498 13.4766 40.938 13.5811V17.8437Z" fill="#0E6E37"/>
</svg>
