<svg width="56" height="56" viewBox="0 0 56 56" fill="none" xmlns="http://www.w3.org/2000/svg">
<circle cx="28" cy="28" r="28" fill="#0E6E37" fill-opacity="0.08"/>
<g clip-path="url(#clip0_2652_13764)">
<path d="M38.7227 16.68H36.9648V12.4603C36.9648 11.673 36.584 10.9275 35.946 10.4662C35.3081 10.0049 34.4808 9.87657 33.7331 10.1232L16.5064 15.8049C16.0143 15.9665 15.5859 16.2796 15.2824 16.6993C14.9788 17.1191 14.8158 17.624 14.8164 18.142V43.539C14.8164 44.896 15.9204 46 17.2773 46H38.7227C40.0796 46 41.1836 44.896 41.1836 43.539V19.1409C41.1836 17.7841 40.0796 16.68 38.7227 16.68ZM39.0742 43.539C39.0742 43.7329 38.9165 43.8906 38.7227 43.8906H17.2773C17.0835 43.8906 16.9258 43.7329 16.9258 43.539V19.1409C16.9258 18.9471 17.0835 18.7894 17.2773 18.7894H38.7227C38.9165 18.7894 39.0742 18.9471 39.0742 19.1409V43.539ZM34.3938 12.1264C34.5423 12.0775 34.6556 12.1361 34.71 12.1754C34.7643 12.2147 34.8555 12.304 34.8555 12.4603V16.6801H20.5875L34.3938 12.1264Z" fill="#0E6E37" stroke="#E3EEE8" stroke-width="0.4"/>
<path d="M20.9688 30.9871H35.0312C35.6137 30.9871 36.0859 30.5149 36.0859 29.9324C36.0859 29.35 35.6137 28.8777 35.0312 28.8777H34.7257C34.2711 25.9669 31.9655 23.6613 29.0547 23.2067V22.6782C29.0547 22.0958 28.5825 21.6235 28 21.6235C27.4175 21.6235 26.9453 22.0958 26.9453 22.6782V23.2067C24.0345 23.6613 21.7289 25.9669 21.2743 28.8777H20.9688C20.3863 28.8777 19.9141 29.35 19.9141 29.9324C19.9141 30.5149 20.3863 30.9871 20.9688 30.9871ZM28 25.2343C30.2281 25.2343 32.0988 26.7934 32.5788 28.8777H23.4212C23.9012 26.7934 25.772 25.2343 28 25.2343ZM21.3778 33.8365C20.7953 33.8365 20.3231 34.3087 20.3231 34.8912C20.3231 35.4736 20.7953 35.9458 21.3778 35.9458H26.4403C27.0227 35.9458 27.4949 35.4736 27.4949 34.8912C27.4949 34.3087 27.0227 33.8365 26.4403 33.8365H21.3778ZM34.7676 38.0552H21.2324C20.65 38.0552 20.1777 38.5274 20.1777 39.1099C20.1777 39.6924 20.65 40.1646 21.2324 40.1646H34.7676C35.35 40.1646 35.8223 39.6924 35.8223 39.1099C35.8223 38.5274 35.35 38.0552 34.7676 38.0552Z" fill="#0E6E37" stroke="#E3EEE8" stroke-width="0.4"/>
</g>
<defs>
<clipPath id="clip0_2652_13764">
<rect width="36" height="36" fill="white" transform="translate(10 10)"/>
</clipPath>
</defs>
</svg>
