<svg width="56" height="56" viewBox="0 0 56 56" fill="none" xmlns="http://www.w3.org/2000/svg">
<circle cx="28" cy="28" r="28" fill="#0E6E37" fill-opacity="0.08"/>
<g clip-path="url(#clip0_2652_13747)">
<path d="M15.0675 34.982C15.0344 34.982 15.0005 34.9798 14.966 34.9749C13.3593 34.744 11.8052 34.2352 10.373 33.4714C10.212 33.381 10.0929 33.2312 10.0411 33.0541C9.98927 32.8769 10.0089 32.6865 10.0958 32.5237C10.1826 32.3608 10.3298 32.2385 10.5058 32.1828C10.6818 32.1272 10.8726 32.1427 11.0373 32.226C12.3247 32.9135 13.7222 33.371 15.167 33.5779C15.3428 33.6041 15.5022 33.6958 15.6134 33.8344C15.7246 33.9731 15.7794 34.1486 15.7668 34.3259C15.7543 34.5032 15.6753 34.6693 15.5457 34.7909C15.416 34.9125 15.2453 34.9807 15.0675 34.982ZM40.1926 34.982C40.0142 34.9819 39.8425 34.9143 39.712 34.7927C39.5814 34.6711 39.5019 34.5045 39.4892 34.3266C39.4766 34.1486 39.5319 33.9725 39.644 33.8337C39.7561 33.6949 39.9166 33.6038 40.0932 33.5786C41.538 33.3718 42.9355 32.9143 44.2229 32.2267C44.3869 32.1494 44.5744 32.1381 44.7465 32.1952C44.9186 32.2523 45.0622 32.3734 45.1476 32.5334C45.2329 32.6934 45.2535 32.88 45.205 33.0548C45.1566 33.2295 45.0428 33.3789 44.8872 33.4721C43.455 34.2359 41.9008 34.7447 40.2942 34.9756C40.2605 34.9798 40.2266 34.9819 40.1926 34.982ZM32.8162 28.6513C32.689 28.6517 32.5641 28.6176 32.4548 28.5527C32.3454 28.4878 32.2557 28.3944 32.1952 28.2826C32.1347 28.1708 32.1055 28.0446 32.111 27.9176C32.1164 27.7905 32.1561 27.6673 32.2259 27.5611C32.7146 26.8084 33.384 26.1902 34.173 25.7626C34.9619 25.335 35.8454 25.1118 36.7428 25.1133C36.9298 25.1133 37.1092 25.1876 37.2414 25.3198C37.3737 25.4521 37.448 25.6315 37.448 25.8185C37.448 26.0055 37.3737 26.1849 37.2414 26.3172C37.1092 26.4494 36.9298 26.5237 36.7428 26.5237C36.0802 26.5224 35.4278 26.6872 34.8452 27.0029C34.2627 27.3186 33.7685 27.7753 33.4078 28.3311C33.3438 28.4297 33.2561 28.5107 33.1528 28.5666C33.0494 28.6225 32.9337 28.6516 32.8162 28.6513Z" fill="#0E6E37" stroke="#0E6E37" stroke-width="0.2"/>
<path d="M38.3067 26.5235C35.8067 26.5235 33.6953 24.4121 33.6953 21.9129C33.6953 19.4136 35.8067 17.3022 38.3067 17.3022C40.8059 17.3022 42.9173 19.4136 42.9173 21.9129C42.9173 24.4121 40.8059 26.5235 38.3067 26.5235ZM38.3067 18.7127C36.5719 18.7127 35.1057 20.1781 35.1057 21.9129C35.1057 23.6477 36.5719 25.1131 38.3067 25.1131C40.0415 25.1131 41.5069 23.6477 41.5069 21.9129C41.5069 20.1781 40.0415 18.7127 38.3067 18.7127Z" fill="#0E6E37" stroke="#0E6E37" stroke-width="0.2"/>
<path d="M44.5551 31.2115C44.3681 31.2115 44.1887 31.1372 44.0564 31.0049C43.9242 30.8727 43.8499 30.6933 43.8499 30.5063C43.8486 29.4507 43.4287 28.4387 42.6823 27.6923C41.9359 26.9459 40.9239 26.526 39.8683 26.5247C39.6813 26.5247 39.5019 26.4504 39.3696 26.3181C39.2374 26.1859 39.1631 26.0065 39.1631 25.8195C39.1631 25.6324 39.2374 25.4531 39.3696 25.3208C39.5019 25.1886 39.6813 25.1143 39.8683 25.1143C42.8414 25.1143 45.2603 27.5338 45.2603 30.5063C45.2603 30.6933 45.186 30.8727 45.0538 31.0049C44.9215 31.1372 44.7421 31.2115 44.5551 31.2115Z" fill="#0E6E37" stroke="#0E6E37" stroke-width="0.2"/>
<path d="M39.8691 26.5237H36.7444C36.5573 26.5237 36.378 26.4494 36.2457 26.3171C36.1135 26.1849 36.0392 26.0055 36.0392 25.8185C36.0392 25.6315 36.1135 25.4521 36.2457 25.3198C36.378 25.1876 36.5573 25.1133 36.7444 25.1133H39.8691C40.0562 25.1133 40.2355 25.1876 40.3678 25.3198C40.5001 25.4521 40.5744 25.6315 40.5744 25.8185C40.5744 26.0055 40.5001 26.1849 40.3678 26.3171C40.2355 26.4494 40.0562 26.5237 39.8691 26.5237ZM44.556 33.5546C44.3689 33.5546 44.1895 33.4803 44.0573 33.3481C43.925 33.2158 43.8507 33.0364 43.8507 32.8494V30.506C43.8507 30.319 43.925 30.1396 44.0573 30.0073C44.1895 29.8751 44.3689 29.8008 44.556 29.8008C44.743 29.8008 44.9224 29.8751 45.0546 30.0073C45.1869 30.1396 45.2612 30.319 45.2612 30.506V32.8494C45.2612 33.0364 45.1869 33.2158 45.0546 33.3481C44.9224 33.4803 44.743 33.5546 44.556 33.5546ZM19.299 34.0751C19.1119 34.0751 18.9326 34.0008 18.8003 33.8685C18.668 33.7363 18.5938 33.5569 18.5938 33.3698C18.5938 29.5349 21.7136 26.4158 25.5478 26.4158C25.7348 26.4158 25.9142 26.4901 26.0465 26.6223C26.1787 26.7546 26.253 26.934 26.253 27.121C26.253 27.308 26.1787 27.4874 26.0465 27.6197C25.9142 27.7519 25.7348 27.8262 25.5478 27.8262C22.4907 27.8262 20.0042 30.3128 20.0042 33.3698C20.0042 33.5569 19.9299 33.7363 19.7976 33.8685C19.6654 34.0008 19.486 34.0751 19.299 34.0751Z" fill="#0E6E37" stroke="#0E6E37" stroke-width="0.2"/>
<path d="M29.7136 27.8262H25.5472C25.3602 27.8262 25.1808 27.7519 25.0486 27.6197C24.9163 27.4874 24.842 27.308 24.842 27.121C24.842 26.934 24.9163 26.7546 25.0486 26.6224C25.1808 26.4901 25.3602 26.4158 25.5472 26.4158H29.7136C29.9006 26.4158 30.08 26.4901 30.2122 26.6224C30.3445 26.7546 30.4188 26.934 30.4188 27.121C30.4188 27.308 30.3445 27.4874 30.2122 27.6197C30.08 27.7519 29.9006 27.8262 29.7136 27.8262ZM22.4443 28.6513C22.3268 28.6515 22.2112 28.6222 22.1078 28.5663C22.0045 28.5104 21.9168 28.4296 21.8526 28.3311C21.4918 27.7754 20.9976 27.3189 20.4151 27.0031C19.8326 26.6874 19.1803 26.5226 18.5177 26.5237C18.3307 26.5237 18.1513 26.4494 18.0191 26.3172C17.8868 26.1849 17.8125 26.0055 17.8125 25.8185C17.8125 25.6315 17.8868 25.4521 18.0191 25.3198C18.1513 25.1876 18.3307 25.1133 18.5177 25.1133C19.4151 25.1117 20.2986 25.3349 21.0876 25.7624C21.8766 26.19 22.5459 26.8084 23.0346 27.5611C23.1039 27.6674 23.1432 27.7906 23.1484 27.9174C23.1535 28.0443 23.1244 28.1702 23.0639 28.2819C23.0034 28.3935 22.914 28.4868 22.8049 28.5518C22.6959 28.6168 22.5713 28.6512 22.4443 28.6513ZM19.2984 37.1998C19.1113 37.1998 18.932 37.1255 18.7997 36.9933C18.6675 36.861 18.5932 36.6817 18.5932 36.4946V33.3699C18.5932 33.1828 18.6675 33.0034 18.7997 32.8712C18.932 32.7389 19.1113 32.6646 19.2984 32.6646C19.4854 32.6646 19.6648 32.7389 19.797 32.8712C19.9293 33.0034 20.0036 33.1828 20.0036 33.3699V36.4946C20.0036 36.6817 19.9293 36.861 19.797 36.9933C19.6648 37.1255 19.4854 37.1998 19.2984 37.1998Z" fill="#0E6E37" stroke="#0E6E37" stroke-width="0.2"/>
<path d="M27.63 27.8263C24.4248 27.8263 21.7168 25.1183 21.7168 21.9132C21.7168 18.708 24.4248 16 27.63 16C30.8351 16 33.5431 18.708 33.5431 21.9132C33.5431 25.1183 30.8351 27.8263 27.63 27.8263ZM27.63 17.4104C25.1892 17.4104 23.1272 19.4724 23.1272 21.9132C23.1272 24.3539 25.1892 26.4159 27.63 26.4159C30.0707 26.4159 32.1327 24.3539 32.1327 21.9132C32.1327 19.4724 30.0707 17.4104 27.63 17.4104Z" fill="#0E6E37" stroke="#0E6E37" stroke-width="0.2"/>
<path d="M35.9628 34.0753C35.7758 34.0753 35.5964 34.001 35.4642 33.8687C35.3319 33.7365 35.2576 33.5571 35.2576 33.3701C35.2576 30.313 32.7711 27.8264 29.714 27.8264C29.527 27.8264 29.3476 27.7521 29.2153 27.6199C29.0831 27.4876 29.0088 27.3083 29.0088 27.1212C29.0088 26.9342 29.0831 26.7548 29.2153 26.6226C29.3476 26.4903 29.527 26.416 29.714 26.416C33.5489 26.416 36.668 29.5359 36.668 33.3701C36.668 33.5571 36.5937 33.7365 36.4615 33.8687C36.3292 34.001 36.1499 34.0753 35.9628 34.0753Z" fill="#0E6E37" stroke="#0E6E37" stroke-width="0.2"/>
<path d="M35.962 37.2002C35.775 37.2002 35.5956 37.1259 35.4634 36.9937C35.3311 36.8614 35.2568 36.6821 35.2568 36.495V33.3702C35.2568 33.1832 35.3311 33.0038 35.4634 32.8716C35.5956 32.7393 35.775 32.665 35.962 32.665C36.1491 32.665 36.3284 32.7393 36.4607 32.8716C36.593 33.0038 36.6673 33.1832 36.6673 33.3702V36.495C36.6673 36.6821 36.593 36.8614 36.4607 36.9937C36.3284 37.1259 36.1491 37.2002 35.962 37.2002Z" fill="#0E6E37" stroke="#0E6E37" stroke-width="0.2"/>
<path d="M27.6305 39.2876C24.6546 39.2876 21.6793 38.564 18.9664 37.1176C18.8108 37.0245 18.697 36.875 18.6485 36.7003C18.6001 36.5256 18.6206 36.3389 18.706 36.1789C18.7913 36.0189 18.9349 35.8978 19.107 35.8408C19.2791 35.7837 19.4666 35.795 19.6307 35.8722C22.092 37.1879 24.8399 37.8763 27.6309 37.8763C30.4218 37.8763 33.1697 37.1879 35.6311 35.8722C35.7951 35.795 35.9826 35.7837 36.1547 35.8408C36.3268 35.8978 36.4704 36.0189 36.5558 36.1789C36.6411 36.3389 36.6617 36.5256 36.6132 36.7003C36.5648 36.875 36.451 37.0245 36.2954 37.1176C33.629 38.5411 30.6531 39.2864 27.6305 39.2876ZM16.9544 26.524C14.4551 26.524 12.3438 24.4126 12.3438 21.9134C12.3438 19.4141 14.4551 17.3027 16.9544 17.3027C19.4536 17.3027 21.565 19.4141 21.565 21.9134C21.565 24.4126 19.4536 26.524 16.9544 26.524ZM16.9544 18.7131C15.2196 18.7131 13.7542 20.1786 13.7542 21.9134C13.7542 23.6482 15.2196 25.1136 16.9544 25.1136C18.6892 25.1136 20.1546 23.6482 20.1546 21.9134C20.1546 20.1786 18.6892 18.7131 16.9544 18.7131Z" fill="#0E6E37" stroke="#0E6E37" stroke-width="0.2"/>
<path d="M10.7052 31.2115C10.5182 31.2115 10.3388 31.1372 10.2066 31.0049C10.0743 30.8727 10 30.6933 10 30.5063C10 27.5331 12.4196 25.1143 15.392 25.1143C15.579 25.1143 15.7584 25.1886 15.8907 25.3208C16.0229 25.4531 16.0972 25.6324 16.0972 25.8195C16.0972 26.0065 16.0229 26.1859 15.8907 26.3181C15.7584 26.4504 15.579 26.5247 15.392 26.5247C14.3363 26.5256 13.3241 26.9454 12.5776 27.6919C11.8311 28.4384 11.4113 29.4506 11.4104 30.5063C11.4104 30.6933 11.3361 30.8727 11.2039 31.0049C11.0716 31.1372 10.8922 31.2115 10.7052 31.2115Z" fill="#0E6E37" stroke="#0E6E37" stroke-width="0.2"/>
<path d="M18.5168 26.5237H15.392C15.205 26.5237 15.0256 26.4494 14.8934 26.3171C14.7611 26.1849 14.6868 26.0055 14.6868 25.8185C14.6868 25.6315 14.7611 25.4521 14.8934 25.3198C15.0256 25.1876 15.205 25.1133 15.392 25.1133H18.5168C18.7038 25.1133 18.8832 25.1876 19.0154 25.3198C19.1477 25.4521 19.222 25.6315 19.222 25.8185C19.222 26.0055 19.1477 26.1849 19.0154 26.3171C18.8832 26.4494 18.7038 26.5237 18.5168 26.5237ZM10.7052 33.5546C10.5182 33.5546 10.3388 33.4803 10.2066 33.3481C10.0743 33.2158 10 33.0364 10 32.8494V30.506C10 30.319 10.0743 30.1396 10.2066 30.0073C10.3388 29.8751 10.5182 29.8008 10.7052 29.8008C10.8922 29.8008 11.0716 29.8751 11.2039 30.0073C11.3361 30.1396 11.4104 30.319 11.4104 30.506V32.8494C11.4104 33.0364 11.3361 33.2158 11.2039 33.3481C11.0716 33.4803 10.8922 33.5546 10.7052 33.5546Z" fill="#0E6E37" stroke="#0E6E37" stroke-width="0.2"/>
</g>
<defs>
<clipPath id="clip0_2652_13747">
<rect width="36" height="36" fill="white" transform="translate(10 10)"/>
</clipPath>
</defs>
</svg>
