<svg width="22" height="22" viewBox="0 0 22 22" fill="none" xmlns="http://www.w3.org/2000/svg">
<path d="M13.2936 18.4785C13.5085 18.4992 13.7261 18.5104 13.9462 18.5104C17.8419 18.5104 21.0001 15.0947 21.0001 10.8814C21.0001 5.55207 17.5647 0.999544 13.9462 1C12.2331 1.00021 10.5613 2.02091 9.27539 3.66083" stroke="#3F3F3F" stroke-miterlimit="10"/>
<path d="M8.05394 3.49023C11.6725 3.48978 15.1079 8.04231 15.1079 13.3716C15.1079 17.585 11.9497 21.0006 8.05394 21.0006C4.15817 21.0006 1 17.6819 1 13.3716C1 8.04231 4.43539 3.49069 8.05394 3.49023Z" stroke="#3F3F3F" stroke-miterlimit="10"/>
<path d="M8.05475 18.5099C10.1172 18.5099 11.7892 16.8379 11.7892 14.7755C11.7892 12.713 10.1172 11.041 8.05475 11.041C5.99228 11.041 4.32031 12.713 4.32031 14.7755C4.32031 16.8379 5.99228 18.5099 8.05475 18.5099Z" stroke="#3F3F3F" stroke-miterlimit="10"/>
</svg>
