<svg width="9" height="16" viewBox="0 0 9 16" fill="none" xmlns="http://www.w3.org/2000/svg">
<path d="M2.65 9.04002H0.67C0.35 9.04002 0.25 8.92002 0.25 8.62002V6.20002C0.25 5.88002 0.37 5.78002 0.67 5.78002H2.65V4.02002C2.65 3.22002 2.79 2.46002 3.19 1.76002C3.61 1.04002 4.21 0.560019 4.97 0.280019C5.47 0.100019 5.97 0.0200195 6.51 0.0200195H8.47C8.75 0.0200195 8.87 0.14002 8.87 0.42002V2.70002C8.87 2.98002 8.75 3.10002 8.47 3.10002C7.93 3.10002 7.39 3.10002 6.85 3.12002C6.31 3.12002 6.03 3.38002 6.03 3.94002C6.01 4.54002 6.03 5.12002 6.03 5.74002H8.35C8.67 5.74002 8.79 5.86002 8.79 6.18002V8.60002C8.79 8.92002 8.69 9.02002 8.35 9.02002H6.03V15.54C6.03 15.88 5.93 16 5.57 16H3.07C2.77 16 2.65 15.88 2.65 15.58V9.04002Z" fill="#090F1A"/>
</svg>
