<svg width="84" height="84" viewBox="0 0 84 84" fill="none" xmlns="http://www.w3.org/2000/svg">
<circle cx="42" cy="42" r="42" fill="#EAF7F0"/>
<g clip-path="url(#clip0_2652_14108)">
<path d="M22.6609 33.8683C22.2712 34.4861 22.0645 35.2015 22.0645 35.9319C22.0645 36.6622 22.2712 37.3777 22.6609 37.9954C22.6766 38.0275 22.6945 38.0585 22.7146 38.0881C22.886 38.3477 22.9991 38.6413 23.0461 38.9488C23.0931 39.2562 23.0729 39.5702 22.9867 39.8691C22.899 40.203 22.8545 40.5466 22.8541 40.8918C22.8563 41.4763 22.989 42.0529 23.2425 42.5795C23.4961 43.1061 23.8641 43.5694 24.3197 43.9355C24.5612 44.1284 24.7591 44.3704 24.9001 44.6454C25.0412 44.9205 25.1222 45.2224 25.1378 45.5311C25.1694 46.2953 25.4258 47.0332 25.8749 47.6523C26.324 48.2714 26.9458 48.7443 27.6624 49.0116C27.9526 49.1186 28.216 49.2875 28.4345 49.5064C28.653 49.7253 28.8213 49.9891 28.9277 50.2795C29.1949 50.9945 29.6669 51.6149 30.2847 52.0632C30.9025 52.5114 31.6387 52.7677 32.4013 52.7998C32.7894 52.8217 33.1643 52.9481 33.4864 53.1655L29.2597 61.2706C29.0554 61.6837 28.973 62.1464 29.0221 62.6046C29.0712 63.0628 29.2497 63.4975 29.5368 63.858C29.8239 64.2184 30.2077 64.4897 30.6433 64.64C31.0789 64.7904 31.5483 64.8136 31.9966 64.7069L34.646 64.0639L35.7458 66.5512C35.9262 66.9734 36.2245 67.3346 36.6049 67.5916C36.9853 67.8486 37.4318 67.9905 37.8908 68.0003H37.9584C38.408 68.003 38.8493 67.8797 39.2323 67.6442C39.6153 67.4087 39.9246 67.0706 40.1251 66.6682L41.9997 63.0785L43.8673 66.6543C44.067 67.0599 44.3767 67.4011 44.7611 67.6391C45.1454 67.8771 45.5889 68.0022 46.0409 68.0003H46.1086C46.5665 67.991 47.0122 67.8499 47.3921 67.594C47.772 67.3381 48.0702 66.9782 48.2509 66.5573L49.3533 64.0656L52.0079 64.7095C52.4576 64.816 52.9284 64.7919 53.3648 64.64C53.8012 64.4881 54.1852 64.2147 54.4716 63.8521C54.758 63.4894 54.9349 63.0525 54.9814 62.5927C55.028 62.133 54.9423 61.6695 54.7345 61.2567L50.5199 53.1629C50.8403 52.9482 51.2121 52.8228 51.5971 52.7998C52.3614 52.7682 53.0992 52.5118 53.7184 52.0627C54.3375 51.6136 54.8104 50.9918 55.0777 50.2752C55.1847 49.985 55.3536 49.7216 55.5725 49.5031C55.7914 49.2846 56.0552 49.1163 56.3456 49.0099C57.0606 48.7427 57.681 48.2707 58.1293 47.6529C58.5775 47.0351 58.8337 46.2989 58.8659 45.5363C58.8797 45.2288 58.9595 44.9279 59.0997 44.654C59.24 44.3801 59.4375 44.1395 59.6788 43.9485C59.7119 43.9224 59.7427 43.8934 59.7707 43.8619C60.2006 43.4947 60.5462 43.039 60.7837 42.526C61.0213 42.0129 61.1452 41.4546 61.1469 40.8892C61.1464 40.5382 61.101 40.1887 61.0117 39.8492C60.9279 39.552 60.9091 39.2402 60.9566 38.9351C61.0042 38.63 61.117 38.3388 61.2873 38.0812C61.3071 38.0519 61.3248 38.0212 61.3402 37.9893C61.7292 37.372 61.9356 36.6572 61.9356 35.9275C61.9356 35.1979 61.7292 34.4831 61.3402 33.8657C61.3245 33.8336 61.3066 33.8026 61.2865 33.773C61.1151 33.5135 61.0019 33.2198 60.955 32.9124C60.908 32.6049 60.9282 32.2909 61.0143 31.992C61.1021 31.6582 61.1466 31.3145 61.1469 30.9693C61.1451 30.3851 61.0128 29.8086 60.7597 29.282C60.5066 28.7554 60.1391 28.292 59.684 27.9256C59.4425 27.7327 59.2446 27.4908 59.1036 27.2157C58.9625 26.9406 58.8815 26.6388 58.8659 26.3301C58.8331 25.5669 58.5762 24.8303 58.1272 24.2124C57.6782 23.5944 57.057 23.1225 56.3413 22.8556C56.0511 22.7485 55.7877 22.5797 55.5692 22.3608C55.3507 22.1418 55.1824 21.8781 55.076 21.5877C54.8088 20.8726 54.3368 20.2522 53.719 19.804C53.1012 19.3557 52.365 19.0995 51.6024 19.0674C51.2948 19.0535 50.9939 18.9736 50.72 18.8332C50.446 18.6928 50.2055 18.4951 50.0146 18.2536C49.9883 18.2207 49.9593 18.1899 49.9279 18.1617C49.4459 17.5958 48.8128 17.1787 48.1026 16.9589C47.3925 16.7392 46.6345 16.7259 45.917 16.9207C45.6205 17.004 45.3096 17.0226 45.0053 16.9752C44.701 16.9278 44.4104 16.8155 44.1534 16.6459C44.1255 16.6272 44.0965 16.6102 44.0667 16.5948C43.449 16.2049 42.7336 15.998 42.0031 15.998C41.2727 15.998 40.5573 16.2049 39.9396 16.5948C39.9075 16.6105 39.8765 16.6284 39.8469 16.6485C39.5888 16.8229 39.2953 16.9377 38.9874 16.9846C38.6795 17.0316 38.365 17.0094 38.0667 16.9198C37.332 16.7301 36.5582 16.7549 35.8371 16.9913C35.1159 17.2276 34.4776 17.6657 33.9977 18.2536C33.8049 18.4951 33.5629 18.693 33.2879 18.834C33.0128 18.9751 32.7109 19.0561 32.4022 19.0717C31.6385 19.103 30.901 19.3587 30.2819 19.807C29.6628 20.2553 29.1897 20.8762 28.9217 21.592C28.8146 21.8822 28.6458 22.1456 28.4269 22.3641C28.2079 22.5826 27.9441 22.7509 27.6537 22.8573C26.9387 23.1245 26.3183 23.5965 25.8701 24.2143C25.4218 24.8321 25.1656 25.5683 25.1335 26.3309C25.1197 26.6385 25.0398 26.9394 24.8994 27.2134C24.759 27.4873 24.5613 27.7279 24.3197 27.9187C24.2865 27.9448 24.2558 27.9738 24.2278 28.0053C23.7979 28.3725 23.4523 28.8282 23.2147 29.3412C22.9772 29.8543 22.8533 30.4126 22.8515 30.978C22.8521 31.329 22.8975 31.6785 22.9867 32.018C23.0706 32.3152 23.0894 32.627 23.0419 32.9321C22.9943 33.2372 22.8815 33.5284 22.7111 33.786C22.6929 33.8125 22.6761 33.84 22.6609 33.8683ZM38.5815 65.8795C38.5212 65.9981 38.4288 66.0973 38.3148 66.1658C38.2007 66.2343 38.0697 66.2694 37.9367 66.2669C37.8063 66.2659 37.679 66.2263 37.571 66.153C37.4631 66.0798 37.3792 65.9761 37.3301 65.8553L35.9347 62.7015C35.8535 62.5147 35.7087 62.3629 35.5261 62.2727C35.3435 62.1826 35.1348 62.1601 34.9372 62.2092L31.5893 63.023C31.4607 63.0528 31.3264 63.0456 31.2017 63.0024C31.0771 62.9592 30.9672 62.8816 30.8847 62.7786C30.8017 62.6797 30.7493 62.5587 30.7339 62.4305C30.7185 62.3023 30.7408 62.1724 30.798 62.0567L34.8063 54.3711C35.277 54.6991 35.8136 54.9205 36.3787 55.0197C36.9438 55.119 37.5237 55.0937 38.078 54.9457C38.3749 54.8616 38.6864 54.8427 38.9913 54.8903C39.2962 54.9378 39.5871 55.0507 39.8443 55.2213C39.8722 55.24 39.9011 55.257 39.931 55.2724C40.5485 55.6624 41.264 55.8695 41.9945 55.8695C42.7249 55.8695 43.4404 55.6624 44.058 55.2724C44.0865 55.2584 44.114 55.2425 44.1404 55.2247L38.5815 65.8795ZM53.1901 62.0411C53.2508 62.1581 53.2758 62.2904 53.2619 62.4216C53.2481 62.5527 53.196 62.6768 53.1121 62.7786C53.0307 62.8815 52.9217 62.9591 52.7979 63.0025C52.6741 63.0459 52.5405 63.0533 52.4127 63.0239L49.0595 62.2092C48.8619 62.1598 48.6531 62.1821 48.4704 62.2723C48.2877 62.3624 48.143 62.5145 48.062 62.7015L46.6641 65.8596C46.615 65.9791 46.5318 66.0815 46.4248 66.154C46.3178 66.2264 46.1918 66.2657 46.0626 66.2669C45.9269 66.2705 45.793 66.2345 45.6774 66.1633C45.5618 66.092 45.4695 65.9886 45.4117 65.8657L42.9773 61.2056L46.2178 55.0003C47.2543 55.1895 48.3236 54.9625 49.1939 54.3685L53.1901 62.0411ZM24.155 34.7489C24.1736 34.7211 24.1904 34.6921 24.2053 34.6622C24.493 34.206 24.6822 33.6948 24.7609 33.1613C24.8395 32.6277 24.8058 32.0836 24.662 31.5639C24.6121 31.3714 24.5865 31.1734 24.5857 30.9745C24.5865 30.6505 24.6597 30.3308 24.7999 30.0387C24.9401 29.7466 25.1438 29.4895 25.3961 29.2863C25.4247 29.2627 25.4519 29.2376 25.4775 29.2109C25.8901 28.8655 26.2265 28.4382 26.4652 27.956C26.7039 27.4738 26.8398 26.9473 26.8642 26.4098C26.8811 25.9871 27.0222 25.5787 27.2699 25.2357C27.5176 24.8927 27.861 24.6304 28.2569 24.4815C28.7812 24.2885 29.2574 23.9841 29.6525 23.5892C30.0477 23.1944 30.3525 22.7184 30.5458 22.1943C30.695 21.7969 30.9583 21.4524 31.3026 21.204C31.6469 20.9556 32.0569 20.8144 32.4811 20.7981C33.0364 20.7705 33.5795 20.6253 34.0745 20.3721C34.5695 20.1188 35.0051 19.7633 35.3523 19.3291C35.5556 19.0768 35.8127 18.8731 36.1048 18.7329C36.3969 18.5927 36.7166 18.5196 37.0406 18.5188C37.2314 18.5192 37.4214 18.5424 37.6065 18.5881C38.1292 18.734 38.6765 18.7694 39.2137 18.6923C39.7508 18.6152 40.266 18.4271 40.7265 18.1401C40.7566 18.1247 40.7855 18.1073 40.8132 18.0881C41.1642 17.8546 41.5764 17.73 41.9979 17.73C42.4195 17.73 42.8317 17.8546 43.1827 18.0881C43.2104 18.1067 43.2394 18.1235 43.2694 18.1383C43.7252 18.4267 44.2362 18.6167 44.7698 18.6963C45.3033 18.7758 45.8475 18.7431 46.3677 18.6003C46.7777 18.4897 47.211 18.5 47.6153 18.6301C48.0196 18.7602 48.3776 19.0045 48.6461 19.3335C48.6697 19.3621 48.6949 19.3893 48.7215 19.4149C49.0669 19.8275 49.4942 20.1638 49.9764 20.4026C50.4586 20.6413 50.9851 20.7772 51.5226 20.8016C51.9454 20.8185 52.3537 20.9596 52.6967 21.2073C53.0397 21.455 53.302 21.7983 53.4509 22.1943C53.6439 22.7186 53.9483 23.1947 54.3432 23.5899C54.738 23.9851 55.214 24.2899 55.7381 24.4832C56.1355 24.6324 56.4801 24.8957 56.7284 25.24C56.9768 25.5843 57.118 25.9942 57.1343 26.4185C57.1624 26.9741 57.3083 27.5175 57.5623 28.0125C57.8163 28.5075 58.1726 28.9429 58.6076 29.2897C58.8599 29.493 59.0636 29.7501 59.2038 30.0422C59.344 30.3343 59.4172 30.654 59.4179 30.978C59.4178 31.1685 59.3942 31.3583 59.3477 31.5431C59.2492 31.8862 59.1999 32.2416 59.2013 32.5987C59.1997 33.3294 59.4062 34.0454 59.7967 34.6631C59.8121 34.6931 59.8295 34.722 59.8487 34.7497C60.0822 35.1007 60.2068 35.5129 60.2068 35.9345C60.2068 36.356 60.0822 36.7682 59.8487 37.1192C59.8301 37.147 59.8133 37.1759 59.7984 37.2059C59.5107 37.662 59.3215 38.1733 59.2428 38.7068C59.1642 39.2403 59.1979 39.7844 59.3417 40.3042C59.3916 40.4967 59.4172 40.6947 59.4179 40.8935C59.4172 41.2175 59.344 41.5373 59.2038 41.8294C59.0636 42.1215 58.8599 42.3785 58.6076 42.5818C58.579 42.6053 58.5518 42.6305 58.5261 42.6572C58.1136 43.0025 57.7772 43.4298 57.5385 43.912C57.2998 44.3942 57.1639 44.9208 57.1395 45.4583C57.1226 45.881 56.9815 46.2894 56.7338 46.6324C56.4861 46.9753 56.1427 47.2377 55.7467 47.3866C55.2225 47.5795 54.7463 47.884 54.3512 48.2788C53.956 48.6737 53.6512 49.1496 53.4579 49.6737C53.3087 50.0712 53.0454 50.4157 52.7011 50.6641C52.3568 50.9125 51.9468 51.0537 51.5226 51.0699C50.967 51.098 50.4236 51.2439 49.9286 51.4979C49.4336 51.7519 48.9982 52.1083 48.6513 52.5433C48.4481 52.7956 48.191 52.9993 47.8989 53.1395C47.6068 53.2797 47.2871 53.3528 46.9631 53.3536C46.7723 53.3532 46.5823 53.33 46.3972 53.2843C45.8745 53.1384 45.3272 53.103 44.79 53.1801C44.2529 53.2572 43.7377 53.4453 43.2772 53.7323C43.2471 53.7477 43.2182 53.7651 43.1905 53.7843C42.8395 54.0178 42.4273 54.1424 42.0057 54.1424C41.5842 54.1424 41.172 54.0178 40.821 53.7843C40.7933 53.7657 40.7643 53.7489 40.7344 53.7341C40.2782 53.4446 39.7666 53.2535 39.2323 53.173C38.6981 53.0926 38.1529 53.1246 37.6317 53.2669C37.2217 53.3777 36.7883 53.3675 36.384 53.2374C35.9797 53.1073 35.6217 52.8629 35.3532 52.5337C35.3297 52.5051 35.3045 52.4779 35.2778 52.4523C34.9325 52.0397 34.5052 51.7033 34.023 51.4646C33.5408 51.2259 33.0142 51.09 32.4767 51.0656C32.054 51.0487 31.6456 50.9076 31.3027 50.6599C30.9597 50.4122 30.6973 50.0689 30.5484 49.6729C30.3555 49.1486 30.0511 48.6724 29.6562 48.2773C29.2613 47.8821 28.7854 47.5773 28.2613 47.384C27.8638 47.2348 27.5193 46.9715 27.2709 46.6272C27.0225 46.2829 26.8814 45.873 26.8651 45.4487C26.837 44.8931 26.6911 44.3497 26.4371 43.8547C26.1831 43.3597 25.8268 42.9243 25.3917 42.5775C25.1394 42.3742 24.9357 42.1171 24.7955 41.825C24.6553 41.5329 24.5822 41.2132 24.5814 40.8892C24.5816 40.6987 24.6051 40.5089 24.6516 40.3241C24.7501 39.981 24.7994 39.6256 24.7981 39.2685C24.7997 38.5378 24.5932 37.8218 24.2027 37.2041C24.1873 37.1741 24.1699 37.1452 24.1507 37.1175C23.918 36.7661 23.7943 36.3539 23.7951 35.9325C23.7958 35.5111 23.9211 35.0993 24.155 34.7489Z" fill="#0E6E37"/>
<path d="M41.9994 51.5335C45.0848 51.5335 48.1009 50.6186 50.6663 48.9044C53.2317 47.1903 55.2312 44.7539 56.4119 41.9034C57.5927 39.0528 57.9016 35.9162 57.2997 32.8901C56.6977 29.864 55.212 27.0843 53.0303 24.9026C50.8486 22.7209 48.0689 21.2352 45.0428 20.6333C42.0167 20.0313 38.8801 20.3403 36.0296 21.521C33.179 22.7017 30.7426 24.7012 29.0285 27.2666C27.3143 29.832 26.3994 32.8481 26.3994 35.9335C26.4042 40.0694 28.0493 44.0345 30.9739 46.959C33.8984 49.8836 37.8635 51.5287 41.9994 51.5335ZM41.9994 22.0668C44.742 22.0668 47.423 22.8801 49.7033 24.4038C51.9837 25.9275 53.761 28.0932 54.8105 30.627C55.8601 33.1608 56.1347 35.9489 55.5996 38.6388C55.0646 41.3286 53.7439 43.7994 51.8046 45.7387C49.8653 47.678 47.3945 48.9987 44.7047 49.5337C42.0148 50.0688 39.2267 49.7942 36.6929 48.7446C34.1591 47.6951 31.9934 45.9178 30.4697 43.6374C28.946 41.357 28.1327 38.6761 28.1327 35.9335C28.1371 32.2572 29.5995 28.7327 32.199 26.1331C34.7986 23.5335 38.3231 22.0712 41.9994 22.0668Z" fill="#0E6E37"/>
<path d="M37.6365 44.8923C37.6425 45.2754 37.6659 45.5102 37.672 45.5622C37.6955 45.7743 37.7963 45.9702 37.9553 46.1126C38.1142 46.2549 38.3201 46.3336 38.5335 46.3336H38.5829C38.804 46.3209 39.012 46.2241 39.164 46.0629C39.316 45.9017 39.4005 45.6884 39.4001 45.4669C39.4001 45.4149 39.4001 45.1584 39.3663 44.7302C39.3948 42.5482 39.9143 40.4006 40.8865 38.4469C40.972 38.4667 41.0589 38.48 41.1465 38.4868C41.4134 38.5067 41.8623 38.531 42.4092 38.531C44.0331 38.6142 45.651 38.2772 47.1065 37.5525C48.3407 36.7578 48.9265 35.5219 50.0913 33.0606L50.2569 32.7139C50.6127 31.8747 51.1706 31.1366 51.881 30.5654C52.0566 30.4417 52.1963 30.2736 52.2857 30.0782C52.3751 29.8829 52.411 29.6673 52.3897 29.4535C52.3661 29.2374 52.2856 29.0314 52.1565 28.8565C52.0275 28.6816 51.8543 28.544 51.6548 28.4577C50.1719 27.8389 46.3976 26.5328 43.3963 27.7999C40.4115 29.0522 38.9893 32.3707 39.4911 36.88C39.5022 36.9993 39.5254 37.1172 39.5605 37.2318C39.1177 38.076 38.7452 38.9551 38.4468 39.8604C37.5096 36.6932 36.0126 33.7195 34.0268 31.0802C33.9585 30.9892 33.873 30.9125 33.775 30.8545C33.6771 30.7965 33.5687 30.7584 33.456 30.7423C33.3434 30.7262 33.2286 30.7324 33.1184 30.7607C33.0081 30.7889 32.9045 30.8386 32.8135 30.9069C32.7224 30.9752 32.6457 31.0607 32.5877 31.1587C32.5297 31.2566 32.4916 31.365 32.4755 31.4777C32.4594 31.5903 32.4657 31.7051 32.4939 31.8153C32.5222 31.9256 32.5718 32.0292 32.6401 32.1202C35.4482 35.8372 37.177 40.2565 37.6365 44.8923ZM44.0723 29.398C44.7716 29.121 45.519 28.9858 46.2711 29.0002C47.6083 29.0375 48.9307 29.29 50.1875 29.7482C49.5677 30.4001 49.0628 31.1523 48.6943 31.9729L48.5287 32.3196C47.4723 34.5504 46.9913 35.5687 46.174 36.0939C45.2475 36.6893 43.4007 36.8392 41.8407 36.7569C42.9654 35.0414 44.3719 33.5283 46.0007 32.2814C46.0933 32.2126 46.1712 32.1259 46.2299 32.0265C46.2886 31.9271 46.3268 31.817 46.3423 31.7026C46.3579 31.5883 46.3504 31.472 46.3204 31.3605C46.2904 31.2491 46.2384 31.1447 46.1675 31.0537C46.0966 30.9626 46.0083 30.8866 45.9076 30.8301C45.807 30.7736 45.6961 30.7378 45.5814 30.7248C45.4667 30.7118 45.3506 30.7218 45.2398 30.7542C45.1291 30.7867 45.0259 30.841 44.9364 30.9138C43.5065 32.0178 42.2302 33.3075 41.1413 34.7488C41.2054 32.7035 41.8155 30.3444 44.0723 29.398Z" fill="#0E6E37"/>
</g>
<defs>
<clipPath id="clip0_2652_14108">
<rect width="52" height="52" fill="white" transform="translate(16 16)"/>
</clipPath>
</defs>
</svg>
