<svg width="85" height="84" viewBox="0 0 85 84" fill="none" xmlns="http://www.w3.org/2000/svg">
<circle cx="42.6667" cy="42" r="42" fill="#EAF7F0"/>
<path d="M60.7109 18.7349H59.094C58.639 18.7693 58.209 18.9572 57.8746 19.2677C57.5401 19.5782 57.321 19.9931 57.2529 20.4444H43.6793C42.2618 20.4452 40.8666 20.7972 39.6184 21.4689L34.0764 24.4589H25.2957C24.5699 24.4598 23.874 24.7484 23.3608 25.2616C22.8475 25.7747 22.5586 26.4704 22.5575 27.1962V28.0169C22.5585 28.5614 22.7217 29.0933 23.0263 29.5447C23.331 29.9961 23.7632 30.3464 24.2679 30.5511C23.5854 33.2997 20.9285 40.3986 21.1113 43.2082V60.8662C21.1119 61.5125 21.3689 62.1321 21.8259 62.5891C22.2829 63.0461 22.9025 63.3031 23.5488 63.3037L54.28 63.3102C54.4956 63.3055 54.7011 63.2176 54.8535 63.065C55.006 62.9124 55.0936 62.7069 55.0982 62.4912V42.0406C55.0982 41.9625 55.087 41.8848 55.0648 41.8099L51.8595 30.9792C52.7224 30.8243 53.5181 30.4119 54.142 29.7961C54.7659 29.1803 55.1887 28.3901 55.3549 27.5294H57.1749C57.15 28.0764 57.3346 28.6123 57.691 29.028C58.0474 29.4438 58.5488 29.708 59.0932 29.767H60.7109C61.7964 29.767 62.6463 28.6961 62.6463 27.3295V21.1724C62.6463 19.8057 61.7964 18.7349 60.7109 18.7349ZM24.1825 28.0169V27.1962C24.1828 26.9011 24.3001 26.6181 24.5088 26.4094C24.7175 26.2007 25.0005 26.0833 25.2957 26.0831H44.7624L41.7212 29.13H25.2957C25.0005 29.1298 24.7175 29.0124 24.5088 28.8037C24.3001 28.595 24.1828 28.312 24.1825 28.0169ZM22.7363 60.8662C22.9004 58.2175 22.2715 41.922 23.24 39.7355L25.9026 30.755H40.6137C40.3919 31.4354 40.3926 32.1688 40.6158 32.8488C40.839 33.5288 41.2731 34.12 41.855 34.5366C42.437 34.9531 43.1365 35.1734 43.8521 35.1655C44.5678 35.1576 45.2623 34.9219 45.8349 34.4925L48.6542 32.3394L46.2045 41.4394C46.1899 41.8221 46.1566 61.3326 46.1769 61.6787H23.5488C23.3334 61.6785 23.1268 61.5928 22.9745 61.4405C22.8222 61.2882 22.7365 61.0817 22.7363 60.8662ZM50.6294 59.9928L52.3162 61.6787H48.9475L50.6294 59.9928ZM53.4732 42.1584V60.5372L51.45 58.5149V43.0319C51.45 42.8164 51.3644 42.6097 51.2121 42.4573C51.0597 42.305 50.853 42.2194 50.6375 42.2194C50.4221 42.2194 50.2154 42.305 50.063 42.4573C49.9106 42.6097 49.825 42.8164 49.825 43.0319V58.4986L47.8019 60.5266V41.7579L50.4466 31.9323L53.4732 42.1584ZM57.1587 25.9044H54.6188C54.4033 25.9044 54.1966 25.99 54.0443 26.1423C53.8919 26.2947 53.8063 26.5014 53.8063 26.7169C53.8054 27.4342 53.5201 28.1219 53.0129 28.6291C52.5057 29.1363 51.818 29.4216 51.1007 29.4225C51.03 29.4339 49.9843 29.4046 49.955 29.4387C49.9128 29.1909 44.9793 33.1559 44.8485 33.2006C44.4972 33.4644 44.0591 33.5856 43.6222 33.54C43.1852 33.4944 42.7817 33.2853 42.4924 32.9546C42.2032 32.624 42.0496 32.1962 42.0626 31.757C42.0755 31.3179 42.2539 30.8999 42.5621 30.5868L47.2957 25.8451C47.407 25.7305 47.4823 25.586 47.5123 25.4291C47.5424 25.2723 47.5258 25.1101 47.4647 24.9626C47.4036 24.8151 47.3007 24.6887 47.1685 24.5991C47.0364 24.5094 46.8809 24.4604 46.7213 24.4581H37.4994C39.2682 23.5587 41.6025 21.9264 43.6785 22.0694H57.1579L57.1587 25.9044ZM61.0213 27.3295C61.0377 27.4798 61.0181 27.6319 60.9641 27.7732C60.9101 27.9144 60.8233 28.0409 60.7109 28.142H59.0981C58.9842 28.0419 58.8961 27.9157 58.8414 27.7743C58.7866 27.6328 58.7668 27.4802 58.7837 27.3295V21.2731C58.7374 20.8368 59.0087 20.3452 59.0965 20.3599H60.706C60.8203 20.4597 60.9087 20.5858 60.9636 20.7273C61.0185 20.8688 61.0383 21.0215 61.0213 21.1724V27.3295Z" fill="#0E6E37"/>
</svg>
