<svg width="85" height="84" viewBox="0 0 85 84" fill="none" xmlns="http://www.w3.org/2000/svg">
<circle cx="42.3333" cy="42" r="42" fill="#EAF7F0"/>
<g clip-path="url(#clip0_2652_14100)">
<path d="M57.1666 51.75V21.4167C57.1666 19.9801 56.5959 18.6023 55.5801 17.5865C54.5643 16.5707 53.1865 16 51.7499 16H32.2499C30.8133 16 29.4356 16.5707 28.4198 17.5865C27.4039 18.6023 26.8333 19.9801 26.8333 21.4167V60.4167C26.8333 61.8533 27.4039 63.231 28.4198 64.2468C29.4356 65.2627 30.8133 65.8333 32.2499 65.8333H39.0641L41.2958 67.74C41.5141 67.9268 41.7977 68.0191 42.0842 67.9968C42.3706 67.9744 42.6365 67.8392 42.8233 67.6208C43.01 67.4025 43.1024 67.1189 43.08 66.8324C43.0577 66.5459 42.9224 66.2801 42.7041 66.0933L36.2041 60.5033C36.0346 60.3548 35.9217 60.1522 35.8848 59.9298C35.8478 59.7075 35.889 59.4792 36.0014 59.2838C36.1138 59.0885 36.2903 58.9381 36.5011 58.8582C36.7119 58.7783 36.9438 58.774 37.1574 58.8458L41.6533 60.4167C41.8162 60.4704 41.9895 60.4846 42.159 60.4583C42.3285 60.4319 42.4894 60.3657 42.6283 60.265C42.7759 60.1601 42.895 60.0199 42.9744 59.8571C43.0539 59.6944 43.0913 59.5143 43.0833 59.3333V45.25C43.0833 44.9627 43.1974 44.6871 43.4006 44.484C43.6037 44.2808 43.8793 44.1667 44.1666 44.1667C44.4539 44.1667 44.7295 44.2808 44.9326 44.484C45.1358 44.6871 45.2499 44.9627 45.2499 45.25V57.1667C45.2499 57.454 45.3641 57.7295 45.5672 57.9327C45.7704 58.1359 46.0459 58.25 46.3333 58.25C46.6206 58.25 46.8961 58.1359 47.0993 57.9327C47.3025 57.7295 47.4166 57.454 47.4166 57.1667V52.8333C47.4166 52.546 47.5307 52.2705 47.7339 52.0673C47.937 51.8641 48.2126 51.75 48.4999 51.75C48.7872 51.75 49.0628 51.8641 49.266 52.0673C49.4691 52.2705 49.5833 52.546 49.5833 52.8333V57.1667C49.5833 57.454 49.6974 57.7295 49.9006 57.9327C50.1037 58.1359 50.3793 58.25 50.6666 58.25C50.9539 58.25 51.2295 58.1359 51.4326 57.9327C51.6358 57.7295 51.7499 57.454 51.7499 57.1667V53.9167C51.7499 53.6293 51.8641 53.3538 52.0672 53.1506C52.2704 52.9475 52.5459 52.8333 52.8333 52.8333C53.1206 52.8333 53.3961 52.9475 53.5993 53.1506C53.8025 53.3538 53.9166 53.6293 53.9166 53.9167V57.1667C53.9166 57.454 54.0307 57.7295 54.2339 57.9327C54.4371 58.1359 54.7126 58.25 54.9999 58.25C55.2872 58.25 55.5628 58.1359 55.766 57.9327C55.9691 57.7295 56.0833 57.454 56.0833 57.1667V55C56.0833 54.7127 56.1974 54.4371 56.4006 54.234C56.6037 54.0308 56.8793 53.9167 57.1666 53.9167C57.4539 53.9167 57.7295 54.0308 57.9326 54.234C58.1358 54.4371 58.2499 54.7127 58.2499 55V66.9167C58.2499 67.204 58.3641 67.4795 58.5672 67.6827C58.7704 67.8859 59.0459 68 59.3333 68C59.6206 68 59.8961 67.8859 60.0993 67.6827C60.3025 67.4795 60.4166 67.204 60.4166 66.9167V55C60.4166 54.138 60.0742 53.3114 59.4647 52.7019C58.8552 52.0924 58.0285 51.75 57.1666 51.75ZM47.4166 18.1667V19.25C47.4166 19.5373 47.3025 19.8129 47.0993 20.016C46.8961 20.2192 46.6206 20.3333 46.3333 20.3333H37.6666C37.3793 20.3333 37.1037 20.2192 36.9006 20.016C36.6974 19.8129 36.5833 19.5373 36.5833 19.25V18.1667H47.4166ZM44.1666 42C43.4961 42.0019 42.8425 42.2111 42.2956 42.599C41.7487 42.9869 41.3351 43.5345 41.1116 44.1667H34.4166V43.0833C34.4166 42.0875 34.6127 41.1014 34.9938 40.1813C35.3749 39.2613 35.9335 38.4253 36.6377 37.7211C37.3419 37.0169 38.1779 36.4583 39.0979 36.0772C40.018 35.6961 41.0041 35.5 41.9999 35.5C42.9958 35.5 43.9819 35.6961 44.9019 36.0772C45.822 36.4583 46.658 37.0169 47.3621 37.7211C48.0663 38.4253 48.6249 39.2613 49.006 40.1813C49.3871 41.1014 49.5833 42.0875 49.5833 43.0833V44.1667H47.2216C46.9981 43.5345 46.5845 42.9869 46.0376 42.599C45.4906 42.2111 44.8371 42.0019 44.1666 42ZM52.8333 50.6667C52.2736 50.6687 51.7243 50.8181 51.2408 51.1C50.8466 50.4798 50.2539 50.0115 49.5594 49.7715C48.8649 49.5315 48.1096 49.5339 47.4166 49.7783V46.3333H51.7499C52.0372 46.3333 52.3128 46.2192 52.516 46.016C52.7191 45.8129 52.8333 45.5373 52.8333 45.25C52.8333 44.9627 52.7191 44.6871 52.516 44.484C52.3128 44.2808 52.0372 44.1667 51.7499 44.1667V43.0833C51.7488 40.6859 50.8643 38.3728 49.2656 36.5862C47.6669 34.7996 45.4659 33.6647 43.0833 33.3983V32.25C43.0833 31.9627 42.9691 31.6871 42.766 31.484C42.5628 31.2808 42.2872 31.1667 41.9999 31.1667C41.7126 31.1667 41.4371 31.2808 41.2339 31.484C41.0307 31.6871 40.9166 31.9627 40.9166 32.25V33.3983C38.5339 33.6647 36.333 34.7996 34.7342 36.5862C33.1355 38.3728 32.2511 40.6859 32.2499 43.0833V44.1667C31.9626 44.1667 31.6871 44.2808 31.4839 44.484C31.2807 44.6871 31.1666 44.9627 31.1666 45.25C31.1666 45.5373 31.2807 45.8129 31.4839 46.016C31.6871 46.2192 31.9626 46.3333 32.2499 46.3333H40.9166V57.8275L37.7966 56.7442C37.1073 56.5141 36.3595 56.5302 35.6807 56.7896C35.0019 57.049 34.434 57.5357 34.0737 58.1668C33.7135 58.7979 33.5831 59.5343 33.7049 60.2508C33.8267 60.9672 34.193 61.6192 34.7416 62.0958L36.5833 63.6667H32.2499C31.388 63.6667 30.5613 63.3243 29.9518 62.7148C29.3423 62.1053 28.9999 61.2786 28.9999 60.4167V21.4167C28.9999 20.5547 29.3423 19.7281 29.9518 19.1186C30.5613 18.5091 31.388 18.1667 32.2499 18.1667H34.4166V19.25C34.4166 20.112 34.759 20.9386 35.3685 21.5481C35.978 22.1576 36.8046 22.5 37.6666 22.5H46.3333C47.1952 22.5 48.0219 22.1576 48.6313 21.5481C49.2408 20.9386 49.5833 20.112 49.5833 19.25V18.1667H51.7499C52.6119 18.1667 53.4385 18.5091 54.048 19.1186C54.6575 19.7281 54.9999 20.5547 54.9999 21.4167V51.5117C54.4066 50.9724 53.635 50.6714 52.8333 50.6667Z" fill="#0E6E37"/>
</g>
<defs>
<clipPath id="clip0_2652_14100">
<rect width="52" height="52" fill="white" transform="translate(16.0002 16)"/>
</clipPath>
</defs>
</svg>
