<svg width="20" height="20" viewBox="0 0 20 20" fill="none" xmlns="http://www.w3.org/2000/svg">
<path d="M18.9587 14.5833C18.9587 14.9249 18.6753 15.2083 18.3337 15.2083H12.5003V15.4166C12.5003 16.6666 11.7503 17.0833 10.8337 17.0833H5.83366C4.91699 17.0833 4.16699 16.6666 4.16699 15.4166V15.2083H1.66699C1.32533 15.2083 1.04199 14.9249 1.04199 14.5833C1.04199 14.2416 1.32533 13.9583 1.66699 13.9583H4.16699V13.7499C4.16699 12.4999 4.91699 12.0833 5.83366 12.0833H10.8337C11.7503 12.0833 12.5003 12.4999 12.5003 13.7499V13.9583H18.3337C18.6753 13.9583 18.9587 14.2416 18.9587 14.5833Z" fill="#0E6E37"/>
<path d="M18.9587 5.41675C18.9587 5.75841 18.6753 6.04175 18.3337 6.04175H15.8337V6.25008C15.8337 7.50008 15.0837 7.91675 14.167 7.91675H9.16699C8.25033 7.91675 7.50033 7.50008 7.50033 6.25008V6.04175H1.66699C1.32533 6.04175 1.04199 5.75841 1.04199 5.41675C1.04199 5.07508 1.32533 4.79175 1.66699 4.79175H7.50033V4.58341C7.50033 3.33341 8.25033 2.91675 9.16699 2.91675H14.167C15.0837 2.91675 15.8337 3.33341 15.8337 4.58341V4.79175H18.3337C18.6753 4.79175 18.9587 5.07508 18.9587 5.41675Z" fill="#0E6E37"/>
</svg>
