<svg width="24" height="24" viewBox="0 0 24 24" fill="none" xmlns="http://www.w3.org/2000/svg">
<path d="M0.761573 15.8844C0.746615 15.9432 0.74615 16.0047 0.760218 16.0637C0.774286 16.1227 0.802467 16.1774 0.842338 16.2231C0.88221 16.2688 0.932581 16.3042 0.989123 16.3261C1.04567 16.348 1.10669 16.3559 1.16695 16.3491C3.69332 16.0644 5.33432 14.8554 6.32395 13.7691C6.9 14.44 7.55672 15.0371 8.2792 15.5469C9.47731 16.3993 10.8464 16.981 12.2917 17.2517C12.0104 18.1374 12.0003 18.9122 12.0003 19.0097C12.0003 19.1091 12.0398 19.2045 12.1102 19.2749C12.1805 19.3452 12.2759 19.3847 12.3753 19.3847H12.3783C14.7723 19.3667 16.0991 17.7294 16.4587 17.2127C16.6679 17.1677 16.8761 17.1182 17.0849 17.0586C19.5982 16.3554 21.7672 14.7249 23.1926 12.4671C23.2304 12.4073 23.2505 12.338 23.2505 12.2672C23.2505 12.1964 23.2304 12.1271 23.1926 12.0673C21.6378 9.59457 19.2198 7.91494 16.4797 7.32132C16.0979 6.74832 14.4873 4.63819 11.4588 4.61719C11.4094 4.6169 11.3604 4.62638 11.3146 4.64509C11.2689 4.6638 11.2273 4.69138 11.1922 4.72623C11.1571 4.76108 11.1293 4.80252 11.1103 4.84817C11.0913 4.89381 11.0816 4.94276 11.0816 4.99219C11.0816 5.04657 11.0891 6.21207 11.5458 7.44394C11.1609 7.54759 10.7824 7.67355 10.4122 7.82119C10.397 7.82523 10.3821 7.83024 10.3676 7.83619C8.80599 8.47466 7.41997 9.47775 6.32545 10.7616C5.45695 9.79969 3.80657 8.46882 1.16657 8.17782C1.1064 8.17147 1.04558 8.17963 0.989211 8.20162C0.93284 8.22361 0.882558 8.25878 0.842573 8.30419C0.761948 8.39682 0.731949 8.52319 0.761949 8.64244C0.784449 8.73207 1.30607 10.7327 2.9347 12.2661C1.3057 13.7938 0.784449 15.7941 0.761949 15.8837L0.761573 15.8844ZM13.0481 17.3672C13.4504 17.4144 13.8551 17.4471 14.2638 17.4471C14.6047 17.4471 14.9613 17.4231 15.3337 17.3856C14.8244 17.8896 13.9796 18.4929 12.7739 18.6133C12.8051 18.3039 12.8831 17.8464 13.0477 17.3668L13.0481 17.3672ZM11.8514 5.38444C13.6109 5.52207 14.7701 6.46782 15.3869 7.14544C15.014 7.10381 14.6391 7.08215 14.2638 7.08057C13.5926 7.08057 12.9303 7.14432 12.2808 7.27069C11.9924 6.53344 11.8882 5.81232 11.8514 5.38444ZM3.74057 11.9781C2.58032 11.0211 1.9552 9.73369 1.67507 9.01069C4.01845 9.44269 5.39657 10.7773 6.03107 11.5738C6.10157 11.6627 6.2137 11.7178 6.32695 11.7193C6.44882 11.7193 6.56132 11.6638 6.63295 11.5716C7.67678 10.2357 9.04902 9.19318 10.6158 8.54569C10.6299 8.54185 10.6436 8.53709 10.6571 8.53144C11.8027 8.06681 13.0276 7.82879 14.2638 7.83057C17.5537 7.83057 20.5882 9.48432 22.4283 12.2668C21.1023 14.2637 19.1414 15.7044 16.8802 16.3371C16.4449 16.462 16.0008 16.5537 15.5516 16.6112C15.1244 16.6664 14.6942 16.695 14.2634 16.6967C13.1576 16.6967 12.0716 16.5092 11.0343 16.1398C10.2081 15.8485 9.42667 15.443 8.7127 14.9353C7.92472 14.3799 7.22173 13.7128 6.62582 12.9549C6.59113 12.9106 6.54689 12.8746 6.49638 12.8497C6.44587 12.8247 6.3904 12.8115 6.33407 12.8109H6.3307C6.21782 12.8109 6.11095 12.8619 6.0397 12.9493C5.25257 13.9176 3.87445 15.1078 1.67507 15.5154C1.95557 14.7932 2.58032 13.5084 3.73945 12.5567C3.7822 12.5215 3.81664 12.4774 3.8403 12.4273C3.86395 12.3773 3.87624 12.3226 3.87628 12.2673C3.87631 12.2119 3.8641 12.1573 3.8405 12.1072C3.81691 12.0571 3.78253 12.0129 3.73982 11.9777L3.74057 11.9781Z" fill="#3F3F3F"/>
<path d="M19.3008 12.2891H19.4534C19.5529 12.2891 19.6482 12.2496 19.7186 12.1792C19.7889 12.1089 19.8284 12.0135 19.8284 11.9141C19.8284 11.8146 19.7889 11.7192 19.7186 11.6489C19.6482 11.5786 19.5529 11.5391 19.4534 11.5391H19.3008C19.2013 11.5391 19.1059 11.5786 19.0356 11.6489C18.9653 11.7192 18.9258 11.8146 18.9258 11.9141C18.9258 12.0135 18.9653 12.1089 19.0356 12.1792C19.1059 12.2496 19.2013 12.2891 19.3008 12.2891Z" fill="#3F3F3F"/>
</svg>
