<svg width="24" height="24" viewBox="0 0 24 24" fill="none" xmlns="http://www.w3.org/2000/svg">
<g clip-path="url(#clip0_2281_56885)">
<path d="M18.4448 10.421C18.2092 10.2738 17.9659 10.1488 17.7175 10.045C18.8278 9.69961 19.8244 8.97126 20.4875 7.91015C20.5439 7.81978 20.5622 7.71067 20.5382 7.60684C20.5143 7.503 20.45 7.41294 20.3596 7.35647C19.4238 6.77166 18.3681 6.53342 17.3434 6.60633C17.5514 6.37859 17.7383 6.1324 17.9017 5.87081C18.6138 4.73111 18.8395 3.38233 18.5372 2.07285C18.5253 2.02144 18.5035 1.97286 18.4728 1.9299C18.4422 1.88694 18.4034 1.85043 18.3586 1.82247C18.3139 1.79451 18.2641 1.77564 18.212 1.76693C18.16 1.75823 18.1067 1.75986 18.0553 1.77174C16.7459 2.07402 15.6325 2.86819 14.9204 4.00789C14.7551 4.27236 14.6164 4.54822 14.504 4.83209C14.1203 3.87919 13.4435 3.03476 12.5076 2.44996C12.4172 2.39348 12.3081 2.37523 12.2043 2.3992C12.1004 2.42317 12.0104 2.48741 11.9539 2.57778C11.2911 3.63853 11.0732 4.85314 11.2493 6.00215C11.0438 5.82226 10.8243 5.65916 10.5927 5.51442C10.5023 5.45795 10.3932 5.43969 10.2894 5.46366C10.1855 5.48763 10.0955 5.55187 10.039 5.64225C9.37598 6.70331 9.15822 7.91841 9.33452 9.06768C9.12922 8.8872 8.90957 8.72372 8.67776 8.57885C8.58739 8.52238 8.47828 8.50412 8.37445 8.5281C8.27061 8.55207 8.18055 8.61631 8.12408 8.70668C7.46105 9.76775 7.24329 10.9829 7.4196 12.1321C7.21429 11.9516 6.99465 11.7882 6.76284 11.6433C6.67246 11.5868 6.56336 11.5686 6.45952 11.5925C6.35568 11.6165 6.26562 11.6807 6.20915 11.7711C4.81069 14.0091 5.39235 16.9323 7.47754 18.4775L5.51265 21.6219C5.45617 21.7123 5.43792 21.8214 5.46189 21.9253C5.48586 22.0291 5.5501 22.1192 5.64047 22.1756C5.73085 22.2321 5.83995 22.2504 5.94379 22.2264C6.04763 22.2024 6.13768 22.1382 6.19416 22.0478L8.15905 18.9033C10.4619 20.1001 13.3442 19.3414 14.7426 17.1034C14.7991 17.0131 14.8174 16.904 14.7934 16.8001C14.7694 16.6963 14.7052 16.6062 14.6148 16.5498C14.3792 16.4025 14.136 16.2776 13.8876 16.1737C14.9979 15.8285 15.9945 15.1 16.6575 14.039C16.714 13.9486 16.7322 13.8395 16.7083 13.7356C16.6843 13.6318 16.62 13.5417 16.5297 13.4853C16.2941 13.3381 16.0508 13.2131 15.8024 13.1093C16.9127 12.7639 17.9093 12.0355 18.5723 10.9745C18.6902 10.7865 18.633 10.5385 18.4448 10.421ZM19.5641 7.83176C18.3386 9.41753 16.1467 9.92358 14.3501 9.03552C15.5756 7.44979 17.7676 6.94373 19.5641 7.83176ZM12.901 9.02469C13.3115 9.38497 13.7779 9.67613 14.2819 9.8868C13.7892 10.0399 13.3229 10.2676 12.8993 10.5622C12.979 10.0528 12.9796 9.53421 12.901 9.02469ZM12.3669 12.9512C11.8731 13.1046 11.4058 13.3331 10.9815 13.6285C11.061 13.1176 11.0615 12.5975 10.9829 12.0864C11.3942 12.4479 11.8617 12.74 12.3669 12.9512ZM17.8291 2.67011C17.9542 3.63637 17.7434 4.60788 17.2203 5.44507C16.6971 6.28225 15.9163 6.89754 14.993 7.20883C14.8681 6.24253 15.0788 5.27101 15.602 4.43383C16.1251 3.59661 16.9058 2.98131 17.8291 2.67011ZM12.4292 3.37338C14.015 4.5989 14.521 6.79084 13.633 8.58746C12.0473 7.36195 11.5412 5.16997 12.4292 3.37338ZM10.5144 6.43784C12.1001 7.66336 12.6062 9.85526 11.7181 11.6519C10.1324 10.4264 9.62633 8.23447 10.5144 6.43784ZM8.59949 9.50227C10.1852 10.7278 10.6913 12.9197 9.80325 14.7163C8.21752 13.4908 7.71147 11.2989 8.59949 9.50227ZM6.68458 12.5668C8.27031 13.7923 8.77636 15.9842 7.88834 17.7808C6.30259 16.5553 5.79654 14.3633 6.68458 12.5668ZM9.06663 16.693C9.14618 16.182 9.14664 15.6619 9.06802 15.1508C9.47936 15.5123 9.94685 15.8045 10.4521 16.0157C9.95829 16.1691 9.491 16.3975 9.06663 16.693ZM13.8195 17.0251C12.594 18.6109 10.402 19.1169 8.60539 18.2289C9.83091 16.6432 12.0229 16.1371 13.8195 17.0251ZM15.7344 13.9606C14.5088 15.5464 12.3169 16.0524 10.5203 15.1644C11.7458 13.5787 13.9378 13.0726 15.7344 13.9606ZM12.435 12.0999C13.0298 11.3284 13.8658 10.7905 14.8276 10.5684C15.7895 10.3464 16.7765 10.4634 17.6495 10.896C16.4239 12.4822 14.2317 12.9883 12.435 12.0999Z" fill="#3F3F3F"/>
</g>
<defs>
<clipPath id="clip0_2281_56885">
<rect width="24" height="24" fill="white"/>
</clipPath>
</defs>
</svg>
