<svg width="15" height="16" viewBox="0 0 15 16" fill="none" xmlns="http://www.w3.org/2000/svg">
<path fill-rule="evenodd" clip-rule="evenodd" d="M14.7 8.17032C14.7 7.6385 14.6523 7.12714 14.5636 6.63623H7.5V9.53737H11.5364C11.3625 10.4749 10.8341 11.2692 10.0398 11.801V13.6828H12.4636C13.8818 12.3771 14.7 10.4544 14.7 8.17032Z" fill="#4285F4"/>
<path fill-rule="evenodd" clip-rule="evenodd" d="M7.50001 15.4998C9.52502 15.4998 11.2227 14.8282 12.4637 13.6828L10.0398 11.8009C9.3682 12.2509 8.50911 12.5169 7.50001 12.5169C5.5466 12.5169 3.89319 11.1975 3.30342 9.4248H0.797729V11.368C2.03182 13.8191 4.56819 15.4998 7.50001 15.4998Z" fill="#34A853"/>
<path fill-rule="evenodd" clip-rule="evenodd" d="M3.30341 9.42503C3.15341 8.97502 3.06819 8.49434 3.06819 8.00002C3.06819 7.5057 3.15341 7.02502 3.30341 6.57502V4.63184H0.797729C0.289773 5.64434 0 6.78979 0 8.00002C0 9.21025 0.289773 10.3557 0.797729 11.3682L3.30341 9.42503Z" fill="#FBBC05"/>
<path fill-rule="evenodd" clip-rule="evenodd" d="M7.50001 3.48296C8.60115 3.48296 9.58979 3.86137 10.3671 4.60455L12.5182 2.45341C11.2193 1.24318 9.52161 0.5 7.50001 0.5C4.56819 0.5 2.03182 2.18068 0.797729 4.63182L3.30341 6.57501C3.89319 4.80228 5.5466 3.48296 7.50001 3.48296Z" fill="#EA4335"/>
</svg>
