<svg width="45" height="55" viewBox="0 0 45 55" fill="none" xmlns="http://www.w3.org/2000/svg">
<path d="M10.3127 0.354182C4.896 0.354182 0.833496 9.83335 0.833496 16.6042C0.833819 18.6315 1.4839 20.6053 2.68835 22.236C3.89281 23.8667 5.58821 25.0685 7.52579 25.6649L6.34766 59.8441C6.33512 60.2074 6.39586 60.5696 6.52625 60.9089C6.65665 61.2483 6.85403 61.5579 7.10664 61.8194C7.35925 62.0808 7.66191 62.2887 7.99658 62.4307C8.33126 62.5727 8.69109 62.6459 9.05464 62.6459H11.5734C11.9369 62.6459 12.2968 62.5727 12.6315 62.4307C12.9661 62.2887 13.2688 62.0808 13.5214 61.8194C13.774 61.5579 13.9714 61.2483 14.1018 60.9089C14.2322 60.5696 14.2929 60.2074 14.2804 59.8441L13.1022 25.6649C15.0397 25.0683 16.735 23.8665 17.9394 22.2358C19.1438 20.6052 19.794 18.6314 19.7945 16.6042C19.7945 9.83335 15.732 0.354182 10.3154 0.354182H10.3127ZM44.1668 17.2813C44.1668 15.8878 44.0964 14.4795 43.9583 13.0942L42.8059 1.57429C42.7745 1.22725 42.6092 0.906082 42.345 0.678833C42.0809 0.451584 41.7386 0.336114 41.3908 0.356891C41.0437 0.374265 40.7167 0.524385 40.4772 0.776192C40.2377 1.028 40.1042 1.36222 40.1043 1.7097V17.2826C40.1043 17.4622 40.033 17.6344 39.906 17.7614C39.779 17.8884 39.6068 17.9597 39.4272 17.9597C39.2477 17.9597 39.0755 17.8884 38.9485 17.7614C38.8215 17.6344 38.7502 17.4622 38.7502 17.2826V1.70835C38.7502 1.3492 38.6075 1.00476 38.3535 0.750809C38.0996 0.496853 37.7551 0.354182 37.396 0.354182C37.0368 0.354182 36.6924 0.496853 36.4385 0.750809C36.1845 1.00476 36.0418 1.3492 36.0418 1.70835V17.2813C36.0418 17.4608 35.9705 17.6331 35.8435 17.76C35.7165 17.887 35.5443 17.9584 35.3647 17.9584C35.1852 17.9584 35.013 17.887 34.886 17.76C34.759 17.6331 34.6877 17.4608 34.6877 17.2813V1.70835C34.6877 1.3492 34.545 1.00476 34.291 0.750809C34.0371 0.496853 33.6926 0.354182 33.3335 0.354182C32.9743 0.354182 32.6299 0.496853 32.376 0.750809C32.122 1.00476 31.9793 1.3492 31.9793 1.70835V17.2813C31.9793 17.4608 31.908 17.6331 31.781 17.76C31.654 17.887 31.4818 17.9584 31.3022 17.9584C31.1227 17.9584 30.9505 17.887 30.8235 17.76C30.6965 17.6331 30.6252 17.4608 30.6252 17.2813V1.70835C30.6253 1.36086 30.4918 1.02664 30.2523 0.774838C30.0128 0.523031 29.6858 0.372911 29.3387 0.355537C28.9909 0.33476 28.6486 0.45023 28.3845 0.677479C28.1203 0.904727 27.955 1.2259 27.9236 1.57293L26.7712 13.0928C26.632 14.4842 26.5624 15.8816 26.5627 17.2799C26.5627 21.1582 29.0882 24.4529 32.5792 25.6229L31.3997 59.8427C31.3872 60.2061 31.4479 60.5682 31.5783 60.9076C31.7087 61.2469 31.9061 61.5566 32.1587 61.818C32.4113 62.0795 32.714 62.2874 33.0487 62.4294C33.3833 62.5714 33.7432 62.6445 34.1067 62.6445H36.6255C36.989 62.6445 37.3489 62.5714 37.6835 62.4294C38.0182 62.2874 38.3209 62.0795 38.5735 61.818C38.8261 61.5566 39.0235 61.2469 39.1539 60.9076C39.2843 60.5682 39.345 60.2061 39.3325 59.8427L38.153 25.6229C41.644 24.4543 44.1695 21.1596 44.1695 17.2799L44.1668 17.2813Z" fill="#125043" fill-opacity="0.12"/>
</svg>
