<svg width="18" height="19" viewBox="0 0 18 19" fill="none" xmlns="http://www.w3.org/2000/svg">
<path d="M16.8539 8.66125C16.7239 8.57125 16.5839 8.50125 16.4339 8.44125C16.7539 7.47125 17.1139 5.61125 16.2739 3.35125L15.3339 3.70125C15.5939 4.39125 15.7139 5.04125 15.7639 5.63125L15.7439 6.81125C15.6839 7.40125 15.5639 7.89125 15.4539 8.21125C15.3539 8.19125 15.2539 8.19125 15.1539 8.21125C15.4339 6.53125 14.6539 5.71125 14.0839 5.34125C13.9539 5.25125 13.8139 5.18125 13.6739 5.12125C13.9939 4.15125 14.3539 2.29125 13.5139 0.03125L12.5739 0.38125C13.3439 2.43125 12.9539 4.11125 12.6939 4.89125C12.3039 4.85125 11.9139 4.89125 11.5339 5.01125C10.7239 5.28125 10.1039 5.88125 9.79391 6.71125V6.73125C9.71391 6.95125 7.84391 12.2413 0.873907 13.1813C0.403907 13.2513 0.0439066 13.6313 0.0039066 14.1113C-0.0360934 14.5813 0.233907 15.0013 0.683907 15.1512C1.76391 15.5013 2.91391 15.6613 4.07391 15.6613C5.45391 15.6613 6.85391 15.4313 8.16391 15.0013C6.97391 15.6912 5.48391 16.2612 3.64391 16.5112C3.16391 16.5812 2.80391 16.9613 2.76391 17.4412C2.72391 17.9112 2.99391 18.3312 3.44391 18.4812C4.52391 18.8212 5.67391 18.9912 6.83391 18.9912C11.3739 18.9912 16.0939 16.5013 17.5439 12.8913C18.5839 10.2813 17.5639 9.13125 16.8639 8.67125L16.8539 8.66125ZM16.6039 12.5013C14.9939 16.5212 8.50391 19.0512 3.76391 17.4912C7.98391 16.9212 10.4939 14.8613 11.9039 13.1013C13.0039 11.7213 13.4339 10.5413 13.4939 10.3813C13.7539 9.69125 14.2439 9.40125 14.6139 9.28125C14.7039 9.25125 14.8039 9.23125 14.8939 9.22125C15.3839 9.13125 15.9039 9.23125 16.3039 9.50125C17.2939 10.1413 17.0139 11.4913 16.6039 12.5013ZM1.00391 14.1713C8.51391 13.1413 10.6039 7.42125 10.7239 7.05125C10.9939 6.36125 11.4839 6.07125 11.8439 5.95125C12.4039 5.77125 13.0639 5.85125 13.5439 6.17125C14.3039 6.66125 14.3139 7.57125 14.0939 8.42125C13.3739 8.71125 12.8339 9.27125 12.5539 10.0312C12.5539 10.0312 12.5439 10.0413 12.5439 10.0513C12.5439 10.0813 12.1739 11.1113 11.2039 12.3513C8.44391 14.3513 4.30391 15.2513 1.00391 14.1713Z" fill="#3F3F3F"/>
</svg>
