<svg width="18" height="18" viewBox="0 0 18 18" fill="none" xmlns="http://www.w3.org/2000/svg">
<path d="M17.7023 5.39507C17.6612 4.4652 17.5109 3.82598 17.2954 3.27202C17.0732 2.68405 16.7314 2.15764 16.2835 1.72002C15.8459 1.2756 15.316 0.930243 14.7348 0.711518C14.1777 0.496143 13.5418 0.345722 12.6119 0.304767C11.6751 0.260256 11.3777 0.25 9.00175 0.25C6.62579 0.25 6.3284 0.260256 5.39507 0.30128C4.46523 0.342304 3.82598 0.492793 3.27219 0.708031C2.68405 0.930243 2.15764 1.27211 1.72002 1.72002C1.2756 2.15761 0.930414 2.6875 0.711518 3.26867C0.496143 3.82598 0.345756 4.46178 0.304767 5.39158C0.26029 6.3284 0.25 6.62579 0.25 9.00175C0.25 11.3777 0.26029 11.6751 0.30128 12.6084C0.342304 13.5383 0.492793 14.1775 0.708202 14.7315C0.930414 15.3195 1.2756 15.8459 1.72002 16.2835C2.15764 16.7279 2.68753 17.0733 3.2687 17.292C3.82594 17.5074 4.46174 17.6578 5.39175 17.6987C6.32491 17.7399 6.62247 17.75 8.99843 17.75C11.3744 17.75 11.6718 17.7399 12.6051 17.6987C13.5349 17.6577 14.1742 17.5074 14.728 17.292C15.3096 17.0671 15.8379 16.7232 16.2788 16.2822C16.7198 15.8413 17.0637 15.3131 17.2887 14.7315C17.5039 14.1742 17.6544 13.5383 17.6954 12.6084C17.7364 11.6751 17.7467 11.3777 17.7467 9.00175C17.7467 6.62579 17.7432 6.32836 17.7023 5.39507ZM16.1263 12.5401C16.0886 13.3947 15.9451 13.8562 15.8254 14.1639C15.5314 14.9263 14.9263 15.5314 14.1639 15.8254C13.8562 15.9451 13.3914 16.0886 12.5401 16.1262C11.617 16.1673 11.3402 16.1774 9.00523 16.1774C6.67026 16.1774 6.38997 16.1673 5.47025 16.1262C4.61558 16.0886 4.15407 15.9451 3.84639 15.8254C3.46702 15.6852 3.1217 15.463 2.84137 15.1724C2.55079 14.8887 2.32857 14.5468 2.18834 14.1674C2.06869 13.8597 1.92514 13.3947 1.88764 12.5435C1.84648 11.6205 1.83636 11.3435 1.83636 9.00855C1.83636 6.67358 1.84648 6.39328 1.88764 5.47373C1.92514 4.61907 2.06869 4.15755 2.18834 3.84987C2.32857 3.47034 2.55079 3.12509 2.84486 2.84469C3.12847 2.5541 3.47034 2.33189 3.84987 2.19183C4.15755 2.07218 4.62256 1.92859 5.47373 1.89095C6.39677 1.84993 6.67375 1.83967 9.00855 1.83967C11.347 1.83967 11.6238 1.84993 12.5435 1.89095C13.3982 1.92863 13.8597 2.07214 14.1674 2.19179C14.5468 2.33189 14.8921 2.5541 15.1724 2.84469C15.463 3.12847 15.6852 3.47034 15.8254 3.84987C15.9451 4.15755 16.0886 4.62239 16.1263 5.47373C16.1673 6.39677 16.1776 6.67358 16.1776 9.00855C16.1776 11.3435 16.1673 11.617 16.1263 12.5401Z" fill="#090F1A"/>
<path d="M9.00188 4.50628C6.52 4.50628 4.50635 6.5198 4.50635 9.00181C4.50635 11.4838 6.52 13.4973 9.00188 13.4973C11.4838 13.4973 13.4974 11.4838 13.4974 9.00181C13.4974 6.5198 11.4838 4.50628 9.00188 4.50628ZM9.00188 11.9179C7.39176 11.9179 6.0857 10.6121 6.0857 9.00181C6.0857 7.39155 7.39176 6.0857 9.00184 6.0857C10.6121 6.0857 11.918 7.39155 11.918 9.00181C11.918 10.6121 10.6121 11.9179 9.00188 11.9179ZM14.7248 4.32851C14.7248 4.90811 14.2548 5.37804 13.6751 5.37804C13.0955 5.37804 12.6256 4.90811 12.6256 4.32851C12.6256 3.74884 13.0955 3.27905 13.6751 3.27905C14.2548 3.27905 14.7248 3.74881 14.7248 4.32851Z" fill="#090F1A"/>
</svg>
