<svg width="233" height="197" viewBox="0 0 233 197" fill="none" xmlns="http://www.w3.org/2000/svg">
<path d="M211.655 101.755C211.655 114.263 209.192 126.648 204.405 138.204C199.619 149.759 192.603 160.259 183.759 169.103C174.914 177.948 164.415 184.963 152.859 189.75C141.303 194.536 128.918 197 116.41 197C103.902 197 91.5171 194.536 79.9614 189.75C68.4057 184.963 57.906 177.948 49.0617 169.103C40.2174 160.259 33.2016 149.759 28.4151 138.204C23.6286 126.648 21.165 114.263 21.165 101.755L116.41 101.755H211.655Z" fill="white"/>
<path fill-rule="evenodd" clip-rule="evenodd" d="M211.655 101.755C211.655 114.263 209.192 126.648 204.405 138.204C199.619 149.759 192.603 160.259 183.759 169.103C174.914 177.948 164.415 184.963 152.859 189.75C145.765 192.688 138.359 194.751 130.803 195.906C128.138 193.653 125.732 191.588 123.552 189.681C125.455 187.922 127.191 186.458 128.859 185.176C132.403 182.459 136.836 181.17 141.285 181.559C149.464 182.264 159.124 178.528 166.77 170.882C178.497 159.155 181.039 142.683 172.446 134.09C163.854 125.499 147.382 128.041 135.654 139.767C128.009 147.412 124.273 157.072 124.978 165.252C125.367 169.701 124.076 174.134 121.36 177.678C119.894 179.572 118.34 181.396 116.704 183.144C115.489 181.667 114.345 180.133 113.275 178.547C112.675 177.623 112.284 176.58 112.129 175.49C111.975 174.399 112.06 173.288 112.38 172.235C113.255 169.167 113.293 165.922 112.492 162.835C111.691 159.748 110.079 156.931 107.824 154.676C99.5722 146.427 85.9504 134.001 81.1415 129.64C80.67 129.213 80.0522 128.985 79.4164 129.001C78.7805 129.018 78.1756 129.279 77.7271 129.73L77.6412 129.815C77.1763 130.28 76.9151 130.911 76.9151 131.569C76.9151 132.226 77.1763 132.857 77.6412 133.323L101.654 157.335C101.909 157.59 102.106 157.898 102.23 158.237C102.354 158.577 102.402 158.939 102.372 159.299C102.342 159.659 102.233 160.007 102.054 160.321C101.875 160.635 101.63 160.906 101.336 161.115C100.298 161.804 98.9134 161.652 98.0508 160.751L74.1345 136.831C73.8792 136.575 73.5712 136.379 73.2321 136.255C72.8929 136.13 72.5308 136.082 72.1709 136.112C71.811 136.142 71.4621 136.251 71.1485 136.43C70.8348 136.609 70.564 136.854 70.3549 137.148C69.6653 138.187 69.8191 139.571 70.7189 140.432L94.6377 164.352C94.8931 164.608 95.0897 164.916 95.2138 165.255C95.3379 165.594 95.3865 165.956 95.3562 166.316C95.3259 166.676 95.2175 167.025 95.0385 167.338C94.8595 167.652 94.6143 167.923 94.3198 168.132C93.2817 168.821 91.8974 168.668 91.0361 167.767L67.1173 143.848C66.8619 143.593 66.5539 143.396 66.2148 143.273C65.8758 143.149 65.5138 143.1 65.1541 143.131C64.7943 143.161 64.4456 143.27 64.1321 143.448C63.8186 143.627 63.5479 143.873 63.3389 144.167C62.6481 145.205 62.8019 146.589 63.7029 147.451L87.6217 171.369C87.8768 171.625 88.0731 171.933 88.197 172.272C88.3209 172.611 88.3693 172.973 88.3389 173.333C88.3085 173.692 88.2001 174.041 88.0211 174.355C87.8421 174.668 87.5969 174.939 87.3026 175.148C86.2644 175.839 84.8802 175.685 84.0189 174.784L60.1001 150.865C59.6348 150.4 59.0039 150.139 58.3461 150.139C57.6883 150.139 57.0574 150.4 56.5921 150.865L56.5062 150.951C56.0557 151.399 55.7952 152.004 55.7787 152.64C55.7623 153.275 55.9911 153.893 56.4178 154.364C60.7794 159.172 73.2053 172.795 81.4543 181.045C83.7093 183.301 86.5263 184.912 89.6136 185.713C92.7008 186.515 95.9461 186.476 99.0134 185.601C100.067 185.282 101.178 185.196 102.268 185.351C103.359 185.505 104.402 185.896 105.326 186.496C106.909 187.565 108.441 188.708 109.917 189.922C107.932 191.788 105.693 193.822 103.145 196.072C95.1985 194.954 87.4077 192.834 79.9614 189.75C68.4057 184.963 57.906 177.948 49.0617 169.103C40.2174 160.259 33.2016 149.759 28.4151 138.204C23.6286 126.648 21.165 114.263 21.165 101.755L116.41 101.755H211.655ZM116.465 196.778C116.396 196.852 116.326 196.926 116.257 197L116.41 197C116.493 197 116.576 197 116.659 197C116.594 196.925 116.529 196.852 116.465 196.778Z" fill="#0E6E37"/>
<rect y="75.7793" width="232.821" height="26.938" rx="13.469" fill="#0E6E37"/>
<path d="M40.3495 55.1839C40.3495 49.9631 42.2987 44.7934 46.0858 39.9699C49.873 35.1465 55.4238 30.7639 62.4215 27.0722C69.4192 23.3805 77.7266 20.4521 86.8695 18.4541C96.0125 16.4562 105.812 15.4279 115.708 15.4279C125.604 15.4279 135.403 16.4562 144.546 18.4541C153.689 20.4521 161.997 23.3805 168.994 27.0722C175.992 30.7639 181.543 35.1465 185.33 39.9699C189.117 44.7934 191.066 49.9631 191.066 55.1839L115.708 55.1839L40.3495 55.1839Z" fill="#5BD75A"/>
<path d="M88.8269 7.67999C87.7069 3.83999 90.5869 0 94.5869 0H136.627C140.53 0 143.394 3.66833 142.447 7.45521L139.675 18.5449C139.007 21.2159 136.607 23.0897 133.854 23.0897H97.8214C95.1547 23.0897 92.8081 21.3297 92.0614 18.7697L88.8269 7.67999Z" fill="#5BD75A"/>
</svg>
