<svg width="238" height="46" viewBox="0 0 238 46" fill="none" xmlns="http://www.w3.org/2000/svg">
<path d="M49.4244 23.7594C49.4244 26.6801 48.8491 29.5723 47.7314 32.2706C46.6137 34.969 44.9754 37.4208 42.9102 39.4861C40.8449 41.5514 38.3931 43.1896 35.6947 44.3073C32.9963 45.425 30.1042 46.0003 27.1835 46.0003C24.2628 46.0003 21.3707 45.425 18.6723 44.3073C15.9739 43.1896 13.5221 41.5514 11.4568 39.4861C9.39157 37.4208 7.75332 34.969 6.63561 32.2706C5.5179 29.5723 4.94263 26.6801 4.94263 23.7594L27.1835 23.7594H49.4244Z" fill="#0E6E37"/>
<path fill-rule="evenodd" clip-rule="evenodd" d="M49.4245 23.7598C49.4245 26.6805 48.8492 29.5726 47.7315 32.271C46.6138 34.9694 44.9756 37.4212 42.9103 39.4864C40.845 41.5517 38.3932 43.1899 35.6948 44.3077C34.1832 44.9338 32.6107 45.3897 31.0065 45.6696C30.4206 45.1737 29.889 44.7169 29.4051 44.2936C29.8493 43.8832 30.2546 43.5414 30.6439 43.2421C31.4715 42.6077 32.5067 42.3066 33.5455 42.3975C35.4556 42.5621 37.7113 41.6897 39.4966 39.9044C42.2351 37.1659 42.8286 33.3194 40.8221 31.313C38.8157 29.3069 34.9692 29.9003 32.2307 32.6385C30.4455 34.4238 29.573 36.6796 29.7376 38.5896C29.8285 39.6284 29.5271 40.6636 28.8927 41.4912C28.5505 41.9334 28.1877 42.3593 27.8057 42.7677C27.5219 42.4227 27.2546 42.0645 27.0048 41.6941C26.8647 41.4785 26.7735 41.2348 26.7374 40.9802C26.7013 40.7256 26.7213 40.4662 26.7959 40.2201C27.0001 39.5039 27.0092 38.7461 26.8221 38.0252C26.635 37.3043 26.2587 36.6465 25.732 36.1199C23.8051 34.1937 20.6243 31.292 19.5013 30.2739C19.3912 30.1742 19.247 30.1207 19.0985 30.1246C18.95 30.1285 18.8088 30.1895 18.704 30.2948L18.684 30.3146C18.5754 30.4232 18.5144 30.5705 18.5144 30.7241C18.5144 30.8777 18.5754 31.0251 18.684 31.1337L24.2912 36.7409C24.3508 36.8005 24.3967 36.8724 24.4257 36.9516C24.4547 37.0308 24.466 37.1154 24.459 37.1994C24.4519 37.2835 24.4266 37.365 24.3848 37.4382C24.343 37.5114 24.2857 37.5747 24.2169 37.6235C23.9745 37.7845 23.6513 37.7489 23.4499 37.5385L17.8651 31.9529C17.8055 31.8932 17.7336 31.8473 17.6544 31.8184C17.5752 31.7894 17.4906 31.778 17.4066 31.7851C17.3226 31.7922 17.2411 31.8175 17.1678 31.8593C17.0946 31.9011 17.0314 31.9583 16.9825 32.0271C16.8215 32.2695 16.8574 32.5928 17.0675 32.7939L22.6529 38.3795C22.7125 38.4391 22.7584 38.5111 22.7874 38.5903C22.8164 38.6694 22.8277 38.754 22.8206 38.838C22.8136 38.9221 22.7883 39.0036 22.7465 39.0768C22.7047 39.15 22.6474 39.2133 22.5786 39.2621C22.3362 39.4231 22.013 39.3872 21.8119 39.1768L16.2265 33.5915C16.1669 33.5319 16.095 33.4861 16.0158 33.4572C15.9366 33.4282 15.8521 33.4169 15.7681 33.424C15.6841 33.4311 15.6026 33.4564 15.5294 33.4982C15.4562 33.54 15.393 33.5973 15.3442 33.666C15.1829 33.9084 15.2188 34.2317 15.4292 34.4328L21.0146 40.0181C21.0741 40.0778 21.12 40.1497 21.1489 40.2289C21.1778 40.308 21.1891 40.3926 21.182 40.4766C21.1749 40.5606 21.1496 40.642 21.1078 40.7152C21.066 40.7884 21.0088 40.8516 20.94 40.9004C20.6976 41.0617 20.3744 41.0258 20.1733 40.8154L14.5879 35.2301C14.4793 35.1215 14.3319 35.0605 14.1783 35.0605C14.0247 35.0605 13.8774 35.1215 13.7688 35.2301L13.7487 35.2501C13.6435 35.3549 13.5827 35.4961 13.5788 35.6445C13.575 35.7929 13.6284 35.9371 13.7281 36.0472C14.7465 37.1698 17.6481 40.3509 19.5744 42.2775C20.101 42.8042 20.7588 43.1805 21.4797 43.3676C22.2006 43.5547 22.9584 43.5456 23.6746 43.3414C23.9207 43.2668 24.1801 43.2468 24.4347 43.2829C24.6894 43.3189 24.933 43.4102 25.1486 43.5503C25.5184 43.7999 25.8762 44.0669 26.2207 44.3503C25.7397 44.8028 25.1945 45.2974 24.571 45.8467C22.5476 45.6073 20.5625 45.0905 18.6724 44.3077C15.974 43.1899 13.5222 41.5517 11.4569 39.4864C9.39169 37.4212 7.75344 34.9694 6.63573 32.271C5.51803 29.5726 4.94275 26.6805 4.94275 23.7598L27.1836 23.7598H49.4245ZM27.7501 45.9509C27.7365 45.9654 27.7229 45.9799 27.7093 45.9944C27.735 45.9938 27.7607 45.9932 27.7864 45.9925C27.7743 45.9786 27.7622 45.9647 27.7501 45.9509Z" fill="white"/>
<rect y="17.6934" width="54.3666" height="6.29035" rx="3.14517" fill="white"/>
<path d="M9.42176 12.8864C9.42176 11.6673 9.87692 10.4601 10.7613 9.33377C11.6456 8.20744 12.9418 7.18403 14.5758 6.32198C16.2099 5.45992 18.1498 4.7761 20.2847 4.30956C22.4197 3.84303 24.708 3.6029 27.0189 3.6029C29.3297 3.6029 31.618 3.84303 33.753 4.30956C35.888 4.77611 37.8279 5.45992 39.4619 6.32198C41.0959 7.18403 42.3921 8.20744 43.2765 9.33377C44.1608 10.4601 44.616 11.6673 44.616 12.8864L27.0189 12.8864L9.42176 12.8864Z" fill="#5BD75A"/>
<path d="M20.7916 1.96275C20.5054 0.981374 21.2414 0 22.2636 0H31.7345C32.7321 0 33.4641 0.937501 33.2221 1.9053L32.6409 4.23023C32.4702 4.91285 31.8569 5.39173 31.1533 5.39173H22.9418C22.2602 5.39173 21.6605 4.94193 21.4697 4.28768L20.7916 1.96275Z" fill="#5BD75A"/>
<path d="M64.3825 30.2627C64.4955 30.2627 64.6085 30.1497 64.7215 29.9237C64.8344 29.6978 64.8909 29.3265 64.8909 28.81V17.1885C64.8909 16.672 64.8344 16.3088 64.7215 16.099C64.6085 15.873 64.4955 15.7519 64.3825 15.7358H68.8616C68.8293 15.7358 68.8455 15.8488 68.9101 16.0747C68.9746 16.3007 69.128 16.6881 69.3701 17.2369C69.4669 17.4467 69.6364 17.818 69.8785 18.3506C70.1368 18.8833 70.4435 19.5209 70.7986 20.2633C71.1537 20.9897 71.533 21.7725 71.9365 22.6119C72.34 23.4512 72.7516 24.3067 73.1713 25.1783C73.5909 26.0338 73.9864 26.8408 74.3576 27.5994H74.3819C74.7692 26.8247 75.1728 26.0095 75.5924 25.1541C76.0121 24.2825 76.4318 23.4189 76.8514 22.5634C77.2711 21.708 77.6585 20.917 78.0136 20.1907C78.3687 19.4482 78.6673 18.8187 78.9094 18.3022C79.1677 17.7696 79.3452 17.3983 79.4421 17.1885C79.668 16.672 79.8133 16.3007 79.8779 16.0747C79.9586 15.8488 79.9828 15.7358 79.9505 15.7358H84.4054C84.2924 15.7358 84.1795 15.8488 84.0665 16.0747C83.9535 16.3007 83.897 16.68 83.897 17.2127V28.81C83.897 29.3265 83.9535 29.6978 84.0665 29.9237C84.1795 30.1497 84.2924 30.2627 84.4054 30.2627H80.7011C80.8141 30.2627 80.919 30.1497 81.0158 29.9237C81.1288 29.6978 81.1853 29.3265 81.1853 28.81V18.7864H81.1369C80.7979 19.4644 80.4347 20.1907 80.0474 20.9655C79.6761 21.7402 79.2968 22.5231 78.9094 23.314C78.522 24.0888 78.1589 24.8393 77.8199 25.5657C77.4809 26.2759 77.1743 26.9134 76.8999 27.4784C76.6416 28.0433 76.4398 28.4872 76.2946 28.81C76.0686 29.3104 75.9475 29.6735 75.9314 29.8995C75.9314 30.1255 75.9717 30.2466 76.0525 30.2627H72.6628C72.7435 30.2627 72.7839 30.1578 72.7839 29.9479C72.7839 29.722 72.6628 29.3427 72.4207 28.81C72.3077 28.5356 72.1221 28.1321 71.8639 27.5994C71.6056 27.0668 71.307 26.4453 70.968 25.7351C70.6452 25.0088 70.2901 24.2502 69.9027 23.4593C69.5153 22.6522 69.128 21.8452 68.7406 21.0381C68.3693 20.2311 68.0142 19.4805 67.6753 18.7864H67.6026V28.81C67.6026 29.3265 67.6591 29.6978 67.7721 29.9237C67.8851 30.1497 67.9981 30.2627 68.1111 30.2627H64.3825ZM86.9783 30.2627C87.0913 30.2627 87.1962 30.1497 87.293 29.9237C87.406 29.6978 87.4625 29.3265 87.4625 28.81V20.3844C87.4625 19.8679 87.406 19.5047 87.293 19.2949C87.1962 19.0689 87.0913 18.9478 86.9783 18.9317H89.9321V28.81C89.9321 29.3265 89.9805 29.6978 90.0773 29.9237C90.1903 30.1497 90.3033 30.2627 90.4163 30.2627H86.9783ZM88.4552 16.6074C87.9871 16.6074 87.6239 16.4783 87.3657 16.22C87.1074 15.9456 86.9783 15.6309 86.9783 15.2758C86.9783 14.9045 87.0993 14.5898 87.3414 14.3315C87.5997 14.0733 87.9709 13.9441 88.4552 13.9441C88.9394 13.9441 89.3026 14.0733 89.5447 14.3315C89.803 14.5898 89.9321 14.9045 89.9321 15.2758C89.9321 15.6309 89.803 15.9456 89.5447 16.22C89.2864 16.4783 88.9233 16.6074 88.4552 16.6074ZM97.2086 30.5048C96.0949 30.5048 95.2878 30.2708 94.7874 29.8027C94.2871 29.3184 94.0369 28.5356 94.0369 27.4542V20.6265H91.8578V18.9317C92.6003 18.9317 93.1814 18.8429 93.6011 18.6654C94.0207 18.4717 94.3193 18.1408 94.4969 17.6727C94.6744 17.2046 94.7632 16.5509 94.7632 15.7116H96.5065V18.9317H101.131C101.018 19.0931 100.905 19.3352 100.792 19.6581C100.695 19.9647 100.647 20.2876 100.647 20.6265H96.5065V27.091C96.5065 27.8335 96.6437 28.3016 96.918 28.4953C97.1924 28.6889 97.5395 28.7858 97.9591 28.7858C98.3627 28.7858 98.7339 28.7051 99.0729 28.5437C99.428 28.3661 99.7347 28.1563 99.9929 27.9142C100.267 27.6721 100.477 27.438 100.622 27.212V27.9626L100.865 29.3427C100.703 29.5041 100.453 29.6816 100.114 29.8753C99.775 30.0529 99.3634 30.1981 98.8792 30.3111C98.395 30.4402 97.8381 30.5048 97.2086 30.5048ZM107.21 30.5048C106.096 30.5048 105.289 30.2708 104.789 29.8027C104.288 29.3184 104.038 28.5356 104.038 27.4542V20.6265H101.859V18.9317C102.602 18.9317 103.183 18.8429 103.603 18.6654C104.022 18.4717 104.321 18.1408 104.498 17.6727C104.676 17.2046 104.765 16.5509 104.765 15.7116H106.508V18.9317H111.132C111.019 19.0931 110.906 19.3352 110.793 19.6581C110.696 19.9647 110.648 20.2876 110.648 20.6265H106.508V27.091C106.508 27.8335 106.645 28.3016 106.919 28.4953C107.194 28.6889 107.541 28.7858 107.961 28.7858C108.364 28.7858 108.735 28.7051 109.074 28.5437C109.429 28.3661 109.736 28.1563 109.994 27.9142C110.269 27.6721 110.479 27.438 110.624 27.212V27.9626L110.866 29.3427C110.705 29.5041 110.454 29.6816 110.115 29.8753C109.776 30.0529 109.365 30.1981 108.881 30.3111C108.396 30.4402 107.84 30.5048 107.21 30.5048ZM117.115 30.5048C115.355 30.5048 114.12 30.1901 113.41 29.5606C112.7 28.9149 112.345 28.0514 112.345 26.9699C112.345 26.2113 112.531 25.5657 112.902 25.033C113.289 24.4842 113.862 24.0645 114.621 23.774C115.396 23.4835 116.372 23.3382 117.55 23.3382C118.39 23.3382 119.116 23.4028 119.729 23.5319C120.359 23.6449 120.867 23.7821 121.255 23.9435C121.658 24.1049 121.941 24.2421 122.102 24.3551C122.102 23.4028 121.981 22.6361 121.739 22.055C121.513 21.4739 121.142 21.0542 120.625 20.796C120.109 20.5216 119.407 20.3844 118.519 20.3844C117.567 20.3844 116.711 20.4974 115.952 20.7234C115.21 20.9332 114.613 21.1672 114.161 21.4255C113.709 21.6676 113.426 21.8452 113.313 21.9581V21.4739L113.071 19.6581C113.217 19.5935 113.531 19.4886 114.016 19.3433C114.5 19.1819 115.137 19.0366 115.928 18.9075C116.719 18.7622 117.647 18.6896 118.713 18.6896C120.068 18.6896 121.174 18.8833 122.03 19.2707C122.901 19.6419 123.539 20.223 123.942 21.0139C124.362 21.7887 124.572 22.7733 124.572 23.9677V28.81C124.572 29.262 124.62 29.5928 124.717 29.8027C124.83 29.9964 124.943 30.1497 125.056 30.2627H122.102V29.5363L122.151 29.0763L122.102 29.0521C121.844 29.2942 121.537 29.5041 121.182 29.6816C120.827 29.8592 120.44 30.0125 120.02 30.1416C119.6 30.2546 119.14 30.3434 118.64 30.408C118.156 30.4725 117.647 30.5048 117.115 30.5048ZM117.914 28.7858C118.785 28.7858 119.536 28.697 120.165 28.5195C120.795 28.3419 121.271 28.1079 121.594 27.8173C121.933 27.5107 122.102 27.1636 122.102 26.7762C122.102 26.292 121.779 25.8804 121.134 25.5414C120.504 25.2025 119.52 25.033 118.18 25.033C116.937 25.033 116.057 25.1944 115.541 25.5172C115.04 25.8401 114.79 26.3243 114.79 26.9699C114.79 27.5994 115.032 28.0594 115.517 28.35C116.017 28.6405 116.816 28.7858 117.914 28.7858ZM133.057 36.1703C132.121 36.1703 131.257 36.1057 130.467 35.9766C129.692 35.8475 129.014 35.6861 128.433 35.4924C127.868 35.3148 127.432 35.1373 127.125 34.9597L127.61 32.7807V32.0786C127.836 32.4175 128.191 32.7726 128.675 33.1439C129.159 33.5151 129.764 33.8299 130.491 34.0881C131.217 34.3464 132.04 34.4755 132.96 34.4755C134.042 34.4755 134.841 34.2979 135.357 33.9428C135.89 33.5877 136.237 33.0954 136.398 32.4659C136.576 31.8364 136.665 31.1182 136.665 30.3111V29.4153L136.713 28.9795L136.665 28.9311C136.455 29.2055 136.164 29.4637 135.793 29.7058C135.422 29.9479 134.978 30.1416 134.461 30.2869C133.945 30.4322 133.364 30.5048 132.718 30.5048C131.185 30.5048 129.99 30.2466 129.135 29.73C128.296 29.2135 127.706 28.5114 127.367 27.6236C127.045 26.7359 126.883 25.7351 126.883 24.6214C126.883 23.4915 127.045 22.4827 127.367 21.595C127.706 20.7072 128.296 20.0051 129.135 19.4886C129.99 18.9559 131.185 18.6896 132.718 18.6896C133.364 18.6896 133.937 18.7542 134.437 18.8833C134.938 18.9963 135.373 19.1577 135.745 19.3675C136.116 19.5612 136.423 19.7952 136.665 20.0696L136.713 20.0454L136.665 19.5854V18.9317H139.618C139.505 18.9478 139.392 19.0689 139.28 19.2949C139.183 19.5209 139.134 19.9002 139.134 20.4328V29.7058C139.134 32.0463 138.634 33.7088 137.633 34.6934C136.649 35.678 135.123 36.1703 133.057 36.1703ZM132.888 28.7858C133.888 28.7858 134.663 28.6325 135.212 28.3258C135.761 28.003 136.14 27.5349 136.35 26.9215C136.56 26.292 136.665 25.5253 136.665 24.6214C136.665 23.7337 136.552 22.975 136.326 22.3455C136.116 21.716 135.737 21.2318 135.188 20.8928C134.655 20.5539 133.888 20.3844 132.888 20.3844C131.984 20.3844 131.274 20.5619 130.757 20.9171C130.241 21.256 129.869 21.7483 129.643 22.394C129.433 23.0235 129.329 23.774 129.329 24.6456C129.329 25.5011 129.433 26.2436 129.643 26.8731C129.853 27.4864 130.216 27.9626 130.733 28.3016C131.265 28.6244 131.984 28.7858 132.888 28.7858ZM148.106 30.2627C148.219 30.2627 148.332 30.1497 148.445 29.9237C148.558 29.6978 148.615 29.3265 148.615 28.81V17.1885C148.615 16.672 148.558 16.3088 148.445 16.099C148.332 15.873 148.219 15.7519 148.106 15.7358H155.709C157.145 15.7358 158.34 15.873 159.292 16.1474C160.26 16.4218 161.035 16.8011 161.616 17.2853C162.213 17.7696 162.665 18.3264 162.972 18.9559C163.279 19.5693 163.48 20.223 163.577 20.9171C163.69 21.6111 163.747 22.3132 163.747 23.0235C163.747 23.6691 163.69 24.3389 163.577 25.033C163.48 25.7109 163.271 26.3646 162.948 26.9941C162.641 27.6075 162.189 28.1644 161.592 28.6647C161.011 29.149 160.236 29.5363 159.268 29.8269C158.315 30.1174 157.129 30.2627 155.709 30.2627H148.106ZM152.295 28.3016H155.273C156.661 28.3016 157.775 28.124 158.614 27.7689C159.453 27.4138 160.067 26.865 160.454 26.1225C160.841 25.3639 161.035 24.3874 161.035 23.1929V22.7571C161.035 21.4981 160.858 20.5055 160.502 19.7791C160.147 19.0366 159.55 18.512 158.711 18.2054C157.871 17.8825 156.725 17.7211 155.273 17.7211H152.295C151.827 17.7211 151.544 17.7534 151.447 17.818C151.367 17.8664 151.326 18.0601 151.326 18.3991V27.5752C151.326 27.9303 151.367 28.1402 151.447 28.2047C151.544 28.2693 151.827 28.3016 152.295 28.3016ZM170.574 30.5048C168.814 30.5048 167.58 30.1901 166.869 29.5606C166.159 28.9149 165.804 28.0514 165.804 26.9699C165.804 26.2113 165.99 25.5657 166.361 25.033C166.748 24.4842 167.321 24.0645 168.08 23.774C168.855 23.4835 169.831 23.3382 171.01 23.3382C171.849 23.3382 172.575 23.4028 173.189 23.5319C173.818 23.6449 174.327 23.7821 174.714 23.9435C175.118 24.1049 175.4 24.2421 175.561 24.3551C175.561 23.4028 175.44 22.6361 175.198 22.055C174.972 21.4739 174.601 21.0542 174.085 20.796C173.568 20.5216 172.866 20.3844 171.978 20.3844C171.026 20.3844 170.17 20.4974 169.412 20.7234C168.669 20.9332 168.072 21.1672 167.62 21.4255C167.168 21.6676 166.886 21.8452 166.773 21.9581V21.4739L166.531 19.6581C166.676 19.5935 166.991 19.4886 167.475 19.3433C167.959 19.1819 168.597 19.0366 169.387 18.9075C170.178 18.7622 171.106 18.6896 172.172 18.6896C173.528 18.6896 174.633 18.8833 175.489 19.2707C176.36 19.6419 176.998 20.223 177.401 21.0139C177.821 21.7887 178.031 22.7733 178.031 23.9677V28.81C178.031 29.262 178.079 29.5928 178.176 29.8027C178.289 29.9964 178.402 30.1497 178.515 30.2627H175.561V29.5363L175.61 29.0763L175.561 29.0521C175.303 29.2942 174.996 29.5041 174.641 29.6816C174.286 29.8592 173.899 30.0125 173.479 30.1416C173.06 30.2546 172.6 30.3434 172.099 30.408C171.615 30.4725 171.106 30.5048 170.574 30.5048ZM171.373 28.7858C172.244 28.7858 172.995 28.697 173.624 28.5195C174.254 28.3419 174.73 28.1079 175.053 27.8173C175.392 27.5107 175.561 27.1636 175.561 26.7762C175.561 26.292 175.239 25.8804 174.593 25.5414C173.963 25.2025 172.979 25.033 171.639 25.033C170.396 25.033 169.517 25.1944 169 25.5172C168.5 25.8401 168.25 26.3243 168.25 26.9699C168.25 27.5994 168.492 28.0594 168.976 28.35C169.476 28.6405 170.275 28.7858 171.373 28.7858ZM187.34 30.5048C186.452 30.5048 185.701 30.3999 185.088 30.1901C184.491 29.9802 183.982 29.6897 183.563 29.3184L183.514 29.3427L183.563 29.8027V30.2627H180.609C180.722 30.2627 180.827 30.1497 180.923 29.9237C181.036 29.6978 181.093 29.3265 181.093 28.81V15.0094C181.093 14.4929 181.036 14.1298 180.923 13.9199C180.827 13.6939 180.722 13.5729 180.609 13.5567H183.563V19.4159L183.514 19.876L183.563 19.9244C183.772 19.7145 184.055 19.5209 184.41 19.3433C184.781 19.1496 185.217 18.9963 185.717 18.8833C186.218 18.7542 186.758 18.6896 187.34 18.6896C188.841 18.6896 190.027 18.9559 190.899 19.4886C191.77 20.0051 192.392 20.7072 192.763 21.595C193.15 22.4827 193.344 23.4915 193.344 24.6214C193.344 25.7351 193.158 26.7359 192.787 27.6236C192.416 28.5114 191.794 29.2135 190.923 29.73C190.051 30.2466 188.857 30.5048 187.34 30.5048ZM187.097 28.7858C188.098 28.7858 188.873 28.6244 189.422 28.3016C189.971 27.9787 190.35 27.5107 190.56 26.8973C190.77 26.2678 190.874 25.5092 190.874 24.6214C190.874 23.7337 190.761 22.975 190.535 22.3455C190.326 21.716 189.946 21.2318 189.398 20.8928C188.865 20.5539 188.098 20.3844 187.097 20.3844C186.129 20.3844 185.386 20.5781 184.87 20.9655C184.37 21.3367 184.023 21.8452 183.829 22.4908C183.651 23.1364 183.563 23.8466 183.563 24.6214C183.563 25.8966 183.813 26.9134 184.313 27.6721C184.813 28.4145 185.742 28.7858 187.097 28.7858ZM202.046 30.5048C201.158 30.5048 200.408 30.3999 199.794 30.1901C199.197 29.9802 198.689 29.6897 198.269 29.3184L198.221 29.3427L198.269 29.8027V30.2627H195.315C195.428 30.2627 195.533 30.1497 195.63 29.9237C195.743 29.6978 195.8 29.3265 195.8 28.81V15.0094C195.8 14.4929 195.743 14.1298 195.63 13.9199C195.533 13.6939 195.428 13.5729 195.315 13.5567H198.269V19.4159L198.221 19.876L198.269 19.9244C198.479 19.7145 198.761 19.5209 199.117 19.3433C199.488 19.1496 199.924 18.9963 200.424 18.8833C200.924 18.7542 201.465 18.6896 202.046 18.6896C203.547 18.6896 204.734 18.9559 205.605 19.4886C206.477 20.0051 207.098 20.7072 207.47 21.595C207.857 22.4827 208.051 23.4915 208.051 24.6214C208.051 25.7351 207.865 26.7359 207.494 27.6236C207.122 28.5114 206.501 29.2135 205.629 29.73C204.758 30.2466 203.563 30.5048 202.046 30.5048ZM201.804 28.7858C202.805 28.7858 203.58 28.6244 204.128 28.3016C204.677 27.9787 205.056 27.5107 205.266 26.8973C205.476 26.2678 205.581 25.5092 205.581 24.6214C205.581 23.7337 205.468 22.975 205.242 22.3455C205.032 21.716 204.653 21.2318 204.104 20.8928C203.571 20.5539 202.805 20.3844 201.804 20.3844C200.836 20.3844 200.093 20.5781 199.577 20.9655C199.076 21.3367 198.729 21.8452 198.535 22.4908C198.358 23.1364 198.269 23.8466 198.269 24.6214C198.269 25.8966 198.519 26.9134 199.02 27.6721C199.52 28.4145 200.448 28.7858 201.804 28.7858ZM214.646 30.5048C212.887 30.5048 211.652 30.1901 210.942 29.5606C210.232 28.9149 209.877 28.0514 209.877 26.9699C209.877 26.2113 210.062 25.5657 210.434 25.033C210.821 24.4842 211.394 24.0645 212.153 23.774C212.927 23.4835 213.904 23.3382 215.082 23.3382C215.921 23.3382 216.648 23.4028 217.261 23.5319C217.891 23.6449 218.399 23.7821 218.787 23.9435C219.19 24.1049 219.473 24.2421 219.634 24.3551C219.634 23.4028 219.513 22.6361 219.271 22.055C219.045 21.4739 218.674 21.0542 218.157 20.796C217.641 20.5216 216.938 20.3844 216.051 20.3844C215.098 20.3844 214.243 20.4974 213.484 20.7234C212.742 20.9332 212.144 21.1672 211.693 21.4255C211.241 21.6676 210.958 21.8452 210.845 21.9581V21.4739L210.603 19.6581C210.748 19.5935 211.063 19.4886 211.547 19.3433C212.032 19.1819 212.669 19.0366 213.46 18.9075C214.251 18.7622 215.179 18.6896 216.244 18.6896C217.6 18.6896 218.706 18.8833 219.561 19.2707C220.433 19.6419 221.07 20.223 221.474 21.0139C221.894 21.7887 222.103 22.7733 222.103 23.9677V28.81C222.103 29.262 222.152 29.5928 222.249 29.8027C222.362 29.9964 222.475 30.1497 222.588 30.2627H219.634V29.5363L219.682 29.0763L219.634 29.0521C219.376 29.2942 219.069 29.5041 218.714 29.6816C218.359 29.8592 217.971 30.0125 217.552 30.1416C217.132 30.2546 216.672 30.3434 216.172 30.408C215.687 30.4725 215.179 30.5048 214.646 30.5048ZM215.445 28.7858C216.317 28.7858 217.067 28.697 217.697 28.5195C218.326 28.3419 218.803 28.1079 219.125 27.8173C219.464 27.5107 219.634 27.1636 219.634 26.7762C219.634 26.292 219.311 25.8804 218.665 25.5414C218.036 25.2025 217.051 25.033 215.712 25.033C214.469 25.033 213.589 25.1944 213.073 25.5172C212.572 25.8401 212.322 26.3243 212.322 26.9699C212.322 27.5994 212.564 28.0594 213.048 28.35C213.549 28.6405 214.348 28.7858 215.445 28.7858ZM230.952 30.5048C229.435 30.5048 228.16 30.4241 227.127 30.2627C226.11 30.1013 225.416 29.9399 225.044 29.7785V29.2942L224.536 27.212C224.956 27.551 225.69 27.9061 226.739 28.2774C227.805 28.6325 229.096 28.81 230.613 28.81C231.614 28.81 232.364 28.7454 232.865 28.6163C233.365 28.471 233.696 28.2854 233.857 28.0594C234.019 27.8173 234.1 27.551 234.1 27.2605C234.1 26.9215 233.978 26.6552 233.736 26.4615C233.51 26.2517 233.075 26.0822 232.429 25.953C231.799 25.8078 230.863 25.6625 229.62 25.5172C228.265 25.3558 227.215 25.1218 226.473 24.8151C225.747 24.5084 225.246 24.121 224.972 23.653C224.697 23.1687 224.56 22.5957 224.56 21.9339C224.56 21.4174 224.697 20.909 224.972 20.4086C225.246 19.9082 225.755 19.4966 226.497 19.1738C227.256 18.851 228.329 18.6896 229.717 18.6896C231.218 18.6896 232.477 18.7703 233.494 18.9317C234.527 19.0931 235.229 19.2545 235.601 19.4159V19.9002L236.085 21.7402C235.681 21.4497 234.947 21.1511 233.882 20.8444C232.816 20.5377 231.533 20.3844 230.032 20.3844C228.838 20.3844 228.039 20.5216 227.635 20.796C227.232 21.0542 227.03 21.3932 227.03 21.8129C227.03 22.055 227.078 22.2729 227.175 22.4666C227.272 22.6441 227.466 22.8055 227.756 22.9508C228.063 23.0961 228.515 23.2252 229.112 23.3382C229.725 23.4512 230.54 23.5642 231.557 23.6772C232.929 23.8224 233.97 24.0484 234.681 24.3551C235.391 24.6618 235.875 25.0491 236.133 25.5172C236.408 25.9692 236.545 26.5018 236.545 27.1152C236.545 27.777 236.359 28.3661 235.988 28.8826C235.633 29.383 235.044 29.7785 234.221 30.069C233.397 30.3595 232.308 30.5048 230.952 30.5048Z" fill="white"/>
</svg>
