<svg width="678" height="120" viewBox="0 0 678 120" fill="none" xmlns="http://www.w3.org/2000/svg">
<path d="M128.927 61.9822C128.927 69.6011 127.427 77.1454 124.511 84.1844C121.595 91.2234 117.322 97.6192 111.934 103.007C106.547 108.394 100.151 112.668 93.1122 115.583C86.0732 118.499 78.5288 119.999 70.9099 119.999C63.2909 119.999 55.7466 118.499 48.7076 115.583C41.6686 112.668 35.2729 108.394 29.8855 103.007C24.498 97.6192 20.2245 91.2234 17.3089 84.1844C14.3932 77.1454 12.8926 69.6011 12.8926 61.9822L70.9099 61.9822H128.927Z" fill="white"/>
<path fill-rule="evenodd" clip-rule="evenodd" d="M128.927 61.9824C128.927 69.6014 127.427 77.1457 124.511 84.1847C121.595 91.2237 117.322 97.6195 111.934 103.007C106.547 108.394 100.151 112.668 93.1122 115.583C89.1708 117.216 85.0711 118.405 80.8885 119.135C79.3581 117.84 77.9697 116.647 76.706 115.541C77.8651 114.47 78.9227 113.578 79.9386 112.797C82.0975 111.142 84.7979 110.357 87.5077 110.594C92.4903 111.023 98.3746 108.748 103.032 104.091C110.175 96.947 111.723 86.9131 106.489 81.6791C101.255 76.446 91.2216 77.9941 84.078 85.137C79.421 89.794 77.1452 95.6783 77.5746 100.661C77.8116 103.371 77.0253 106.071 75.3706 108.23C74.4777 109.383 73.5315 110.495 72.535 111.56C71.7947 110.66 71.0975 109.725 70.4458 108.759C70.0804 108.197 69.8423 107.561 69.7481 106.897C69.654 106.233 69.7061 105.556 69.9008 104.914C70.4335 103.046 70.4571 101.069 69.9691 99.1885C69.4811 97.3079 68.4993 95.592 67.1254 94.2183C62.0991 89.1936 53.8016 81.6245 50.8723 78.9685C50.5851 78.7084 50.2087 78.569 49.8214 78.5792C49.4341 78.5894 49.0656 78.7484 48.7924 79.0231L48.7401 79.0747C48.4569 79.3581 48.2978 79.7424 48.2978 80.1431C48.2978 80.5438 48.4569 80.9281 48.7401 81.2115L63.367 95.8383C63.5225 95.9939 63.6423 96.1815 63.7179 96.3881C63.7935 96.5947 63.8231 96.8153 63.8047 97.0345C63.7862 97.2537 63.7202 97.4662 63.6111 97.6573C63.5021 97.8483 63.3527 98.0133 63.1734 98.1407C62.541 98.5607 61.6978 98.4678 61.1724 97.919L46.6041 83.3483C46.4485 83.1928 46.2609 83.073 46.0543 82.9974C45.8478 82.9218 45.6272 82.8922 45.408 82.9107C45.1887 82.9291 44.9762 82.9951 44.7851 83.1042C44.5941 83.2132 44.4291 83.3626 44.3017 83.542C43.8817 84.1743 43.9754 85.0175 44.5234 85.5422L59.0933 100.113C59.2489 100.268 59.3686 100.456 59.4442 100.663C59.5198 100.869 59.5494 101.09 59.531 101.309C59.5125 101.528 59.4465 101.741 59.3375 101.932C59.2284 102.123 59.079 102.288 58.8997 102.415C58.2673 102.835 57.4241 102.741 56.8995 102.193L42.3296 87.6228C42.174 87.4674 41.9864 87.3478 41.7799 87.2724C41.5733 87.1969 41.3528 87.1674 41.1337 87.1859C40.9146 87.2044 40.7022 87.2705 40.5112 87.3795C40.3203 87.4886 40.1554 87.6379 40.028 87.8172C39.6072 88.4496 39.7009 89.2928 40.2498 89.8174L54.8196 104.387C54.975 104.543 55.0946 104.73 55.17 104.937C55.2455 105.144 55.275 105.364 55.2565 105.583C55.238 105.802 55.1719 106.015 55.0629 106.206C54.9539 106.397 54.8045 106.562 54.6252 106.689C53.9928 107.11 53.1497 107.016 52.625 106.467L38.0552 91.8972C37.7717 91.614 37.3874 91.4549 36.9867 91.4549C36.586 91.4549 36.2017 91.614 35.9183 91.8972L35.866 91.9496C35.5916 92.2228 35.4329 92.5912 35.4229 92.9783C35.4128 93.3654 35.5522 93.7415 35.8121 94.0286C38.4689 96.9571 46.0381 105.255 51.0628 110.281C52.4364 111.655 54.1524 112.637 56.0329 113.125C57.9135 113.613 59.8903 113.589 61.7587 113.056C62.4006 112.862 63.0773 112.809 63.7415 112.904C64.4057 112.998 65.0412 113.236 65.6037 113.601C66.5684 114.252 67.5016 114.949 68.4003 115.688C67.1438 116.87 65.7194 118.162 64.09 119.598C58.8134 118.973 53.6366 117.625 48.7076 115.583C41.6686 112.668 35.2729 108.394 29.8855 103.007C24.498 97.6194 20.2245 91.2237 17.3089 84.1847C14.3932 77.1457 12.8926 69.6014 12.8926 61.9824L70.9099 61.9824H128.927ZM72.389 119.864C72.3518 119.904 72.3146 119.944 72.2772 119.984C72.3477 119.982 72.4181 119.98 72.4884 119.978C72.4552 119.94 72.422 119.902 72.389 119.864Z" fill="#0E6E37"/>
<rect y="46.1592" width="141.82" height="16.4089" rx="8.20447" fill="#0E6E37"/>
<path d="M24.578 33.6142C24.578 30.434 25.7654 27.2849 28.0722 24.3468C30.3791 21.4087 33.7603 18.739 38.0229 16.4903C42.2854 14.2415 47.3458 12.4577 52.9151 11.2407C58.4844 10.0237 64.4535 9.39732 70.4816 9.39732C76.5098 9.39732 82.4789 10.0237 88.0482 11.2407C93.6175 12.4577 98.6779 14.2415 102.94 16.4903C107.203 18.739 110.584 21.4087 112.891 24.3468C115.198 27.2849 116.385 30.434 116.385 33.6142L70.4816 33.6142L24.578 33.6142Z" fill="#5BD75A"/>
<path d="M54.236 5.12C53.4893 2.56 55.4093 0 58.076 0H82.7816C85.3839 0 87.2933 2.44556 86.6622 4.97014L85.146 11.0349C84.7008 12.8156 83.1009 14.0648 81.2654 14.0648H59.8449C58.0671 14.0648 56.5027 12.8915 56.0049 11.1848L54.236 5.12Z" fill="#5BD75A"/>
<path d="M165.32 91.0003C165.656 91.0003 165.992 90.6643 166.328 89.9923C166.664 89.3203 166.832 88.2163 166.832 86.6803V52.1203C166.832 50.5843 166.664 49.5043 166.328 48.8803C165.992 48.2083 165.656 47.8483 165.32 47.8003H178.64C178.544 47.8003 178.592 48.1363 178.784 48.8083C178.976 49.4803 179.432 50.6323 180.152 52.2643C180.44 52.8883 180.944 53.9923 181.664 55.5763C182.432 57.1603 183.344 59.0563 184.4 61.2643C185.456 63.4243 186.584 65.7523 187.784 68.2483C188.984 70.7443 190.208 73.2883 191.456 75.8803C192.704 78.4243 193.88 80.8243 194.984 83.0803H195.056C196.208 80.7763 197.408 78.3523 198.656 75.8083C199.904 73.2163 201.152 70.6483 202.4 68.1043C203.648 65.5603 204.8 63.2083 205.856 61.0483C206.912 58.8403 207.8 56.9683 208.52 55.4323C209.288 53.8483 209.816 52.7443 210.104 52.1203C210.776 50.5843 211.208 49.4803 211.4 48.8083C211.64 48.1363 211.712 47.8003 211.616 47.8003H224.864C224.528 47.8003 224.192 48.1363 223.856 48.8083C223.52 49.4803 223.352 50.6083 223.352 52.1923V86.6803C223.352 88.2163 223.52 89.3203 223.856 89.9923C224.192 90.6643 224.528 91.0003 224.864 91.0003H213.848C214.184 91.0003 214.496 90.6643 214.784 89.9923C215.12 89.3203 215.288 88.2163 215.288 86.6803V56.8723H215.144C214.136 58.8883 213.056 61.0483 211.904 63.3523C210.8 65.6563 209.672 67.9843 208.52 70.3363C207.368 72.6403 206.288 74.8723 205.28 77.0323C204.272 79.1443 203.36 81.0403 202.544 82.7203C201.776 84.4003 201.176 85.7203 200.744 86.6803C200.072 88.1683 199.712 89.2483 199.664 89.9203C199.664 90.5923 199.784 90.9523 200.024 91.0003H189.944C190.184 91.0003 190.304 90.6883 190.304 90.0643C190.304 89.3923 189.944 88.2643 189.224 86.6803C188.888 85.8643 188.336 84.6643 187.568 83.0803C186.8 81.4963 185.912 79.6483 184.904 77.5363C183.944 75.3763 182.888 73.1203 181.736 70.7683C180.584 68.3683 179.432 65.9683 178.28 63.5683C177.176 61.1683 176.12 58.9363 175.112 56.8723H174.896V86.6803C174.896 88.2163 175.064 89.3203 175.4 89.9923C175.736 90.6643 176.072 91.0003 176.408 91.0003H165.32Z" fill="#0E6E37"/>
<path d="M232.515 91.0003C232.851 91.0003 233.163 90.6643 233.451 89.9923C233.787 89.3203 233.955 88.2163 233.955 86.6803V61.6243C233.955 60.0883 233.787 59.0083 233.451 58.3843C233.163 57.7123 232.851 57.3523 232.515 57.3043H241.299V86.6803C241.299 88.2163 241.443 89.3203 241.731 89.9923C242.067 90.6643 242.403 91.0003 242.739 91.0003H232.515ZM236.907 50.3923C235.515 50.3923 234.435 50.0083 233.667 49.2403C232.899 48.4243 232.515 47.4883 232.515 46.4323C232.515 45.3283 232.875 44.3923 233.595 43.6243C234.363 42.8563 235.467 42.4723 236.907 42.4723C238.347 42.4723 239.427 42.8563 240.147 43.6243C240.915 44.3923 241.299 45.3283 241.299 46.4323C241.299 47.4883 240.915 48.4243 240.147 49.2403C239.379 50.0083 238.299 50.3923 236.907 50.3923Z" fill="#0E6E37"/>
<path d="M262.938 91.7203C259.626 91.7203 257.226 91.0243 255.738 89.6323C254.25 88.1923 253.506 85.8643 253.506 82.6483V62.3443H247.026V57.3043C249.234 57.3043 250.962 57.0403 252.21 56.5123C253.458 55.9363 254.346 54.9523 254.874 53.5603C255.402 52.1683 255.666 50.2243 255.666 47.7283H260.85V57.3043H274.602C274.266 57.7843 273.93 58.5043 273.594 59.4643C273.306 60.3763 273.162 61.3363 273.162 62.3443H260.85V81.5683C260.85 83.7763 261.258 85.1683 262.074 85.7443C262.89 86.3203 263.922 86.6083 265.17 86.6083C266.37 86.6083 267.474 86.3683 268.482 85.8883C269.538 85.3603 270.45 84.7363 271.218 84.0163C272.034 83.2963 272.658 82.6003 273.09 81.9283V84.1603L273.81 88.2643C273.33 88.7443 272.586 89.2723 271.578 89.8483C270.57 90.3763 269.346 90.8083 267.906 91.1443C266.466 91.5283 264.81 91.7203 262.938 91.7203Z" fill="#0E6E37"/>
<path d="M292.68 91.7203C289.368 91.7203 286.968 91.0243 285.48 89.6323C283.992 88.1923 283.248 85.8643 283.248 82.6483V62.3443H276.768V57.3043C278.976 57.3043 280.704 57.0403 281.952 56.5123C283.2 55.9363 284.088 54.9523 284.616 53.5603C285.144 52.1683 285.408 50.2243 285.408 47.7283H290.592V57.3043H304.344C304.008 57.7843 303.672 58.5043 303.336 59.4643C303.048 60.3763 302.904 61.3363 302.904 62.3443H290.592V81.5683C290.592 83.7763 291 85.1683 291.816 85.7443C292.632 86.3203 293.664 86.6083 294.912 86.6083C296.112 86.6083 297.216 86.3683 298.224 85.8883C299.28 85.3603 300.192 84.7363 300.96 84.0163C301.776 83.2963 302.4 82.6003 302.832 81.9283V84.1603L303.552 88.2643C303.072 88.7443 302.328 89.2723 301.32 89.8483C300.312 90.3763 299.088 90.8083 297.648 91.1443C296.208 91.5283 294.552 91.7203 292.68 91.7203Z" fill="#0E6E37"/>
<path d="M322.134 91.7203C316.902 91.7203 313.23 90.7843 311.118 88.9123C309.006 86.9923 307.95 84.4243 307.95 81.2083C307.95 78.9523 308.502 77.0323 309.606 75.4483C310.758 73.8163 312.462 72.5683 314.718 71.7043C317.022 70.8403 319.926 70.4083 323.43 70.4083C325.926 70.4083 328.086 70.6003 329.91 70.9843C331.782 71.3203 333.294 71.7283 334.446 72.2083C335.646 72.6883 336.486 73.0963 336.966 73.4323C336.966 70.6003 336.606 68.3203 335.886 66.5923C335.214 64.8643 334.11 63.6163 332.574 62.8483C331.038 62.0323 328.95 61.6243 326.31 61.6243C323.478 61.6243 320.934 61.9603 318.678 62.6323C316.47 63.2563 314.694 63.9523 313.35 64.7203C312.006 65.4403 311.166 65.9683 310.83 66.3043V64.8643L310.11 59.4643C310.542 59.2723 311.478 58.9603 312.918 58.5283C314.358 58.0483 316.254 57.6163 318.606 57.2323C320.958 56.8003 323.718 56.5843 326.886 56.5843C330.918 56.5843 334.206 57.1603 336.75 58.3123C339.342 59.4163 341.238 61.1443 342.438 63.4963C343.686 65.8003 344.31 68.7283 344.31 72.2803V86.6803C344.31 88.0243 344.454 89.0083 344.742 89.6323C345.078 90.2083 345.414 90.6643 345.75 91.0003H336.966V88.8403L337.11 87.4723L336.966 87.4003C336.198 88.1203 335.286 88.7443 334.23 89.2723C333.174 89.8003 332.022 90.2563 330.774 90.6403C329.526 90.9763 328.158 91.2403 326.67 91.4323C325.23 91.6243 323.718 91.7203 322.134 91.7203ZM324.51 86.6083C327.102 86.6083 329.334 86.3443 331.206 85.8163C333.078 85.2883 334.494 84.5923 335.454 83.7283C336.462 82.8163 336.966 81.7843 336.966 80.6323C336.966 79.1923 336.006 77.9683 334.086 76.9603C332.214 75.9523 329.286 75.4483 325.302 75.4483C321.606 75.4483 318.99 75.9283 317.454 76.8883C315.966 77.8483 315.222 79.2883 315.222 81.2083C315.222 83.0803 315.942 84.4483 317.382 85.3123C318.87 86.1763 321.246 86.6083 324.51 86.6083Z" fill="#0E6E37"/>
<path d="M369.544 108.568C366.76 108.568 364.192 108.376 361.84 107.992C359.536 107.608 357.52 107.128 355.792 106.552C354.112 106.024 352.816 105.496 351.904 104.968L353.344 98.4883V96.4003C354.016 97.4083 355.072 98.4643 356.512 99.5683C357.952 100.672 359.752 101.608 361.912 102.376C364.072 103.144 366.52 103.528 369.256 103.528C372.472 103.528 374.848 103 376.384 101.944C377.968 100.888 379 99.4243 379.48 97.5523C380.008 95.6803 380.272 93.5443 380.272 91.1443V88.4803L380.416 87.1843L380.272 87.0403C379.648 87.8563 378.784 88.6243 377.68 89.3443C376.576 90.0643 375.256 90.6403 373.72 91.0723C372.184 91.5043 370.456 91.7203 368.536 91.7203C363.976 91.7203 360.424 90.9523 357.88 89.4163C355.384 87.8803 353.632 85.7923 352.624 83.1523C351.664 80.5123 351.184 77.5363 351.184 74.2243C351.184 70.8643 351.664 67.8643 352.624 65.2243C353.632 62.5843 355.384 60.4963 357.88 58.9603C360.424 57.3763 363.976 56.5843 368.536 56.5843C370.456 56.5843 372.16 56.7763 373.648 57.1603C375.136 57.4963 376.432 57.9763 377.536 58.6003C378.64 59.1763 379.552 59.8723 380.272 60.6883L380.416 60.6163L380.272 59.2483V57.3043H389.056C388.72 57.3523 388.384 57.7123 388.048 58.3843C387.76 59.0563 387.616 60.1843 387.616 61.7683V89.3443C387.616 96.3043 386.128 101.248 383.152 104.176C380.224 107.104 375.688 108.568 369.544 108.568ZM369.04 86.6083C372.016 86.6083 374.32 86.1523 375.952 85.2403C377.584 84.2803 378.712 82.8883 379.336 81.0643C379.96 79.1923 380.272 76.9123 380.272 74.2243C380.272 71.5843 379.936 69.3283 379.264 67.4563C378.64 65.5843 377.512 64.1443 375.88 63.1363C374.296 62.1283 372.016 61.6243 369.04 61.6243C366.352 61.6243 364.24 62.1523 362.704 63.2083C361.168 64.2163 360.064 65.6803 359.392 67.6003C358.768 69.4723 358.456 71.7043 358.456 74.2963C358.456 76.8403 358.768 79.0483 359.392 80.9203C360.016 82.7443 361.096 84.1603 362.632 85.1683C364.216 86.1283 366.352 86.6083 369.04 86.6083Z" fill="#0E6E37"/>
<path d="M414.296 91.0003C414.632 91.0003 414.968 90.6643 415.304 89.9923C415.64 89.3203 415.808 88.2163 415.808 86.6803V52.1203C415.808 50.5843 415.64 49.5043 415.304 48.8803C414.968 48.2083 414.632 47.8483 414.296 47.8003H436.904C441.176 47.8003 444.728 48.2083 447.56 49.0243C450.44 49.8403 452.744 50.9683 454.472 52.4083C456.248 53.8483 457.592 55.5043 458.504 57.3763C459.416 59.2003 460.016 61.1443 460.304 63.2083C460.64 65.2723 460.808 67.3603 460.808 69.4723C460.808 71.3923 460.64 73.3843 460.304 75.4483C460.016 77.4643 459.392 79.4083 458.432 81.2803C457.52 83.1043 456.176 84.7603 454.4 86.2483C452.672 87.6883 450.368 88.8403 447.488 89.7043C444.656 90.5683 441.128 91.0003 436.904 91.0003H414.296ZM426.752 85.1683H435.608C439.736 85.1683 443.048 84.6403 445.544 83.5843C448.04 82.5283 449.864 80.8963 451.016 78.6883C452.168 76.4323 452.744 73.5283 452.744 69.9763V68.6803C452.744 64.9363 452.216 61.9843 451.16 59.8243C450.104 57.6163 448.328 56.0563 445.832 55.1443C443.336 54.1843 439.928 53.7043 435.608 53.7043H426.752C425.36 53.7043 424.52 53.8003 424.232 53.9923C423.992 54.1363 423.872 54.7123 423.872 55.7203V83.0083C423.872 84.0643 423.992 84.6883 424.232 84.8803C424.52 85.0723 425.36 85.1683 426.752 85.1683Z" fill="#0E6E37"/>
<path d="M481.111 91.7203C475.879 91.7203 472.207 90.7843 470.095 88.9123C467.983 86.9923 466.927 84.4243 466.927 81.2083C466.927 78.9523 467.479 77.0323 468.583 75.4483C469.735 73.8163 471.439 72.5683 473.695 71.7043C475.999 70.8403 478.903 70.4083 482.407 70.4083C484.903 70.4083 487.063 70.6003 488.887 70.9843C490.759 71.3203 492.271 71.7283 493.423 72.2083C494.623 72.6883 495.463 73.0963 495.943 73.4323C495.943 70.6003 495.583 68.3203 494.863 66.5923C494.191 64.8643 493.087 63.6163 491.551 62.8483C490.015 62.0323 487.927 61.6243 485.287 61.6243C482.455 61.6243 479.911 61.9603 477.655 62.6323C475.447 63.2563 473.671 63.9523 472.327 64.7203C470.983 65.4403 470.143 65.9683 469.807 66.3043V64.8643L469.087 59.4643C469.519 59.2723 470.455 58.9603 471.895 58.5283C473.335 58.0483 475.231 57.6163 477.583 57.2323C479.935 56.8003 482.695 56.5843 485.863 56.5843C489.895 56.5843 493.183 57.1603 495.727 58.3123C498.319 59.4163 500.215 61.1443 501.415 63.4963C502.663 65.8003 503.287 68.7283 503.287 72.2803V86.6803C503.287 88.0243 503.431 89.0083 503.719 89.6323C504.055 90.2083 504.391 90.6643 504.727 91.0003H495.943V88.8403L496.087 87.4723L495.943 87.4003C495.175 88.1203 494.263 88.7443 493.207 89.2723C492.151 89.8003 490.999 90.2563 489.751 90.6403C488.503 90.9763 487.135 91.2403 485.647 91.4323C484.207 91.6243 482.695 91.7203 481.111 91.7203ZM483.487 86.6083C486.079 86.6083 488.311 86.3443 490.183 85.8163C492.055 85.2883 493.471 84.5923 494.431 83.7283C495.439 82.8163 495.943 81.7843 495.943 80.6323C495.943 79.1923 494.983 77.9683 493.063 76.9603C491.191 75.9523 488.263 75.4483 484.279 75.4483C480.583 75.4483 477.967 75.9283 476.431 76.8883C474.943 77.8483 474.199 79.2883 474.199 81.2083C474.199 83.0803 474.919 84.4483 476.359 85.3123C477.847 86.1763 480.223 86.6083 483.487 86.6083Z" fill="#0E6E37"/>
<path d="M530.968 91.7203C528.328 91.7203 526.096 91.4083 524.272 90.7843C522.496 90.1603 520.984 89.2963 519.736 88.1923L519.592 88.2643L519.736 89.6323V91.0003H510.952C511.288 91.0003 511.6 90.6643 511.888 89.9923C512.224 89.3203 512.392 88.2163 512.392 86.6803V45.6403C512.392 44.1043 512.224 43.0243 511.888 42.4003C511.6 41.7283 511.288 41.3683 510.952 41.3203H519.736V58.7443L519.592 60.1123L519.736 60.2563C520.36 59.6323 521.2 59.0563 522.256 58.5283C523.36 57.9523 524.656 57.4963 526.144 57.1603C527.632 56.7763 529.24 56.5843 530.968 56.5843C535.432 56.5843 538.96 57.3763 541.552 58.9603C544.144 60.4963 545.992 62.5843 547.096 65.2243C548.248 67.8643 548.824 70.8643 548.824 74.2243C548.824 77.5363 548.272 80.5123 547.168 83.1523C546.064 85.7923 544.216 87.8803 541.624 89.4163C539.032 90.9523 535.48 91.7203 530.968 91.7203ZM530.248 86.6083C533.224 86.6083 535.528 86.1283 537.16 85.1683C538.792 84.2083 539.92 82.8163 540.544 80.9923C541.168 79.1203 541.48 76.8643 541.48 74.2243C541.48 71.5843 541.144 69.3283 540.472 67.4563C539.848 65.5843 538.72 64.1443 537.088 63.1363C535.504 62.1283 533.224 61.6243 530.248 61.6243C527.368 61.6243 525.16 62.2003 523.624 63.3523C522.136 64.4563 521.104 65.9683 520.528 67.8883C520 69.8083 519.736 71.9203 519.736 74.2243C519.736 78.0163 520.48 81.0403 521.968 83.2963C523.456 85.5043 526.216 86.6083 530.248 86.6083Z" fill="#0E6E37"/>
<path d="M574.703 91.7203C572.063 91.7203 569.831 91.4083 568.007 90.7843C566.231 90.1603 564.719 89.2963 563.471 88.1923L563.327 88.2643L563.471 89.6323V91.0003H554.687C555.023 91.0003 555.335 90.6643 555.623 89.9923C555.959 89.3203 556.127 88.2163 556.127 86.6803V45.6403C556.127 44.1043 555.959 43.0243 555.623 42.4003C555.335 41.7283 555.023 41.3683 554.687 41.3203H563.471V58.7443L563.327 60.1123L563.471 60.2563C564.095 59.6323 564.935 59.0563 565.991 58.5283C567.095 57.9523 568.391 57.4963 569.879 57.1603C571.367 56.7763 572.975 56.5843 574.703 56.5843C579.167 56.5843 582.695 57.3763 585.287 58.9603C587.879 60.4963 589.727 62.5843 590.831 65.2243C591.983 67.8643 592.559 70.8643 592.559 74.2243C592.559 77.5363 592.007 80.5123 590.903 83.1523C589.799 85.7923 587.951 87.8803 585.359 89.4163C582.767 90.9523 579.215 91.7203 574.703 91.7203ZM573.983 86.6083C576.959 86.6083 579.263 86.1283 580.895 85.1683C582.527 84.2083 583.655 82.8163 584.279 80.9923C584.903 79.1203 585.215 76.8643 585.215 74.2243C585.215 71.5843 584.879 69.3283 584.207 67.4563C583.583 65.5843 582.455 64.1443 580.823 63.1363C579.239 62.1283 576.959 61.6243 573.983 61.6243C571.103 61.6243 568.895 62.2003 567.359 63.3523C565.871 64.4563 564.839 65.9683 564.263 67.8883C563.735 69.8083 563.471 71.9203 563.471 74.2243C563.471 78.0163 564.215 81.0403 565.703 83.2963C567.191 85.5043 569.951 86.6083 573.983 86.6083Z" fill="#0E6E37"/>
<path d="M612.173 91.7203C606.941 91.7203 603.269 90.7843 601.157 88.9123C599.045 86.9923 597.989 84.4243 597.989 81.2083C597.989 78.9523 598.541 77.0323 599.645 75.4483C600.797 73.8163 602.501 72.5683 604.757 71.7043C607.061 70.8403 609.965 70.4083 613.469 70.4083C615.965 70.4083 618.125 70.6003 619.949 70.9843C621.821 71.3203 623.333 71.7283 624.485 72.2083C625.685 72.6883 626.525 73.0963 627.005 73.4323C627.005 70.6003 626.645 68.3203 625.925 66.5923C625.253 64.8643 624.149 63.6163 622.613 62.8483C621.077 62.0323 618.989 61.6243 616.349 61.6243C613.517 61.6243 610.973 61.9603 608.717 62.6323C606.509 63.2563 604.733 63.9523 603.389 64.7203C602.045 65.4403 601.205 65.9683 600.869 66.3043V64.8643L600.149 59.4643C600.581 59.2723 601.517 58.9603 602.957 58.5283C604.397 58.0483 606.293 57.6163 608.645 57.2323C610.997 56.8003 613.757 56.5843 616.925 56.5843C620.957 56.5843 624.245 57.1603 626.789 58.3123C629.381 59.4163 631.277 61.1443 632.477 63.4963C633.725 65.8003 634.349 68.7283 634.349 72.2803V86.6803C634.349 88.0243 634.493 89.0083 634.781 89.6323C635.117 90.2083 635.453 90.6643 635.789 91.0003H627.005V88.8403L627.149 87.4723L627.005 87.4003C626.237 88.1203 625.325 88.7443 624.269 89.2723C623.213 89.8003 622.061 90.2563 620.813 90.6403C619.565 90.9763 618.197 91.2403 616.709 91.4323C615.269 91.6243 613.757 91.7203 612.173 91.7203ZM614.549 86.6083C617.141 86.6083 619.373 86.3443 621.245 85.8163C623.117 85.2883 624.533 84.5923 625.493 83.7283C626.501 82.8163 627.005 81.7843 627.005 80.6323C627.005 79.1923 626.045 77.9683 624.125 76.9603C622.253 75.9523 619.325 75.4483 615.341 75.4483C611.645 75.4483 609.029 75.9283 607.493 76.8883C606.005 77.8483 605.261 79.2883 605.261 81.2083C605.261 83.0803 605.981 84.4483 607.421 85.3123C608.909 86.1763 611.285 86.6083 614.549 86.6083Z" fill="#0E6E37"/>
<path d="M660.663 91.7203C656.151 91.7203 652.359 91.4803 649.287 91.0003C646.263 90.5203 644.199 90.0403 643.095 89.5603V88.1203L641.583 81.9283C642.831 82.9363 645.015 83.9923 648.135 85.0963C651.303 86.1523 655.143 86.6803 659.655 86.6803C662.631 86.6803 664.863 86.4883 666.351 86.1043C667.839 85.6723 668.823 85.1203 669.303 84.4483C669.783 83.7283 670.023 82.9363 670.023 82.0723C670.023 81.0643 669.663 80.2723 668.943 79.6963C668.271 79.0723 666.975 78.5683 665.055 78.1843C663.183 77.7523 660.399 77.3203 656.703 76.8883C652.671 76.4083 649.551 75.7123 647.343 74.8003C645.183 73.8883 643.695 72.7363 642.879 71.3443C642.063 69.9043 641.655 68.2003 641.655 66.2323C641.655 64.6963 642.063 63.1843 642.879 61.6963C643.695 60.2083 645.207 58.9843 647.415 58.0243C649.671 57.0643 652.863 56.5843 656.991 56.5843C661.455 56.5843 665.199 56.8243 668.223 57.3043C671.295 57.7843 673.383 58.2643 674.487 58.7443V60.1843L675.927 65.6563C674.727 64.7923 672.543 63.9043 669.375 62.9923C666.207 62.0803 662.391 61.6243 657.927 61.6243C654.375 61.6243 651.999 62.0323 650.799 62.8483C649.599 63.6163 648.999 64.6243 648.999 65.8723C648.999 66.5923 649.143 67.2403 649.431 67.8163C649.719 68.3443 650.295 68.8243 651.159 69.2563C652.071 69.6883 653.415 70.0723 655.191 70.4083C657.015 70.7443 659.439 71.0803 662.463 71.4163C666.543 71.8483 669.639 72.5203 671.751 73.4323C673.863 74.3443 675.303 75.4963 676.071 76.8883C676.887 78.2323 677.295 79.8163 677.295 81.6403C677.295 83.6083 676.743 85.3603 675.639 86.8963C674.583 88.3843 672.831 89.5603 670.383 90.4243C667.935 91.2883 664.695 91.7203 660.663 91.7203Z" fill="#0E6E37"/>
</svg>
