<svg width="20" height="19" viewBox="0 0 20 19" fill="none" xmlns="http://www.w3.org/2000/svg">
<path d="M9.55846 5.72919C9.58263 5.75908 9.61247 5.7839 9.64628 5.80221C9.68008 5.82052 9.71717 5.83196 9.75541 5.83586C9.79366 5.83977 9.8323 5.83607 9.8691 5.82498C9.90591 5.81389 9.94016 5.79562 9.96987 5.77123C10.0301 5.72178 10.0685 5.65056 10.0766 5.57302C10.0847 5.49548 10.062 5.41786 10.0133 5.35699C9.97486 5.30888 9.08223 4.16737 10.0182 2.99499C11.0185 1.74176 10.4458 0.546338 10.0032 0.0891114C9.97637 0.0613953 9.94436 0.0392546 9.90897 0.0239651C9.87359 0.00867568 9.83553 0.00053951 9.79698 2.59335e-05C9.75844 -0.000487642 9.72018 0.00663136 9.6844 0.0209726C9.64862 0.0353138 9.61603 0.0565939 9.58851 0.0835863C9.53276 0.138262 9.50089 0.212766 9.49986 0.290848C9.49882 0.368929 9.5287 0.444252 9.58299 0.500387C9.62045 0.538927 10.4902 1.4616 9.56089 2.62589C8.57137 3.86538 9.12657 5.19771 9.55846 5.72919Z" fill="#FEA01A"/>
<path d="M12.2223 6.2408C12.2466 6.27076 12.2765 6.29562 12.3104 6.31395C12.3443 6.33228 12.3816 6.34372 12.4199 6.3476C12.4583 6.35148 12.497 6.34774 12.5339 6.33658C12.5708 6.32542 12.6051 6.30706 12.6349 6.28257C12.6952 6.23289 12.7333 6.16142 12.7411 6.08373C12.7489 6.00604 12.7256 5.92842 12.6764 5.86779C12.6551 5.84165 12.1604 5.21827 12.6803 4.56713C13.3423 3.73797 12.9591 2.94264 12.664 2.63783C12.6372 2.61014 12.6052 2.58803 12.5698 2.57276C12.5344 2.55749 12.4964 2.54937 12.4579 2.54885C12.4193 2.54834 12.3811 2.55545 12.3453 2.56977C12.3095 2.58409 12.2769 2.60534 12.2494 2.6323C12.1936 2.68698 12.1618 2.76148 12.1607 2.83956C12.1597 2.91764 12.1896 2.99297 12.2439 3.0491C12.2639 3.06985 12.7294 3.5636 12.2231 4.1979C11.572 5.01344 11.9378 5.89084 12.2223 6.2408Z" fill="#FEA01A"/>
<path d="M6.74574 6.2408C6.77 6.27076 6.79995 6.29562 6.83387 6.31395C6.86779 6.33228 6.905 6.34372 6.94335 6.3476C6.98171 6.35148 7.02045 6.34774 7.05736 6.33658C7.09426 6.32542 7.12859 6.30706 7.15836 6.28257C7.2186 6.23289 7.25677 6.16142 7.26454 6.08373C7.27232 6.00604 7.24907 5.92842 7.19987 5.86779C7.17858 5.84165 6.68389 5.21827 7.20377 4.56713C7.8657 3.73797 7.48259 2.94264 7.18747 2.63783C7.16066 2.61014 7.12865 2.58803 7.09326 2.57276C7.05788 2.55749 7.01983 2.54937 6.9813 2.54885C6.94276 2.54834 6.90451 2.55545 6.86873 2.56977C6.83295 2.58409 6.80036 2.60534 6.77283 2.6323C6.71707 2.68698 6.6852 2.76148 6.68417 2.83956C6.68313 2.91764 6.71302 2.99297 6.7673 3.0491C6.78738 3.06985 7.25283 3.5636 6.74655 4.1979C6.09541 5.01344 6.46127 5.89084 6.74574 6.2408Z" fill="#FEA01A"/>
<path d="M19.6744 9.21994C19.6744 9.21253 19.6729 9.20552 19.6724 9.19824C19.6726 9.19083 19.6744 9.18355 19.6744 9.17601C19.6759 8.1621 17.2082 7.34319 13.3879 7.08945C12.8888 7.05401 11.1605 6.93865 9.84045 6.93677C7.2693 6.93906 4.85475 7.1323 3.03311 7.49803C1.00315 7.90553 0.0116171 8.44199 0.0009714 9.13733C0.000836644 9.14043 2.81127e-05 9.14313 2.81127e-05 9.14609C-0.000376155 9.20538 -0.00145413 10.3259 0.390147 11.7926C0.394998 11.8497 0.408878 11.9081 0.438255 11.9672C0.542347 12.3356 0.664997 12.6985 0.805734 13.0546C1.55686 14.9502 3.1773 17.4077 6.61951 18.3475C6.64525 18.3606 6.70656 18.4209 6.74699 18.4608C6.85803 18.5703 6.98389 18.6941 7.15665 18.7317C7.9699 18.9085 8.85525 18.9988 9.78789 19.0003H9.8073C10.6577 19.0003 11.4696 18.9261 12.2208 18.7801C12.3934 18.7465 12.516 18.6244 12.6242 18.5168C12.6583 18.4827 12.7089 18.4325 12.7345 18.4156C16.2969 17.5356 17.9953 15.0801 18.7932 13.1738C18.9545 12.7874 19.0943 12.3924 19.2119 11.9905C19.2479 11.9288 19.2678 11.859 19.2696 11.7876C19.6611 10.3617 19.674 9.27856 19.6744 9.21994Z" fill="#0E6E37"/>
<path d="M0.648438 10.0254C1.14771 10.3254 1.9359 10.5846 3.02742 10.8071C4.84797 11.178 7.26496 11.3844 9.833 11.3882H9.90361C12.4452 11.3882 14.8354 11.1891 16.6403 10.8268C17.7278 10.6085 18.5145 10.3527 19.015 10.0558C18.9405 10.6192 18.8247 11.1764 18.6685 11.7228C18.2803 12.1183 15.0287 12.8018 9.78651 12.7996C4.53305 12.7921 1.30591 12.0986 0.976568 11.7137C0.825862 11.1598 0.716188 10.5955 0.648438 10.0254Z" fill="#5BD75A"/>
<path d="M9.25003 9.01932C9.21068 9.07281 9.16863 9.12523 9.1216 9.17509C8.72299 9.59675 8.17723 9.75401 7.92686 9.75401C7.88825 9.75409 7.85004 9.76179 7.8144 9.77665C7.77877 9.79151 7.74642 9.81324 7.71919 9.84061C7.69195 9.86798 7.67038 9.90044 7.6557 9.93615C7.64102 9.97186 7.63352 10.0101 7.63363 10.0487C7.63363 10.2115 7.76488 10.3434 7.92686 10.3434C8.35996 10.3434 9.05166 10.1048 9.54662 9.58098C9.846 9.26715 10.0422 8.86924 10.1088 8.44067C10.3124 8.57974 10.5456 8.78673 10.6615 9.05745C10.766 9.3019 10.7605 9.56117 10.6447 9.85022C10.6156 9.92263 10.6163 10.0036 10.6467 10.0755C10.6772 10.1474 10.7348 10.2043 10.8071 10.2337C10.8429 10.2482 10.8812 10.2554 10.9197 10.2551C10.9583 10.2547 10.9964 10.2467 11.0319 10.2315C11.0673 10.2163 11.0994 10.1942 11.1263 10.1666C11.1532 10.139 11.1744 10.1063 11.1886 10.0704C11.3272 9.72476 11.3565 9.39003 11.2803 9.07147C14.7769 9.15838 17.4604 9.59311 17.7434 9.94698C17.4153 10.0476 17.0149 10.1492 16.5275 10.2471C14.7591 10.6022 12.4102 10.797 9.90575 10.797H9.83594C7.3055 10.7934 4.92961 10.5912 3.14598 10.2278C2.66976 10.1308 2.27694 10.0303 1.95312 9.93094C1.9604 9.91922 1.9693 9.90898 1.97482 9.89617C2.40725 9.52398 6.16088 8.96191 9.25003 9.01932Z" fill="#D1FFD0"/>
<path d="M3.14347 8.07557C4.91188 7.72049 7.26081 7.52563 9.76511 7.52563H9.83505C11.1369 7.52752 12.849 7.64193 13.3427 7.67683L13.3441 7.67697C17.6716 7.96427 19.0839 8.88829 19.0835 9.17437C19.0834 9.29053 18.8886 9.50803 18.2927 9.7514C18.1933 9.44416 17.7773 9.0946 15.649 8.80326C14.3553 8.62632 12.6572 8.50666 10.9896 8.47499C10.5936 7.94688 9.97466 7.69529 9.94339 7.6829C9.89776 7.66478 9.84829 7.65849 9.79958 7.66459C9.75086 7.67069 9.70448 7.68899 9.66472 7.7178C9.62482 7.74669 9.59279 7.7851 9.57154 7.82954C9.55028 7.87398 9.54048 7.92302 9.54303 7.97222C9.55146 8.12765 9.53931 8.28352 9.50692 8.43578C8.01652 8.39212 6.13896 8.49709 4.46044 8.72052C1.56036 9.10632 1.46293 9.51248 1.41604 9.70747C1.41321 9.71946 1.41253 9.73132 1.41119 9.74318C0.784705 9.49145 0.581897 9.26641 0.582031 9.14769C0.582301 8.95472 1.11809 8.48213 3.14347 8.07557Z" fill="#5BD75A"/>
<path opacity="0.08" d="M3.14347 8.07557C4.91188 7.72049 7.26081 7.52563 9.76511 7.52563H9.83505C11.1369 7.52752 12.849 7.64193 13.3427 7.67683L13.3441 7.67697C17.6716 7.96427 19.0839 8.88829 19.0835 9.17437C19.0834 9.29053 18.8886 9.50803 18.2927 9.7514C18.1933 9.44416 17.7773 9.0946 15.649 8.80326C14.3553 8.62632 12.6572 8.50666 10.9896 8.47499C10.5936 7.94688 9.97466 7.69529 9.94339 7.6829C9.89776 7.66478 9.84829 7.65849 9.79958 7.66459C9.75086 7.67069 9.70448 7.68899 9.66472 7.7178C9.62482 7.74669 9.59279 7.7851 9.57154 7.82954C9.55028 7.87398 9.54048 7.92302 9.54303 7.97222C9.55146 8.12765 9.53931 8.28352 9.50692 8.43578C8.01652 8.39212 6.13896 8.49709 4.46044 8.72052C1.56036 9.10632 1.46293 9.51248 1.41604 9.70747C1.41321 9.71946 1.41253 9.73132 1.41119 9.74318C0.784705 9.49145 0.581897 9.26641 0.582031 9.14769C0.582301 8.95472 1.11809 8.48213 3.14347 8.07557Z" fill="#5BD75A"/>
<path d="M12.5824 17.8455C12.4265 17.8838 12.3127 17.9972 12.2121 18.0971C12.1762 18.1329 12.1231 18.1859 12.0956 18.2033C11.385 18.3406 10.6156 18.4101 9.80782 18.4101H9.78909C8.89782 18.4088 8.05384 18.3229 7.29382 18.1588C7.26579 18.1456 7.19814 18.0789 7.15771 18.039C7.05557 17.9383 6.93968 17.8242 6.78565 17.7823C4.20656 17.0775 2.38048 15.4193 1.35822 12.8544C1.31081 12.7353 1.26561 12.6153 1.22266 12.4945C1.6629 12.6551 2.32644 12.8141 3.32323 12.965C5.09972 13.2339 7.39515 13.384 9.78707 13.3875H9.86429C12.191 13.3875 14.5301 13.2359 16.2927 12.9704C17.3082 12.8175 17.977 12.6531 18.4179 12.4937C17.6582 14.5618 16.038 16.9967 12.5824 17.8455Z" fill="#5BD75A"/>
</svg>
