<svg width="24" height="16" viewBox="0 0 24 16" fill="none" xmlns="http://www.w3.org/2000/svg">
<path d="M10.6934 3.97894H10.949C10.949 3.72154 11.0232 3.59974 11.1093 3.45874C11.202 3.30682 11.307 3.13462 11.307 2.80534C11.307 2.47606 11.202 2.30386 11.1093 2.15194C11.0232 2.01094 10.949 1.88926 10.949 1.63174C10.949 1.37446 11.0232 1.25278 11.1093 1.1119C11.202 0.960105 11.307 0.788024 11.307 0.458984H11.0514C11.0514 0.716264 10.9772 0.837944 10.8911 0.978824C10.7985 1.13062 10.6934 1.3027 10.6934 1.63186C10.6934 1.96114 10.7984 2.13334 10.8911 2.28526C10.9772 2.42626 11.0514 2.54794 11.0514 2.80546C11.0514 3.06298 10.9772 3.18466 10.8911 3.32566C10.7982 3.47746 10.6934 3.64966 10.6934 3.97894Z" fill="#3F3F3F" stroke="#3F3F3F" stroke-width="0.4"/>
<path d="M11.7637 3.97894H12.0193C12.0193 3.72142 12.0936 3.59974 12.1796 3.45874C12.2722 3.30682 12.3772 3.13474 12.3772 2.80534C12.3772 2.47606 12.2722 2.30386 12.1796 2.15194C12.0936 2.01094 12.0193 1.88926 12.0193 1.63174C12.0193 1.37446 12.0936 1.25278 12.1796 1.1119C12.2722 0.960105 12.3772 0.788024 12.3772 0.458984H12.1216C12.1216 0.716264 12.0474 0.837944 11.9613 0.978824C11.8687 1.13062 11.7637 1.3027 11.7637 1.63186C11.7637 1.96114 11.8687 2.13334 11.9613 2.28514C12.0474 2.42614 12.1216 2.54794 12.1216 2.80546C12.1216 3.06298 12.0474 3.18478 11.9613 3.32578C11.8687 3.47746 11.7637 3.64966 11.7637 3.97894Z" fill="#3F3F3F" stroke="#3F3F3F" stroke-width="0.4"/>
<path d="M22.6755 2.35355C22.6308 2.31521 22.5835 2.27986 22.5342 2.24771C22.2848 2.08684 21.991 2.00862 21.6946 2.02415L21.5974 2.02955L21.5874 1.93259C21.5502 1.57199 21.38 1.24547 21.1083 1.01327C21.0621 0.973782 21.0133 0.937307 20.9624 0.904067C20.7056 0.736219 20.4001 0.658933 20.0943 0.684467C19.9087 0.698883 19.7277 0.750056 19.5621 0.835014C19.3964 0.919971 19.2492 1.03702 19.1292 1.17935C18.6609 1.72955 18.6849 2.56259 19.1838 3.07559L19.2492 3.14291L18.0193 4.56155L17.8254 4.39583C17.7548 4.33547 17.6632 4.30556 17.5706 4.31267C17.4727 4.32035 17.3866 4.36715 17.315 4.45151C17.2528 4.52435 17.1842 4.59671 17.1054 4.67279L17.0085 4.76639L16.854 4.89059L16.7401 4.97063C16.2334 5.32679 15.6234 5.52995 14.9757 5.55815C14.8157 5.56514 14.6562 5.58136 14.498 5.60675L14.5026 5.59427C13.4635 5.21867 12.3712 5.02811 11.256 5.02811C6.0332 5.02811 1.7786 9.24311 1.70972 14.4499H1.3844C1.28962 14.4494 1.19638 14.4738 1.11401 14.5207C1.03165 14.5676 0.963043 14.6353 0.915078 14.717C0.866294 14.7983 0.839707 14.8909 0.83798 14.9857C0.836254 15.0804 0.859447 15.1739 0.905238 15.2569C0.952183 15.343 1.02146 15.4148 1.10578 15.4649C1.1901 15.5149 1.28634 15.5413 1.3844 15.5413H21.1275C21.2256 15.5413 21.3218 15.5149 21.4061 15.4649C21.4905 15.4148 21.5597 15.343 21.6067 15.2569C21.6525 15.1739 21.6757 15.0804 21.6739 14.9857C21.6722 14.8909 21.6456 14.7983 21.5968 14.717C21.5489 14.6353 21.4803 14.5676 21.3979 14.5207C21.3155 14.4738 21.2223 14.4494 21.1275 14.4499H20.803C20.777 12.6092 20.1912 10.7509 19.1443 9.19571C19.1426 9.17831 19.1419 9.16091 19.14 9.14351C19.0362 8.18639 19.3008 7.28027 19.8852 6.59207C20.0031 6.45311 19.9884 6.24515 19.852 6.12875L19.6394 5.94695L20.8698 4.52783L20.9456 4.58243C21.1781 4.74923 21.4573 4.83854 21.7435 4.83767C21.7819 4.83767 21.8206 4.83611 21.8594 4.83299C22.045 4.81857 22.2259 4.76741 22.3916 4.68248C22.5573 4.59754 22.7045 4.48053 22.8246 4.33823C23.3284 3.74507 23.2618 2.85479 22.6755 2.35355ZM21.3766 14.8476C21.4294 14.9365 21.4315 15.0438 21.3819 15.1345C21.357 15.1803 21.3201 15.2185 21.2753 15.2451C21.2305 15.2717 21.1793 15.2857 21.1272 15.2857H1.38416C1.33203 15.2857 1.28086 15.2717 1.23603 15.2451C1.1912 15.2185 1.15436 15.1803 1.1294 15.1345C1.10505 15.0904 1.09272 15.0407 1.09365 14.9903C1.09457 14.94 1.10872 14.8908 1.13468 14.8476C1.16018 14.8041 1.19664 14.7681 1.24042 14.7432C1.28421 14.7183 1.33377 14.7053 1.38416 14.7055H21.1273C21.2307 14.7055 21.324 14.7587 21.3766 14.8476ZM1.96496 14.4499C2.03396 9.38423 6.17384 5.28383 11.2556 5.28383C12.1998 5.28279 13.1387 5.42583 14.0397 5.70803C13.1228 5.96675 12.3216 6.54275 11.7644 7.36439C10.9006 8.63747 10.8352 10.3255 11.5975 11.6646C11.8996 12.2072 12.3262 12.6702 12.8423 13.0156C13.3584 13.361 13.9491 13.5789 14.5659 13.6513L14.661 13.6623C14.664 13.6626 14.9666 13.6847 15.1357 13.6847L15.1712 13.6842C15.6273 13.6735 16.0831 13.5819 16.526 13.4124L16.7798 13.3149L17.0842 13.149L17.1234 13.1263C17.5311 12.8885 17.888 12.5913 18.1838 12.2433C18.7916 11.5291 19.1337 10.6238 19.1604 9.69599C20.0356 11.1325 20.5232 12.7985 20.5472 14.45L1.96496 14.4499ZM19.7454 6.36791L19.6802 6.44555C19.0604 7.18463 18.7796 8.15231 18.8899 9.17051C19.0051 10.2317 18.6865 11.2653 17.9926 12.081C17.2836 12.9147 16.2531 13.4077 15.1654 13.4335C15.1347 13.4342 15.104 13.4346 15.0734 13.4346C14.3422 13.4346 13.6366 13.2265 13.0328 12.8327C12.773 12.6627 12.5346 12.462 12.3229 12.2349C11.1273 10.9573 10.9797 8.96819 11.9719 7.50527C12.6673 6.48011 13.766 5.86175 14.9864 5.80871C15.9792 5.76551 16.9016 5.32415 17.5171 4.59779L17.5834 4.51931L19.7454 6.36791ZM22.633 4.17563C22.5241 4.30482 22.3881 4.40857 22.2347 4.47956C22.0814 4.55055 21.9143 4.58705 21.7453 4.58651C21.475 4.58687 21.2135 4.49006 21.0086 4.31375C20.9924 4.29995 20.9773 4.28507 20.9487 4.25699C20.9427 4.25098 20.9361 4.24563 20.929 4.24103C20.9074 4.22725 20.8822 4.22027 20.8566 4.22099H20.856C20.8388 4.22169 20.8219 4.22588 20.8065 4.23331C20.791 4.24074 20.7771 4.25124 20.7658 4.26419L19.4485 5.78375L18.2096 4.72463L19.5259 3.20639C19.5471 3.18215 19.5572 3.14531 19.5531 3.10811C19.5493 3.07295 19.5282 3.03959 19.4936 3.01427C19.4757 3.00107 19.4576 2.98775 19.4408 2.97323C18.9592 2.56139 18.9051 1.82951 19.3201 1.34183C19.429 1.21259 19.5649 1.1088 19.7183 1.03777C19.8716 0.966736 20.0387 0.930192 20.2077 0.930707C20.4782 0.930412 20.7397 1.02725 20.9448 1.20359C21.2228 1.44131 21.3704 1.80431 21.3396 2.17427C21.3361 2.21435 21.3524 2.25407 21.3842 2.28107L21.3967 2.29055C21.4111 2.29964 21.4272 2.30574 21.4441 2.30848C21.4609 2.31122 21.4781 2.31055 21.4947 2.30651C21.5855 2.28404 21.6787 2.27268 21.7723 2.27267C22.0434 2.27191 22.3059 2.36815 22.5123 2.54399C22.9938 2.95583 23.048 3.68771 22.633 4.17563Z" fill="#3F3F3F" stroke="#3F3F3F" stroke-width="0.4"/>
</svg>
