<svg width="20" height="20" viewBox="0 0 20 20" fill="none" xmlns="http://www.w3.org/2000/svg">
<path d="M16.8303 6.572C16.5849 5.56439 16.2189 4.59003 15.7403 3.67C15.5803 3.362 15.2603 3.168 14.9143 3.168H5.47434C5.12834 3.168 4.81034 3.36 4.64834 3.666L4.64434 3.676C3.6644 5.53777 3.15233 7.61008 3.15234 9.714V17.83C3.15234 18.476 3.67634 19 4.32034 19H16.0323C16.6783 19 17.2003 18.476 17.2003 17.83V9.65C17.2003 8.608 17.0743 7.576 16.8303 6.572ZM7.84834 6.668C7.84834 6.492 7.98234 6.348 8.14834 6.348H8.37834C8.54434 6.348 8.67834 6.492 8.67834 6.668V8.344C8.67834 8.46 8.59034 8.552 8.48234 8.552H8.04434C7.93634 8.552 7.84834 8.46 7.84834 8.344V6.668ZM9.81434 8.428C9.81434 9.0634 9.49174 9.6124 9.03054 9.859C8.9838 9.88412 8.94477 9.92146 8.91761 9.96705C8.89045 10.0126 8.87618 10.0647 8.87634 10.1178V15.218C8.87634 15.3777 8.81292 15.5308 8.70002 15.6437C8.58712 15.7566 8.434 15.82 8.27434 15.82H8.25434C7.92034 15.82 7.65034 15.55 7.65034 15.218V10.1178C7.65034 10.0096 7.59154 9.91 7.49614 9.859C7.03494 9.6124 6.71234 9.0634 6.71234 8.428V6.702C6.71234 6.508 6.84634 6.348 7.01234 6.348H7.24434C7.41034 6.348 7.54434 6.508 7.54434 6.702V8.386C7.54434 8.49103 7.58606 8.59175 7.66033 8.66601C7.73459 8.74028 7.83532 8.782 7.94034 8.782H8.58634C8.69137 8.782 8.79209 8.74028 8.86636 8.66601C8.94062 8.59175 8.98234 8.49103 8.98234 8.386V6.702C8.98234 6.508 9.11634 6.348 9.28234 6.348H9.51234C9.67834 6.348 9.81434 6.508 9.81434 6.702V8.428ZM12.8615 9.708C12.7845 9.7612 12.7423 9.8518 12.7423 9.9454V15.218C12.7423 15.384 12.6743 15.534 12.5663 15.644C12.4563 15.752 12.3063 15.82 12.1403 15.82C11.8063 15.82 11.5363 15.55 11.5363 15.218V9.9454C11.5363 9.8518 11.4941 9.7612 11.4171 9.708C10.9535 9.3872 10.6383 8.7686 10.6383 8.056C10.6383 7.016 11.3103 6.348 12.1403 6.348C12.9683 6.348 13.6403 7.016 13.6403 8.056C13.6403 8.7684 13.3251 9.3872 12.8615 9.708ZM14.9735 2.7584H5.41654C5.2825 2.7584 5.15395 2.70515 5.05917 2.61037C4.96439 2.51559 4.91114 2.38704 4.91114 2.253V1.5054C4.91114 1.37136 4.96439 1.24281 5.05917 1.14803C5.15395 1.05325 5.2825 1 5.41654 1H14.9735C15.1076 1 15.2361 1.05325 15.3309 1.14803C15.4257 1.24281 15.4789 1.37136 15.4789 1.5054V2.253C15.4789 2.38704 15.4257 2.51559 15.3309 2.61037C15.2361 2.70515 15.1076 2.7584 14.9735 2.7584Z" fill="#5BD75A"/>
</svg>
