<svg width="17" height="18" viewBox="0 0 17 18" fill="none" xmlns="http://www.w3.org/2000/svg">
<path d="M15.7598 6.51953C15.5998 6.41953 15.4298 6.33953 15.2498 6.26953C15.6098 5.20953 16.0498 3.09953 15.0898 0.519531L14.1498 0.869531C15.0298 3.22953 14.5698 5.16953 14.2698 6.02953C13.8198 5.98953 13.3698 6.02953 12.9398 6.15953C12.0498 6.44953 11.3598 7.10953 11.0098 8.02953V8.04953C10.9198 8.29953 8.80976 14.2795 0.929762 15.3495C0.429762 15.4195 0.0397619 15.8195 -0.000238104 16.3295C-0.0402381 16.8395 0.249762 17.2795 0.729762 17.4395C1.93976 17.8295 3.21976 18.0095 4.51976 18.0095C9.59976 18.0095 14.8798 15.2195 16.4998 11.1895C17.6598 8.30953 16.5298 7.02953 15.7498 6.51953H15.7598ZM15.5798 10.8095C13.7598 15.3595 6.41976 18.2195 0.999762 16.4195C0.999762 16.3495 1.04976 16.3395 1.06976 16.3395C9.48976 15.1995 11.8198 8.77953 11.9598 8.36953C12.2698 7.56953 12.8398 7.23953 13.2598 7.09953C13.9098 6.88953 14.6598 6.97953 15.2198 7.34953C16.3698 8.09953 16.0498 9.63953 15.5798 10.8095Z" fill="#3F3F3F"/>
</svg>
