<svg width="24" height="24" viewBox="0 0 24 24" fill="none" xmlns="http://www.w3.org/2000/svg">
<path d="M11.263 3.63652C11.9293 3.63652 12.4714 3.09448 12.4714 2.42817C12.4714 1.76187 11.9293 1.21982 11.263 1.21982C10.5967 1.21982 10.0547 1.76187 10.0547 2.42817C10.0547 3.09448 10.5967 3.63652 11.263 3.63652ZM11.263 2.02539C11.4851 2.02539 11.6658 2.20614 11.6658 2.42817C11.6658 2.65021 11.4851 2.83096 11.263 2.83096C11.041 2.83096 10.8603 2.65021 10.8603 2.42817C10.8603 2.20614 11.041 2.02539 11.263 2.02539ZM17.8256 5.53243C17.9042 5.61107 18.0074 5.65045 18.1104 5.65045C18.2134 5.65045 18.3165 5.61107 18.3951 5.53243L18.7145 5.21302L19.034 5.53243C19.1126 5.61107 19.2157 5.65045 19.3187 5.65045C19.4217 5.65045 19.5248 5.61107 19.6035 5.53243C19.679 5.4569 19.7214 5.35447 19.7214 5.24766C19.7214 5.14086 19.679 5.03843 19.6035 4.96289L19.2841 4.64349L19.6035 4.32408C19.642 4.28692 19.6726 4.24248 19.6938 4.19334C19.7149 4.14419 19.726 4.09134 19.7264 4.03786C19.7269 3.98438 19.7167 3.93134 19.6965 3.88184C19.6762 3.83234 19.6463 3.78737 19.6085 3.74955C19.5707 3.71173 19.5257 3.68182 19.4762 3.66157C19.4267 3.64132 19.3737 3.63113 19.3202 3.63159C19.2667 3.63206 19.2138 3.64317 19.1647 3.66428C19.1156 3.68538 19.0711 3.71607 19.034 3.75454L18.7145 4.07395L18.3951 3.75454C18.358 3.71607 18.3135 3.68538 18.2644 3.66428C18.2153 3.64317 18.1624 3.63206 18.1089 3.63159C18.0554 3.63113 18.0024 3.64132 17.9529 3.66157C17.9034 3.68182 17.8584 3.71173 17.8206 3.74955C17.7828 3.78737 17.7529 3.83234 17.7326 3.88184C17.7124 3.93134 17.7022 3.98438 17.7027 4.03786C17.7031 4.09134 17.7142 4.14419 17.7353 4.19334C17.7564 4.24248 17.7871 4.28692 17.8256 4.32408L18.145 4.64349L17.8256 4.96289C17.7882 5.00027 17.7585 5.04466 17.7382 5.09353C17.718 5.14239 17.7075 5.19477 17.7075 5.24766C17.7075 5.30056 17.718 5.35293 17.7382 5.4018C17.7585 5.45066 17.7882 5.49505 17.8256 5.53243ZM14.9281 1.86115C15.0423 1.86115 15.1518 1.81579 15.2325 1.73504C15.3133 1.65429 15.3587 1.54477 15.3587 1.43058C15.3587 1.31638 15.3133 1.20686 15.2325 1.12611C15.1518 1.04536 15.0423 1 14.9281 1C14.8139 1 14.7044 1.04536 14.6236 1.12611C14.5429 1.20686 14.4975 1.31638 14.4975 1.43058C14.4975 1.54477 14.5429 1.65429 14.6236 1.73504C14.7044 1.81579 14.8139 1.86115 14.9281 1.86115ZM21.3726 6.69456C21.4868 6.69456 21.5963 6.6492 21.6771 6.56845C21.7578 6.4877 21.8032 6.37818 21.8032 6.26399C21.8032 6.14979 21.7578 6.04027 21.6771 5.95952C21.5963 5.87877 21.4868 5.83341 21.3726 5.83341C21.2584 5.83341 21.1489 5.87877 21.0682 5.95952C20.9874 6.04027 20.942 6.14979 20.942 6.26399C20.942 6.37818 20.9874 6.4877 21.0682 6.56845C21.1489 6.6492 21.2584 6.69456 21.3726 6.69456ZM12.5114 7.50013C12.6256 7.50013 12.7351 7.45477 12.8158 7.37402C12.8966 7.29327 12.9419 7.18375 12.9419 7.06955C12.9419 6.95536 12.8966 6.84584 12.8158 6.76509C12.7351 6.68434 12.6256 6.63898 12.5114 6.63898C12.3972 6.63898 12.2877 6.68434 12.2069 6.76509C12.1262 6.84584 12.0808 6.95536 12.0808 7.06955C12.0808 7.18375 12.1262 7.29327 12.2069 7.37402C12.2877 7.45477 12.3972 7.50013 12.5114 7.50013Z" fill="#3F3F3F"/>
<path d="M22.9448 12.0958C22.9448 10.097 21.3185 8.47076 19.3197 8.47076C18.6152 8.47076 17.9431 8.66964 17.359 9.04715C16.7109 8.44176 15.8438 8.06798 14.8891 8.06798C14.8807 8.06798 14.8727 8.06989 14.8643 8.06989C14.6654 6.24075 13.1374 4.8457 11.264 4.8457C10.0119 4.8457 8.87563 5.48452 8.21274 6.52612C7.6858 6.22705 7.0785 6.05406 6.43063 6.05406C4.43181 6.05406 2.80557 7.6803 2.80557 9.67911C2.8041 10.4932 3.0788 11.2837 3.58475 11.9214C2.62905 12.5748 2 13.6727 2 14.9153C2 16.6417 3.20412 18.1024 4.85594 18.4573C4.83439 18.6167 4.81949 18.778 4.81949 18.9432C4.81949 20.942 6.44573 22.5682 8.44455 22.5682C10.4434 22.5682 12.0696 20.942 12.0696 18.9432C12.0699 18.3502 11.9239 17.7664 11.6444 17.2435C11.9416 17.1783 12.2259 17.0711 12.4969 16.9334C12.7 18.7412 14.2365 20.1516 16.0975 20.1516C18.0964 20.1516 19.7226 18.5254 19.7226 16.5265C19.7226 16.2438 19.6868 15.9698 19.6252 15.7055C21.4812 15.5494 22.9448 13.9914 22.9448 12.0958ZM17.7086 11.693C17.7086 12.1997 17.568 12.6849 17.3143 13.116C16.9332 12.9795 16.5248 12.9014 16.0974 12.9014C15.5085 12.9014 14.9535 13.0457 14.4613 13.296C14.3162 12.0174 13.5029 10.941 12.3804 10.42C12.8564 9.48588 13.825 8.87355 14.8892 8.87355C16.4437 8.87355 17.7086 10.1383 17.7086 11.693ZM11.264 5.65127C12.7265 5.65127 13.9181 6.74433 14.0656 8.17461C12.9979 8.42726 12.0876 9.15439 11.6147 10.1619C11.367 10.109 11.1145 10.0822 10.8613 10.082C10.5705 10.082 10.2898 10.1254 10.0167 10.19C10.0405 10.0215 10.0557 9.8513 10.0557 9.67921C10.0557 8.61798 9.59439 7.66479 8.86515 7.0012C9.37649 6.16583 10.2735 5.65127 11.264 5.65127ZM3.61114 9.67911C3.61114 8.12447 4.87598 6.85962 6.43063 6.85962C7.98527 6.85962 9.25011 8.12447 9.25011 9.67911C9.25011 9.97395 9.19805 10.2614 9.10914 10.5387C8.52319 10.8617 8.03089 11.341 7.69668 11.9448C7.10881 11.5335 6.39528 11.2902 5.62506 11.2902C5.16296 11.2902 4.72242 11.3805 4.31571 11.5389C3.86177 11.024 3.61114 10.3714 3.61114 9.67911ZM2.80557 14.9153C2.80557 13.3607 4.07041 12.0958 5.62506 12.0958C7.1797 12.0958 8.44455 13.3607 8.44455 14.9153C8.44455 15.0511 8.43156 15.186 8.41232 15.3197C6.87359 15.3333 5.56393 16.3112 5.0523 17.6768C3.75423 17.411 2.80557 16.2675 2.80557 14.9153ZM8.44455 21.7626C6.8899 21.7626 5.62506 20.4978 5.62506 18.9432C5.62506 17.3885 6.8899 16.1237 8.44455 16.1237C9.99919 16.1237 11.264 17.3885 11.264 18.9432C11.264 20.4978 9.99919 21.7626 8.44455 21.7626ZM9.21437 15.4022C9.23602 15.241 9.25011 15.0785 9.25011 14.9153C9.25011 13.9873 8.89657 13.1423 8.32089 12.5003C8.78661 11.517 9.75893 10.8875 10.8613 10.8875C12.4159 10.8875 13.6807 12.1523 13.6807 13.707C13.6807 13.7511 13.6768 13.7941 13.6748 13.8377C13.0671 14.3857 12.6468 15.1347 12.5181 15.9802C12.1092 16.2799 11.6262 16.4621 11.1212 16.5072C10.6231 15.9602 9.96264 15.5648 9.21437 15.4022ZM16.0974 19.3459C14.5428 19.3459 13.278 18.0811 13.278 16.5264C13.278 14.9718 14.5428 13.707 16.0974 13.707C17.6521 13.707 18.9169 14.9718 18.9169 16.5264C18.9169 18.0811 17.6521 19.3459 16.0974 19.3459ZM19.3395 14.9143C19.0445 14.324 18.5949 13.8249 18.0386 13.4701C18.3449 12.9286 18.5142 12.3237 18.5142 11.693C18.515 10.9721 18.2995 10.2674 17.8957 9.67015C18.3265 9.4161 18.8107 9.27633 19.3197 9.27633C20.8744 9.27633 22.1392 10.5412 22.1392 12.0958C22.1392 13.6438 20.885 14.9035 19.3395 14.9143Z" fill="#3F3F3F"/>
<path d="M20.5666 10.2643C20.5101 10.2643 20.4541 10.2754 20.4018 10.297C20.3496 10.3187 20.3021 10.3504 20.2621 10.3904C20.2221 10.4304 20.1904 10.4779 20.1688 10.5301C20.1471 10.5824 20.136 10.6384 20.136 10.6949C20.136 10.7515 20.1471 10.8075 20.1688 10.8598C20.1904 10.912 20.2221 10.9595 20.2621 10.9995C20.3021 11.0395 20.3496 11.0712 20.4018 11.0928C20.4541 11.1145 20.5101 11.1256 20.5666 11.1256C20.6809 11.1256 20.7904 11.0802 20.8712 10.9995C20.9519 10.9187 20.9973 10.8092 20.9973 10.6949C20.9973 10.5807 20.9519 10.4712 20.8712 10.3904C20.7904 10.3096 20.6809 10.2643 20.5666 10.2643ZM7.67755 8.70881C7.79175 8.70881 7.90127 8.66344 7.98201 8.5827C8.06276 8.50195 8.10813 8.39243 8.10813 8.27823C8.10813 8.16404 8.06276 8.05452 7.98201 7.97377C7.90127 7.89302 7.79175 7.84766 7.67755 7.84766C7.56336 7.84766 7.45384 7.89302 7.37309 7.97377C7.29234 8.05452 7.24697 8.16404 7.24697 8.27823C7.24697 8.39243 7.29234 8.50195 7.37309 8.5827C7.45384 8.66344 7.56336 8.70881 7.67755 8.70881ZM16.136 10.7227C16.1926 10.7227 16.2486 10.7116 16.3008 10.69C16.353 10.6683 16.4005 10.6366 16.4405 10.5966C16.4805 10.5566 16.5122 10.5092 16.5338 10.4569C16.5555 10.4047 16.5666 10.3487 16.5666 10.2922C16.5666 10.2356 16.5555 10.1796 16.5338 10.1274C16.5122 10.0751 16.4805 10.0277 16.4405 9.98769C16.4005 9.94771 16.353 9.91599 16.3008 9.89435C16.2486 9.87272 16.1926 9.86158 16.136 9.86158C16.0218 9.86158 15.9123 9.90694 15.8316 9.98769C15.7508 10.0684 15.7054 10.178 15.7054 10.2922C15.7054 10.4063 15.7508 10.5159 15.8316 10.5966C15.9123 10.6774 16.0218 10.7227 16.136 10.7227ZM12.5388 12.3061C12.5388 12.1919 12.4934 12.0824 12.4126 12.0016C12.3319 11.9209 12.2224 11.8755 12.1082 11.8755C11.994 11.8755 11.8845 11.9209 11.8037 12.0016C11.723 12.0824 11.6776 12.1919 11.6776 12.3061C11.6776 12.4203 11.723 12.5298 11.8037 12.6105C11.8845 12.6913 11.994 12.7367 12.1082 12.7367C12.2224 12.7367 12.3319 12.6913 12.4126 12.6105C12.4934 12.5298 12.5388 12.4203 12.5388 12.3061ZM17.3444 14.6949C17.2301 14.6949 17.1206 14.7403 17.0398 14.821C16.9591 14.9018 16.9137 15.0113 16.9137 15.1256C16.9137 15.2398 16.9591 15.3493 17.0398 15.4301C17.1206 15.5109 17.2301 15.5562 17.3444 15.5562C17.4586 15.5562 17.5681 15.5109 17.6489 15.4301C17.7297 15.3493 17.775 15.2398 17.775 15.1256C17.775 15.0113 17.7297 14.9018 17.6489 14.821C17.5681 14.7403 17.4586 14.6949 17.3444 14.6949ZM6.87198 13.945C6.98618 13.945 7.0957 13.8996 7.17645 13.8189C7.25719 13.7381 7.30256 13.6286 7.30256 13.5144C7.30256 13.4002 7.25719 13.2907 7.17645 13.21C7.0957 13.1292 6.98618 13.0839 6.87198 13.0839C6.75779 13.0839 6.64827 13.1292 6.56752 13.21C6.48677 13.2907 6.44141 13.4002 6.44141 13.5144C6.44141 13.6286 6.48677 13.7381 6.56752 13.8189C6.64827 13.8996 6.75779 13.945 6.87198 13.945ZM9.69147 17.1116C9.57725 17.1116 9.4677 17.157 9.38694 17.2377C9.30617 17.3185 9.26079 17.428 9.26079 17.5423C9.26079 17.6565 9.30617 17.766 9.38694 17.8468C9.4677 17.9276 9.57725 17.9729 9.69147 17.9729C9.80569 17.9729 9.91524 17.9276 9.99601 17.8468C10.0768 17.766 10.1221 17.6565 10.1221 17.5423C10.1221 17.428 10.0768 17.3185 9.99601 17.2377C9.91524 17.157 9.80569 17.1116 9.69147 17.1116Z" fill="#3F3F3F"/>
</svg>
