<svg width="20" height="20" viewBox="0 0 20 20" fill="none" xmlns="http://www.w3.org/2000/svg">
<path d="M19.0008 3C19.1334 3 19.2606 2.94732 19.3544 2.85355C19.4481 2.75979 19.5008 2.63261 19.5008 2.5C19.5008 2.36739 19.4481 2.24021 19.3544 2.14645C19.2606 2.05268 19.1334 2 19.0008 2C17.8725 2.03894 16.8008 2.50337 16.0008 3.3C14.0608 1.5 12.0508 0.5 10.0008 0.5C7.64284 0.588358 5.4097 1.58226 3.7658 3.275C3.5258 3.52 3.2658 3.75 3.0308 3.995C2.97532 4.05063 2.93373 4.11856 2.90941 4.19327C2.88509 4.26798 2.87871 4.34737 2.8908 4.425C2.90255 4.50324 2.93269 4.57758 2.97876 4.6419C3.02483 4.70622 3.08551 4.75869 3.1558 4.795C3.2608 4.845 3.3708 4.89 3.4808 4.93C1.3808 7.22 0.5008 9.315 0.5008 12C0.450523 14.1123 0.803493 16.2149 1.5408 18.195C1.59144 18.3143 1.68645 18.4094 1.8058 18.46C3.5008 19.18 5.5458 19.5 8.5008 19.5C10.9358 19.5 12.7808 18.68 15.0808 16.5C15.1202 16.6097 15.167 16.7166 15.2208 16.82C15.2566 16.8897 15.3083 16.95 15.3717 16.996C15.4351 17.042 15.5085 17.0725 15.5858 17.085C15.657 17.1021 15.731 17.1033 15.8027 17.0886C15.8745 17.0739 15.9421 17.0437 16.0008 17C17.0708 15.94 19.5658 13.455 19.5008 10C19.4558 7.96 18.5008 5.95 16.7108 4.03C17.3255 3.42258 18.1385 3.05693 19.0008 3ZM14.8658 15.345C12.5458 17.64 10.8058 18.5 8.5008 18.5C5.8008 18.5 3.9008 18.225 2.3858 17.62C1.75744 15.8146 1.4577 13.9112 1.5008 12C1.5008 9.815 2.0458 7.805 4.6708 5.145C4.99468 5.15737 5.31904 5.144 5.6408 5.105C5.32586 5.70293 5.09213 6.34023 4.9458 7C4.93243 7.06736 4.93307 7.13675 4.94769 7.20385C4.96232 7.27095 4.99061 7.33432 5.0308 7.39C5.06991 7.44501 5.11975 7.49154 5.17733 7.52677C5.2349 7.562 5.29901 7.58521 5.3658 7.595C6.45203 7.74175 7.55402 7.72659 8.6358 7.55C7.94928 8.79063 7.72432 10.2343 8.0008 11.625C8.02269 11.7133 8.06824 11.7939 8.13256 11.8582C8.19687 11.9226 8.27751 11.9681 8.3658 11.99C9.77315 12.2919 11.2422 12.0734 12.5008 11.375C12.3242 12.4568 12.309 13.5588 12.4558 14.645C12.4653 14.7126 12.4886 14.7774 12.5242 14.8357C12.5597 14.8939 12.6068 14.9442 12.6625 14.9836C12.7183 15.0229 12.7815 15.0504 12.8483 15.0644C12.915 15.0784 12.984 15.0786 13.0508 15.065C13.7028 14.9192 14.3319 14.6854 14.9208 14.37C14.8767 14.693 14.8583 15.0191 14.8658 15.345ZM15.8958 15.67C15.8219 14.8947 15.9053 14.1124 16.1408 13.37C16.1728 13.2636 16.1685 13.1496 16.1285 13.0459C16.0886 12.9423 16.0152 12.8549 15.92 12.7976C15.8249 12.7402 15.7133 12.7162 15.603 12.7294C15.4927 12.7425 15.3899 12.792 15.3108 12.87C14.7537 13.3726 14.0907 13.7435 13.3708 13.955C13.2785 12.7284 13.4089 11.4952 13.7558 10.315C13.7915 10.2076 13.7897 10.0912 13.7506 9.9849C13.7115 9.87863 13.6376 9.78876 13.5408 9.73C13.4448 9.67155 13.3319 9.64716 13.2203 9.66077C13.1087 9.67437 13.005 9.72519 12.9258 9.805C12.4027 10.3122 11.7697 10.692 11.0759 10.9149C10.3822 11.1377 9.64645 11.1977 8.9258 11.09C8.81929 10.3694 8.87976 9.63392 9.10256 8.94038C9.32536 8.24684 9.70453 7.61376 10.2108 7.09C10.2863 7.01047 10.3336 6.90832 10.3453 6.79929C10.357 6.69026 10.3326 6.58039 10.2758 6.48661C10.2189 6.39283 10.1328 6.32033 10.0308 6.28028C9.92866 6.24024 9.81624 6.23487 9.7108 6.265C8.52947 6.60584 7.29706 6.7345 6.0708 6.645C6.28327 5.92551 6.65399 5.26266 7.1558 4.705C7.2313 4.62547 7.27856 4.52332 7.2903 4.41429C7.30204 4.30526 7.27761 4.19539 7.22077 4.10161C7.16393 4.00782 7.07784 3.93533 6.97575 3.89529C6.87366 3.85524 6.76124 3.84987 6.6558 3.88C5.91138 4.11398 5.12745 4.1956 4.3508 4.12C5.5008 3 7.5008 1.435 10.0008 1.5C11.9008 1.54 13.8058 2.5 15.6608 4.36C17.5158 6.22 18.4558 8.105 18.5008 10C18.5608 12.5 17.0008 14.5 15.8958 15.67Z" fill="#3F3F3F"/>
</svg>
