<svg width="16" height="16" viewBox="0 0 16 16" fill="none" xmlns="http://www.w3.org/2000/svg">
<path d="M10.6667 5.33333C10.6667 6.04058 10.3858 6.71885 9.88567 7.21895C9.38557 7.71905 8.70729 8 8.00005 8C7.29281 8 6.61453 7.71905 6.11443 7.21895C5.61434 6.71885 5.33338 6.04058 5.33338 5.33333M2.4222 4.93426L1.95553 10.5343C1.85528 11.7373 1.80515 12.3388 2.00851 12.8028C2.18717 13.2105 2.49674 13.5469 2.88818 13.7588C3.3337 14 3.93729 14 5.14448 14H10.8556C12.0628 14 12.6664 14 13.1119 13.7588C13.5034 13.5469 13.8129 13.2105 13.9916 12.8028C14.1949 12.3388 14.1448 11.7373 14.0446 10.5343L13.5779 4.93426C13.4916 3.89917 13.4485 3.38162 13.2193 2.9899C13.0175 2.64496 12.7169 2.3684 12.3564 2.1959C11.947 2 11.4276 2 10.389 2L5.61114 2C4.57247 2 4.05313 2 3.64373 2.1959C3.28321 2.3684 2.98265 2.64496 2.7808 2.9899C2.55158 3.38162 2.50845 3.89917 2.4222 4.93426Z" stroke="#475467" stroke-width="1.2" stroke-linecap="round" stroke-linejoin="round"/>
</svg>
