<svg width="48" height="36" viewBox="0 0 48 36" fill="none" xmlns="http://www.w3.org/2000/svg">
<path d="M18 36H4.5C2.019 36 0 33.981 0 31.5V18C0 15.519 2.019 13.5 4.5 13.5H10.5555L8.2785 1.785C8.2365 1.56799 8.24299 1.34437 8.29749 1.13015C8.35199 0.915936 8.45316 0.716415 8.59376 0.545856C8.73436 0.375301 8.91092 0.237923 9.1108 0.143559C9.31069 0.0491905 9.52896 0.000171661 9.75 -3.8147e-06H14.61C15.915 -3.8147e-06 17.073 0.853497 17.469 2.0895L21.834 12.447C21.8595 12.507 21.8805 12.567 21.8985 12.627C22.2975 14.0655 22.5 15.552 22.5 17.0445V31.5C22.5 33.981 20.481 36 18 36ZM43.5 36H30C27.519 36 25.5 33.981 25.5 31.5V18C25.5 15.519 27.519 13.5 30 13.5H36.0555L33.7785 1.785C33.7357 1.56789 33.7415 1.34397 33.7957 1.12941C33.8499 0.914841 33.951 0.71497 34.0918 0.544212C34.2325 0.373455 34.4094 0.236069 34.6097 0.14196C34.81 0.0478477 35.0287 -0.000637054 35.25 -3.8147e-06H40.11C41.415 -3.8147e-06 42.5745 0.853497 42.9675 2.0895L47.3355 12.447C47.3595 12.507 47.3805 12.567 47.3985 12.6285C47.7975 14.067 48 15.5535 48 17.0445V31.5C48 33.981 45.981 36 43.5 36Z" fill="#94A3B8" fill-opacity="0.24"/>
</svg>
