<svg width="28" height="24" viewBox="0 0 28 24" fill="none" xmlns="http://www.w3.org/2000/svg">
<path d="M1.55725 16.217C2.56493 18.6218 4.4899 20.5953 6.97526 21.6314V23.1897C6.97526 23.6173 7.32234 23.9644 7.75 23.9644H20.2491C20.6768 23.9644 21.0239 23.6173 21.0239 23.1897V21.6314C23.5092 20.5953 25.4342 18.6218 26.4419 16.217H1.55725ZM26.447 11.5686H1.55208C1.12443 11.5686 0.777344 11.9156 0.777344 12.3433C0.777344 13.1377 0.871345 13.9165 1.05109 14.6675H26.948C27.1278 13.9165 27.2218 13.1377 27.2218 12.3433C27.2218 11.9156 26.8747 11.5686 26.447 11.5686ZM8.80334 8.2427C8.50077 7.94014 8.50077 7.44963 8.80334 7.14707C9.35691 6.59344 9.35697 5.69743 8.80334 5.14375C7.64686 3.98727 7.64686 2.10563 8.80334 0.94915C9.10585 0.646589 9.59641 0.646589 9.89897 0.94915C10.2015 1.25171 10.2015 1.74223 9.89897 2.04479C9.3454 2.59842 9.34534 3.49443 9.89897 4.04811C11.0555 5.20459 11.0555 7.08622 9.89897 8.2427C9.59646 8.54521 9.10585 8.54526 8.80334 8.2427ZM13.4518 8.2427C13.1492 7.94014 13.1492 7.44963 13.4518 7.14707C14.0054 6.59344 14.0054 5.69743 13.4518 5.14375C12.2953 3.98727 12.2953 2.10563 13.4518 0.94915C13.7543 0.646589 14.2448 0.646589 14.5474 0.94915C14.85 1.25171 14.85 1.74223 14.5474 2.04479C13.9938 2.59842 13.9938 3.49443 14.5474 4.04811C15.7039 5.20459 15.7039 7.08622 14.5474 8.2427C14.2449 8.54521 13.7543 8.54526 13.4518 8.2427ZM18.1002 8.2427C17.7976 7.94014 17.7976 7.44963 18.1002 7.14707C18.6537 6.59349 18.6538 5.69743 18.1002 5.14375C16.9437 3.98727 16.9437 2.10563 18.1002 0.94915C18.4027 0.646589 18.8933 0.646589 19.1958 0.94915C19.4984 1.25171 19.4984 1.74223 19.1958 2.04479C18.6423 2.59836 18.6422 3.49443 19.1958 4.04811C20.3523 5.20459 20.3523 7.08622 19.1958 8.2427C18.8933 8.54521 18.4027 8.54526 18.1002 8.2427Z" fill="#125043"/>
</svg>
