<svg width="27" height="21" viewBox="0 0 27 21" fill="none" xmlns="http://www.w3.org/2000/svg">
<path d="M4.52648 20.4763C4.52648 20.764 4.75699 21 5.05014 21H21.159C21.2978 20.9997 21.4309 20.9444 21.5291 20.8463C21.6274 20.7482 21.6828 20.6152 21.6833 20.4763V18.5587H4.52587L4.52648 20.4763ZM25.9802 3.68084C25.8866 3.61744 25.7754 3.58529 25.6624 3.58901C25.5494 3.59272 25.4405 3.63211 25.3513 3.70152L18.4239 9.2094L13.5607 0.253624C13.3825 -0.0869696 12.8272 -0.082104 12.6435 0.253624L7.78036 9.2094L0.852941 3.70152C0.765229 3.63089 0.656939 3.59069 0.544388 3.58696C0.431836 3.58323 0.321121 3.61618 0.228926 3.68084C0.135741 3.74438 0.0655292 3.83627 0.0287151 3.94288C-0.0080989 4.04949 -0.00955244 4.16512 0.0245703 4.27262L4.32882 17.5107H21.8803L26.1797 4.27262C26.2135 4.16558 26.2124 4.05055 26.1766 3.94416C26.1407 3.83778 26.0719 3.74556 25.9802 3.68084Z" fill="#125043"/>
</svg>
