<svg width="28" height="18" viewBox="0 0 28 18" fill="none" xmlns="http://www.w3.org/2000/svg">
<path fill-rule="evenodd" clip-rule="evenodd" d="M12.8135 1.55747C12.8135 0.903409 13.3456 0.370972 13.9998 0.370972C14.6539 0.370972 15.1863 0.903409 15.1863 1.55747V2.80599C14.7921 2.76474 14.3961 2.74406 13.9998 2.74403C13.5995 2.74403 13.2036 2.76519 12.8135 2.80599V1.55747ZM2.97361 14.9978C2.97361 8.65668 7.91998 3.49811 13.9998 3.49811C20.0796 3.49811 25.026 8.65673 25.026 14.9978C25.026 15.1299 25.0232 15.2634 25.0186 15.3995H2.98121C2.97644 15.2657 2.9739 15.1317 2.97361 14.9978ZM25.1109 17.629H2.8883C1.88276 17.629 1.04057 16.9952 0.84375 16.154H27.1554C26.9589 16.9952 26.1168 17.629 25.1109 17.629ZM14.3769 6.1119C14.3769 6.06236 14.3672 6.01331 14.3482 5.96754C14.3293 5.92178 14.3015 5.88019 14.2665 5.84516C14.2315 5.81013 14.1899 5.78234 14.1441 5.76338C14.0983 5.74443 14.0493 5.73467 13.9998 5.73467C8.78536 5.73467 5.47786 10.6927 5.47786 12.7857C5.47792 12.8857 5.51769 12.9816 5.58843 13.0523C5.65918 13.123 5.75509 13.1627 5.85509 13.1627C5.95509 13.1627 6.051 13.123 6.12174 13.0523C6.19247 12.9816 6.23223 12.8857 6.23227 12.7857C6.23227 11.2677 9.07241 6.48914 13.9998 6.48914C14.0493 6.48917 14.0984 6.47944 14.1442 6.46049C14.1899 6.44155 14.2315 6.41376 14.2666 6.37872C14.3016 6.34369 14.3294 6.30209 14.3483 6.2563C14.3673 6.21052 14.377 6.16145 14.3769 6.1119Z" fill="#125043"/>
</svg>
