<svg width="17" height="22" viewBox="0 0 17 22" fill="none" xmlns="http://www.w3.org/2000/svg">
<path d="M6.2838 14.2557C5.61965 13.4583 4.94635 13.1193 4.91806 13.1053C4.86157 13.0773 4.79939 13.0627 4.73635 13.0627C4.67331 13.0627 4.61112 13.0773 4.55464 13.1053C4.52631 13.1193 3.85308 13.4583 3.18889 14.2557C2.58317 14.9829 1.86111 16.2525 1.86111 18.1713C1.86111 19.2811 2.14816 20.0477 2.73863 20.5151C3.33376 20.9861 4.11887 21.0466 4.73635 21.0466C5.35383 21.0466 6.13893 20.9862 6.73406 20.5151C7.32449 20.0477 7.61158 19.2811 7.61158 18.1713C7.61158 16.2526 6.88956 14.9829 6.2838 14.2557ZM6.22605 19.8733C5.91609 20.1186 5.45664 20.2281 4.73635 20.2281C4.01605 20.2281 3.5566 20.1187 3.24664 19.8733C2.86508 19.5713 2.67964 19.0146 2.67964 18.1713C2.67964 16.843 3.0543 15.7119 3.79325 14.8094C4.15647 14.3658 4.5243 14.088 4.73631 13.9484C4.94875 14.0882 5.31639 14.366 5.67944 14.8094C6.41836 15.7119 6.79305 16.843 6.79305 18.1713C6.79305 19.0146 6.60757 19.5714 6.22605 19.8733ZM7.94125 7.56739C7.92725 7.53902 7.58823 6.86584 6.79084 6.20164C6.06361 5.59592 4.79401 4.87386 2.87524 4.87386C1.76544 4.87386 0.998756 5.16091 0.531402 5.75143C0.0603957 6.34659 0 7.13162 0 7.74914C0 8.36666 0.0603556 9.15168 0.531402 9.74689C0.998756 10.3374 1.76548 10.6244 2.87524 10.6244C4.79397 10.6244 6.06361 9.90236 6.79084 9.29663C7.58823 8.63244 7.92721 7.95918 7.94125 7.93089C7.96926 7.87439 7.98384 7.81219 7.98384 7.74914C7.98384 7.68608 7.96926 7.62388 7.94125 7.56739ZM6.23721 8.69219C5.33476 9.43111 4.20362 9.8058 2.87528 9.8058C2.03198 9.8058 1.4753 9.62036 1.17332 9.2388C0.928007 8.92884 0.818572 8.46943 0.818572 7.7491C0.818572 7.02884 0.927967 6.56936 1.17332 6.25939C1.4753 5.87783 2.03198 5.69239 2.87528 5.69239C4.20362 5.69239 5.33476 6.06705 6.23721 6.806C6.68081 7.16926 6.95863 7.53709 7.09824 7.74906C6.95835 7.96147 6.68061 8.32914 6.23721 8.69219ZM16.8099 5.25779C16.7239 4.31525 16.3367 2.90685 14.98 1.55013C14.1953 0.76539 13.4503 0.426211 12.7022 0.513333C11.9483 0.601098 11.3504 1.11352 10.9138 1.55009C10.4772 1.98671 9.96477 2.58456 9.877 3.33849C9.78996 4.08651 10.1291 4.83156 10.9138 5.61631C12.2706 6.97306 13.6789 7.36028 14.6215 7.4462C14.7926 7.46181 14.955 7.46835 15.107 7.46835C15.8732 7.46835 16.3757 7.30237 16.4007 7.29394C16.4604 7.27379 16.5147 7.24011 16.5592 7.19553C16.6038 7.15096 16.6375 7.09668 16.6577 7.03695C16.6677 7.00701 16.9041 6.29125 16.8099 5.25779ZM15.9331 6.56936C15.6839 6.62064 15.2274 6.68425 14.6573 6.62738C13.4967 6.51177 12.4319 5.97688 11.4926 5.03755C10.8963 4.44126 10.6339 3.91652 10.6901 3.43319C10.7358 3.04052 10.9833 2.63826 11.4926 2.12901C12.0019 1.61968 12.4042 1.3722 12.7968 1.32649C12.8395 1.32152 12.8825 1.31903 12.9255 1.31902C13.3731 1.31902 13.8574 1.58525 14.4012 2.12909C15.3405 3.06837 15.8754 4.13314 15.9911 5.29374C16.0479 5.86419 15.9842 6.32075 15.9331 6.56936ZM15.1229 12.1231C13.7661 10.7664 12.3578 10.3792 11.4152 10.2933C10.3817 10.1991 9.66596 10.4354 9.63602 10.4456C9.57629 10.4657 9.52202 10.4994 9.47744 10.544C9.43286 10.5885 9.39918 10.6428 9.37903 10.7025C9.36892 10.7325 9.13255 11.4483 9.22678 12.4817C9.31269 13.4243 9.69991 14.8326 11.0566 16.1894C11.7614 16.8942 12.4341 17.2395 13.1058 17.2395C13.182 17.2395 13.2582 17.2351 13.3345 17.2262C14.0884 17.1384 14.6863 16.626 15.1229 16.1894C15.5595 15.7528 16.0719 15.1549 16.1597 14.401C16.2468 13.653 15.9076 12.9079 15.1229 12.1231ZM15.3465 14.3064C15.3008 14.6991 15.0533 15.1013 14.544 15.6106C14.0347 16.1199 13.6325 16.3674 13.2399 16.4131C12.7563 16.4694 12.2317 16.2068 11.6355 15.6106C10.6962 14.6712 10.1613 13.6065 10.0457 12.4458C9.98876 11.8748 10.0526 11.4179 10.1038 11.1695C10.7294 11.0398 12.6768 10.8346 14.544 12.702C15.1403 13.2983 15.4027 13.8231 15.3465 14.3064Z" fill="#3F3F3F"/>
<path d="M12.5376 14.8117C12.5141 14.7899 12.491 14.7677 12.4684 14.745C12.3086 14.5851 12.0494 14.585 11.8895 14.7448C11.7296 14.9046 11.7295 15.1637 11.8893 15.3236C11.9195 15.3539 11.9503 15.3836 11.9817 15.4126C12.0573 15.4827 12.1565 15.5216 12.2596 15.5214C12.3696 15.5214 12.4794 15.4773 12.5601 15.39C12.7136 15.2241 12.7036 14.9652 12.5376 14.8117ZM14.2669 14.7449C14.107 14.585 13.848 14.585 13.6881 14.7449C13.4974 14.9356 13.3455 15.0438 13.2102 15.0855C12.9941 15.152 12.8729 15.3811 12.9394 15.5971C12.9936 15.773 13.1555 15.8861 13.3305 15.8861C13.3703 15.8861 13.4109 15.8802 13.451 15.8679C13.803 15.7595 14.0853 15.5055 14.2669 15.3238C14.4268 15.1639 14.4268 14.9047 14.2669 14.7449Z" fill="#3F3F3F"/>
</svg>
