<svg width="18" height="22" viewBox="0 0 18 22" fill="none" xmlns="http://www.w3.org/2000/svg">
<path d="M17.3281 1.89313C16.5496 0.448253 14.4999 -0.040372 13.4345 1.27325C12.3136 2.63825 10.8631 3.4805 9.12236 3.77825C7.47049 4.04713 6.89261 6.06125 7.75024 7.43675C8.28199 8.34613 9.20711 8.88725 10.1544 8.81938C13.3554 8.576 15.7884 7.16713 17.3844 4.63175C17.8689 3.86188 17.8467 2.78675 17.3281 1.89313ZM12.7947 3.11338C12.3852 3.6815 11.8197 4.00813 11.066 4.11088C11.0097 4.12063 10.952 4.08913 10.9152 4.04188C11.5977 3.767 12.2277 3.3995 12.803 2.93938C12.8311 2.99825 12.8307 3.06388 12.7947 3.11338ZM16.7499 4.23163C15.2866 6.55475 13.0494 7.84738 10.0974 8.07163C9.46211 8.11775 8.77811 7.71388 8.39899 7.06025C7.81436 6.11713 8.10461 4.71613 9.24836 4.517C9.56888 4.46035 9.88579 4.38498 10.1975 4.29125C10.3306 4.6355 10.6861 4.8635 11.048 4.862C12.0369 4.77913 12.8592 4.3085 13.4022 3.55325C13.5196 3.38979 13.58 3.19232 13.5743 2.99118C13.5685 2.79005 13.4969 2.59636 13.3704 2.43988C13.5978 2.22207 13.8128 1.99158 14.0142 1.7495C15.4805 0.152003 17.7455 2.67725 16.7502 4.232L16.7499 4.23163ZM6.73211 14.8775C8.25349 14.9255 9.78911 13.3014 9.53299 11.7853C9.43924 11.0788 9.02824 10.4885 8.40461 10.1653C6.83861 9.35338 5.71136 8.108 5.05511 6.464C3.73661 3.6185 -0.415762 5.83138 0.356738 8.537C1.31449 11.7489 3.56186 14.3308 6.73174 14.8771L6.73211 14.8775ZM6.64699 9.89675C6.59636 9.9365 6.53186 9.95038 6.47711 9.926C5.83661 9.64438 5.39899 9.158 5.13986 8.43913C5.12036 8.3855 5.13761 8.32438 5.17436 8.27788C5.58355 8.88652 6.0797 9.43193 6.64699 9.89675ZM1.07674 8.32475C0.545738 6.54088 3.42761 4.78475 4.35874 6.74225C4.48249 7.05125 4.62649 7.343 4.77986 7.62688C4.43486 7.85638 4.29311 8.30863 4.43486 8.69375C4.80761 9.67813 5.52236 10.526 6.53899 10.6891C6.80486 10.6903 7.08311 10.5658 7.25299 10.3468C7.51061 10.5193 7.77649 10.6843 8.05999 10.8313C9.10586 11.375 8.96974 12.8199 8.11549 13.5575C7.55674 14.0683 6.81274 14.2573 6.22061 14.0398C3.64811 13.0951 1.91749 11.1721 1.07674 8.32475ZM13.196 14.207C12.5097 14.0195 11.8077 14.1703 11.2685 14.6214C9.91511 15.7539 8.33974 16.3096 6.56899 16.2804C5.87899 16.2676 5.24374 16.5879 4.83386 17.1579C4.34636 17.834 4.23761 18.755 4.54399 19.6209C5.12224 21.2428 6.46886 21.5521 7.94411 21.4996C10.5635 21.5 12.7745 20.5464 14.5295 18.6556C15.803 17.3488 14.9907 14.6338 13.196 14.207ZM10.3002 16.3108C9.79286 16.7926 9.17711 17.012 8.41661 16.9689C8.35886 16.9659 8.30749 16.925 8.28011 16.8703C8.99862 16.7281 9.69254 16.4818 10.34 16.1394C10.3576 16.2028 10.3445 16.2688 10.3002 16.3108ZM13.9797 18.1453C12.1134 20.156 9.67399 21.0103 6.73361 20.6806C6.09874 20.6101 5.50286 20.084 5.25086 19.3711C4.85074 18.3361 5.39486 17.0124 6.55586 17.0304C6.88661 17.0356 7.20986 17.015 7.52936 16.9828C7.56899 17.1822 7.67393 17.3628 7.8276 17.4959C7.98128 17.6291 8.17493 17.7073 8.37799 17.7181C9.30761 17.7721 10.1686 17.4793 10.8162 16.8549C10.9616 16.7157 11.0573 16.5328 11.0887 16.3341C11.1201 16.1354 11.0855 15.9318 10.9902 15.7546C11.2494 15.5836 11.5044 15.4021 11.75 15.1963C13.4832 13.8999 15.2469 16.8009 13.9797 18.1453Z" fill="#3F3F3F"/>
</svg>
