<svg width="17" height="18" viewBox="0 0 17 18" fill="none" xmlns="http://www.w3.org/2000/svg">
<path d="M15.7598 6.51953C15.5998 6.41953 15.4298 6.33953 15.2498 6.26953C15.6098 5.20953 16.0498 3.09953 15.0898 0.519531L14.1498 0.869531C15.0298 3.22953 14.5698 5.16953 14.2698 6.02953C13.8198 5.98953 13.3698 6.02953 12.9398 6.15953C12.0498 6.44953 11.3598 7.10953 11.0098 8.02953V8.04953C10.9198 8.29953 8.80976 14.2795 0.929762 15.3495C0.429762 15.4195 0.0397619 15.8195 -0.000238104 16.3295C-0.0402381 16.8395 0.249762 17.2795 0.729762 17.4395C1.93976 17.8295 3.21976 18.0095 4.51976 18.0095C9.59976 18.0095 14.8798 15.2195 16.4998 11.1895C17.6598 8.30953 16.5298 7.02953 15.7498 6.51953H15.7598ZM15.5798 10.8095C13.7598 15.3595 6.41976 18.2195 0.999762 16.4195C0.999762 16.3495 1.04976 16.3395 1.06976 16.3395C9.48976 15.1995 11.8198 8.77953 11.9598 8.36953C12.2698 7.56953 12.8398 7.23953 13.2598 7.09953C13.9098 6.88953 14.6598 6.97953 15.2198 7.34953C16.3698 8.09953 16.0498 9.63953 15.5798 10.8095Z" fill="#3F3F3F"/>
<path d="M8.36409 5.6649C8.33126 5.84363 8.30117 6.02235 8.27929 6.19057C8.18801 6.7047 8.25357 7.23323 8.46804 7.71236C8.59577 7.98731 8.80635 8.21917 9.07258 8.37799C9.33882 8.53682 9.6485 8.61532 9.96163 8.60336C10.0655 8.59782 10.1632 8.55461 10.2352 8.48246C10.6191 8.11491 10.9175 7.67326 11.1106 7.1867C11.1605 7.45647 11.1843 7.73011 11.1817 8.0041C11.1813 8.05588 11.1916 8.10721 11.2119 8.15518C11.2322 8.20314 11.2621 8.2468 11.2999 8.28365C11.3378 8.3205 11.3828 8.34983 11.4324 8.36996C11.4821 8.3901 11.5354 8.40063 11.5893 8.40098C11.6976 8.40098 11.8016 8.35981 11.8785 8.28644C11.9553 8.21307 11.9989 8.11346 11.9996 8.00936C12.015 6.80845 11.5898 5.64066 10.7987 4.71083C10.7336 4.63503 10.6414 4.58531 10.5402 4.57141C10.439 4.55752 10.336 4.58045 10.2514 4.63571C10.1668 4.69097 10.1068 4.77458 10.0831 4.87016C10.0593 4.96573 10.0736 5.06638 10.123 5.15238C10.3777 5.60074 10.4782 6.11502 10.4103 6.62161C10.3184 7.07008 10.0876 7.48142 9.74826 7.80172C9.6292 7.77064 9.5186 7.71505 9.42413 7.6388C9.32965 7.56256 9.25357 7.46748 9.20116 7.36017C9.05867 7.01929 9.01886 6.64677 9.08627 6.28519C9.10815 6.11697 9.13824 5.95139 9.16833 5.78581C9.22171 5.51029 9.25915 5.23213 9.28049 4.95263C9.33109 3.95895 8.98135 2.98473 8.30391 2.23233C7.61452 1.50256 6.65522 1.06105 5.6313 1.00228C5.52857 0.991626 5.42544 1.01861 5.34251 1.07783C5.25958 1.13706 5.20296 1.22417 5.18396 1.32175C5.16496 1.41934 5.18497 1.52022 5.24001 1.60424C5.29505 1.68827 5.38106 1.74925 5.48085 1.775C5.87997 1.89459 6.24048 2.1106 6.52785 2.40236C6.81523 2.69412 7.01986 3.05186 7.12216 3.44135C7.21373 3.74342 7.18946 4.06703 7.05377 4.35338C6.94796 4.51495 6.79686 4.64456 6.61781 4.72732C6.43877 4.81008 6.23906 4.84262 6.04163 4.82122C5.84038 4.78558 5.65574 4.69044 5.51351 4.54907C5.37128 4.40771 5.27857 4.22718 5.24833 4.03272C5.23543 3.94958 5.1952 3.87258 5.13353 3.81296C5.07187 3.75333 4.99197 3.71421 4.90553 3.7013C4.81908 3.68838 4.7306 3.70235 4.653 3.74117C4.5754 3.77999 4.51274 3.84162 4.47418 3.91708C4.29549 4.26675 4.22623 4.65873 4.27478 5.04547C4.32334 5.43222 4.48763 5.79712 4.74773 6.09595C4.87648 6.26338 4.96945 6.45365 5.02128 6.65578C5.08774 6.88063 5.10673 7.11598 5.07713 7.34798C5.04754 7.57998 4.96995 7.80396 4.84894 8.00673C4.66673 7.47788 4.36818 6.99289 3.97357 6.58473C3.57897 6.17657 3.09756 5.85479 2.56205 5.64125C2.48268 5.6109 2.39544 5.60511 2.31249 5.62468C2.22954 5.64425 2.15501 5.6882 2.0993 5.75041C2.04358 5.81262 2.00947 5.88998 2.0017 5.97171C1.99393 6.05344 2.01291 6.13546 2.05597 6.20634C2.44442 6.84765 2.46083 7.67031 2.42527 8.39047L2.38697 8.79523C2.30476 9.51285 2.33333 10.2382 2.47177 10.9478C2.72891 11.9991 3.48665 12.8113 4.38664 12.9979H4.47144C4.58027 13.0087 4.6891 12.9775 4.77401 12.9112C4.85891 12.8449 4.91292 12.749 4.92417 12.6444C4.93541 12.5398 4.90297 12.4353 4.83397 12.3537C4.76497 12.2721 4.66507 12.2202 4.55624 12.2094C3.87236 12.0701 3.41279 11.3789 3.2596 10.7533C3.14716 10.1229 3.12966 9.48032 3.20763 8.84516C3.20763 8.70061 3.22678 8.55868 3.23225 8.41675C3.26731 7.91823 3.24437 7.4175 3.16386 6.92387C3.74104 7.44108 4.11006 8.13717 4.20609 8.88984C4.21446 8.95899 4.24186 9.02474 4.28547 9.08033C4.32908 9.13592 4.38732 9.17934 4.45419 9.20611C4.52107 9.23289 4.59417 9.24205 4.66596 9.23266C4.73774 9.22326 4.80563 9.19566 4.86262 9.15268C5.27933 8.84372 5.59228 8.42384 5.76252 7.9453C5.93276 7.46675 5.95276 6.95067 5.82005 6.46128C5.74056 6.15264 5.59628 5.86285 5.39605 5.60971C5.32723 5.52787 5.26677 5.43985 5.2155 5.34688C5.43783 5.49277 5.6945 5.58311 5.9623 5.60971C6.3226 5.64512 6.68588 5.57988 7.00855 5.42184C7.33122 5.2638 7.59958 5.01966 7.78142 4.71871C8.01225 4.26264 8.06374 3.74178 7.9264 3.25211C7.89512 3.12725 7.85583 3.00436 7.80878 2.88415C8.27344 3.46327 8.50727 4.18294 8.46804 4.91321C8.44883 5.16552 8.41412 5.41652 8.36409 5.6649Z" fill="#3F3F3F"/>
</svg>
