<svg width="14" height="13" viewBox="0 0 14 13" fill="none" xmlns="http://www.w3.org/2000/svg">
<path d="M8.12945 0.946519L9.27516 3.25329C9.42954 3.57231 9.84394 3.87497 10.1933 3.94041L12.2654 4.28397C13.5898 4.50483 13.8986 5.47007 12.9479 6.43532L11.3309 8.06314C11.0628 8.33308 10.9084 8.86478 10.9978 9.24924L11.4609 11.2615C11.8266 12.8485 10.9815 13.4701 9.59205 12.6358L7.65004 11.4742C7.30065 11.2615 6.71561 11.2615 6.36621 11.4742L4.4242 12.6358C3.03473 13.462 2.18967 12.8485 2.55532 11.2615L3.01848 9.24924C3.09161 8.8566 2.93722 8.3249 2.66908 8.05496L1.05209 6.42714C0.101404 5.47007 0.410175 4.50483 1.73464 4.27579L3.80666 3.93223C4.15606 3.87497 4.57046 3.56413 4.72484 3.24511L5.87055 0.938339C6.49622 -0.305025 7.50378 -0.305025 8.12945 0.946519Z" fill="#FEA01A"/>
</svg>
