<svg width="16" height="18" viewBox="0 0 16 18" fill="none" xmlns="http://www.w3.org/2000/svg">
<path d="M15.59 2.75034C15.5662 2.66983 15.5226 2.59655 15.4632 2.53718C15.4038 2.4778 15.3305 2.4342 15.25 2.41034C12.57 1.64034 9.73002 1.99034 7.35002 3.30034C6.70002 1.90034 5.63002 0.750337 4.22002 0.0603368C4.15182 0.0258058 4.07646 0.0078125 4.00002 0.0078125C3.92358 0.0078125 3.84821 0.0258058 3.78002 0.0603368C2.64419 0.613211 1.68715 1.47495 1.01859 2.54677C0.350025 3.61859 -0.00298629 4.8571 1.90301e-05 6.12034C1.90301e-05 7.96034 0.770019 9.72034 2.10002 10.9903C1.93002 12.2903 2.01002 13.6403 2.34002 14.9503L1.90301e-05 17.2903L0.710019 18.0003L3.05002 15.6603C3.90002 15.8803 4.77002 16.0003 5.63002 16.0003C8.34002 16.0003 10.99 14.9403 12.96 12.9703C14.2703 11.6564 15.2051 10.0158 15.6676 8.2187C16.13 6.42163 16.1033 4.53356 15.59 2.75034ZM1.00002 6.12034C1.00002 4.00034 2.14002 2.09034 4.00002 1.07034C5.12002 1.68034 6.00002 2.68034 6.51002 3.84034C5.99002 4.20034 5.49002 4.58034 5.04002 5.04034C3.7322 6.35196 2.79688 7.98791 2.33002 9.78034C1.47196 8.75361 1.0013 7.4584 1.00002 6.12034ZM12.26 12.2603C10.06 14.4603 6.92002 15.3903 3.90002 14.8203L9.56002 9.16034L8.85002 8.45034L3.18002 14.1203C2.61002 11.0903 3.53002 7.95034 5.74002 5.75034C6.89159 4.59843 8.32411 3.76733 9.89569 3.33935C11.4673 2.91138 13.1234 2.90138 14.7 3.31034C15.52 6.52034 14.6 9.93034 12.26 12.2703V12.2603Z" fill="#3F3F3F"/>
</svg>
