<svg width="20" height="20" viewBox="0 0 20 20" fill="none" xmlns="http://www.w3.org/2000/svg">
<path d="M16.5795 0.849985C16.5508 0.747411 16.4962 0.653962 16.4209 0.578645C16.3456 0.503329 16.2521 0.448686 16.1495 0.419985C12.2695 -0.680015 8.09953 0.419985 5.24953 3.25999C3.88231 4.63188 2.89731 6.33724 2.39215 8.20705C1.88698 10.0769 1.87919 12.0462 2.36953 13.92L0.0195312 16.27L0.729531 16.98L3.07953 14.63C3.99953 14.87 4.93953 15 5.87953 15C8.78953 15 11.6295 13.86 13.7495 11.74C16.5895 8.89998 17.6795 4.71999 16.5895 0.839985L16.5795 0.849985ZM13.0395 11.04C10.6395 13.44 7.21953 14.44 3.91953 13.79L9.99953 7.70998L9.28953 6.99998L3.20953 13.08C2.55953 9.77998 3.55953 6.35999 5.95953 3.95999C7.20835 2.71301 8.76099 1.81356 10.464 1.35055C12.1669 0.887542 13.9612 0.877006 15.6695 1.31999C16.5695 4.78999 15.5695 8.48998 13.0295 11.03L13.0395 11.04Z" fill="#3F3F3F"/>
</svg>
